<?xml version="1.0" encoding="utf-8" standalone="no"?>
<!DOCTYPE svg PUBLIC "-//W3C//DTD SVG 1.1//EN"
  "http://www.w3.org/Graphics/SVG/1.1/DTD/svg11.dtd">
<svg xmlns:xlink="http://www.w3.org/1999/xlink" width="563.11875pt" height="417.92925pt" viewBox="0 0 563.11875 417.92925" xmlns="http://www.w3.org/2000/svg" version="1.1">
 <metadata>
  <rdf:RDF xmlns:dc="http://purl.org/dc/elements/1.1/" xmlns:cc="http://creativecommons.org/ns#" xmlns:rdf="http://www.w3.org/1999/02/22-rdf-syntax-ns#">
   <cc:Work>
    <dc:type rdf:resource="http://purl.org/dc/dcmitype/StillImage"/>
    <dc:date>2025-09-04T18:42:18.166497</dc:date>
    <dc:format>image/svg+xml</dc:format>
    <dc:creator>
     <cc:Agent>
      <dc:title>Matplotlib v3.10.1, https://matplotlib.org/</dc:title>
     </cc:Agent>
    </dc:creator>
   </cc:Work>
  </rdf:RDF>
 </metadata>
 <defs>
  <style type="text/css">*{stroke-linejoin: round; stroke-linecap: butt}</style>
 </defs>
 <g id="figure_1">
  <g id="patch_1">
   <path d="M 0 417.92925 
L 563.11875 417.92925 
L 563.11875 0 
L 0 0 
z
" style="fill: #ffffff"/>
  </g>
  <g id="axes_1">
   <g id="patch_2">
    <path d="M 37.44875 376.50175 
L 555.91875 376.50175 
L 555.91875 24.14175 
L 37.44875 24.14175 
z
" style="fill: #ffffff"/>
   </g>
   <g id="patch_3">
    <path d="M 61.015568 376.50175 
L 76.433113 376.50175 
L 76.433113 96.140643 
L 61.015568 96.140643 
z
" clip-path="url(#p86f90d1ba1)" style="fill: #008080; opacity: 0.8; stroke: #000000; stroke-linejoin: miter"/>
   </g>
   <g id="patch_4">
    <path d="M 105.065696 376.50175 
L 120.48324 376.50175 
L 120.48324 111.52703 
L 105.065696 111.52703 
z
" clip-path="url(#p86f90d1ba1)" style="fill: #008080; opacity: 0.8; stroke: #000000; stroke-linejoin: miter"/>
   </g>
   <g id="patch_5">
    <path d="M 149.115823 376.50175 
L 164.533368 376.50175 
L 164.533368 132.198817 
L 149.115823 132.198817 
z
" clip-path="url(#p86f90d1ba1)" style="fill: #008080; opacity: 0.8; stroke: #000000; stroke-linejoin: miter"/>
   </g>
   <g id="patch_6">
    <path d="M 193.165951 376.50175 
L 208.583495 376.50175 
L 208.583495 153.575323 
L 193.165951 153.575323 
z
" clip-path="url(#p86f90d1ba1)" style="fill: #008080; opacity: 0.8; stroke: #000000; stroke-linejoin: miter"/>
   </g>
   <g id="patch_7">
    <path d="M 237.216078 376.50175 
L 252.633623 376.50175 
L 252.633623 175.774003 
L 237.216078 175.774003 
z
" clip-path="url(#p86f90d1ba1)" style="fill: #008080; opacity: 0.8; stroke: #000000; stroke-linejoin: miter"/>
   </g>
   <g id="patch_8">
    <path d="M 281.266205 376.50175 
L 296.68375 376.50175 
L 296.68375 186.697163 
L 281.266205 186.697163 
z
" clip-path="url(#p86f90d1ba1)" style="fill: #008080; opacity: 0.8; stroke: #000000; stroke-linejoin: miter"/>
   </g>
   <g id="patch_9">
    <path d="M 325.316333 376.50175 
L 340.733877 376.50175 
L 340.733877 203.14063 
L 325.316333 203.14063 
z
" clip-path="url(#p86f90d1ba1)" style="fill: #008080; opacity: 0.8; stroke: #000000; stroke-linejoin: miter"/>
   </g>
   <g id="patch_10">
    <path d="M 369.36646 376.50175 
L 384.784005 376.50175 
L 384.784005 222.285523 
L 369.36646 222.285523 
z
" clip-path="url(#p86f90d1ba1)" style="fill: #008080; opacity: 0.8; stroke: #000000; stroke-linejoin: miter"/>
   </g>
   <g id="patch_11">
    <path d="M 413.416588 376.50175 
L 428.834132 376.50175 
L 428.834132 257.286617 
L 413.416588 257.286617 
z
" clip-path="url(#p86f90d1ba1)" style="fill: #008080; opacity: 0.8; stroke: #000000; stroke-linejoin: miter"/>
   </g>
   <g id="patch_12">
    <path d="M 457.466715 376.50175 
L 472.88426 376.50175 
L 472.88426 280.30747 
L 457.466715 280.30747 
z
" clip-path="url(#p86f90d1ba1)" style="fill: #008080; opacity: 0.8; stroke: #000000; stroke-linejoin: miter"/>
   </g>
   <g id="patch_13">
    <path d="M 501.516843 376.50175 
L 516.934387 376.50175 
L 516.934387 314.603843 
L 501.516843 314.603843 
z
" clip-path="url(#p86f90d1ba1)" style="fill: #008080; opacity: 0.8; stroke: #000000; stroke-linejoin: miter"/>
   </g>
   <g id="patch_14">
    <path d="M 76.433113 376.50175 
L 91.850657 376.50175 
L 91.850657 299.68727 
L 76.433113 299.68727 
z
" clip-path="url(#p86f90d1ba1)" style="fill: #ffd700; opacity: 0.8; stroke: #000000; stroke-linejoin: miter"/>
   </g>
   <g id="patch_15">
    <path d="M 120.48324 376.50175 
L 135.900785 376.50175 
L 135.900785 298.747643 
L 120.48324 298.747643 
z
" clip-path="url(#p86f90d1ba1)" style="fill: #ffd700; opacity: 0.8; stroke: #000000; stroke-linejoin: miter"/>
   </g>
   <g id="patch_16">
    <path d="M 164.533368 376.50175 
L 179.950912 376.50175 
L 179.950912 303.21087 
L 164.533368 303.21087 
z
" clip-path="url(#p86f90d1ba1)" style="fill: #ffd700; opacity: 0.8; stroke: #000000; stroke-linejoin: miter"/>
   </g>
   <g id="patch_17">
    <path d="M 208.583495 376.50175 
L 224.00104 376.50175 
L 224.00104 308.026457 
L 208.583495 308.026457 
z
" clip-path="url(#p86f90d1ba1)" style="fill: #ffd700; opacity: 0.8; stroke: #000000; stroke-linejoin: miter"/>
   </g>
   <g id="patch_18">
    <path d="M 252.633623 376.50175 
L 268.051167 376.50175 
L 268.051167 314.13403 
L 252.633623 314.13403 
z
" clip-path="url(#p86f90d1ba1)" style="fill: #ffd700; opacity: 0.8; stroke: #000000; stroke-linejoin: miter"/>
   </g>
   <g id="patch_19">
    <path d="M 296.68375 376.50175 
L 312.101295 376.50175 
L 312.101295 308.966083 
L 296.68375 308.966083 
z
" clip-path="url(#p86f90d1ba1)" style="fill: #ffd700; opacity: 0.8; stroke: #000000; stroke-linejoin: miter"/>
   </g>
   <g id="patch_20">
    <path d="M 340.733877 376.50175 
L 356.151422 376.50175 
L 356.151422 308.84863 
L 340.733877 308.84863 
z
" clip-path="url(#p86f90d1ba1)" style="fill: #ffd700; opacity: 0.8; stroke: #000000; stroke-linejoin: miter"/>
   </g>
   <g id="patch_21">
    <path d="M 384.784005 376.50175 
L 400.201549 376.50175 
L 400.201549 311.784963 
L 384.784005 311.784963 
z
" clip-path="url(#p86f90d1ba1)" style="fill: #ffd700; opacity: 0.8; stroke: #000000; stroke-linejoin: miter"/>
   </g>
   <g id="patch_22">
    <path d="M 428.834132 376.50175 
L 444.251677 376.50175 
L 444.251677 330.460043 
L 428.834132 330.460043 
z
" clip-path="url(#p86f90d1ba1)" style="fill: #ffd700; opacity: 0.8; stroke: #000000; stroke-linejoin: miter"/>
   </g>
   <g id="patch_23">
    <path d="M 472.88426 376.50175 
L 488.301804 376.50175 
L 488.301804 337.272337 
L 472.88426 337.272337 
z
" clip-path="url(#p86f90d1ba1)" style="fill: #ffd700; opacity: 0.8; stroke: #000000; stroke-linejoin: miter"/>
   </g>
   <g id="patch_24">
    <path d="M 516.934387 376.50175 
L 532.351932 376.50175 
L 532.351932 350.662017 
L 516.934387 350.662017 
z
" clip-path="url(#p86f90d1ba1)" style="fill: #ffd700; opacity: 0.8; stroke: #000000; stroke-linejoin: miter"/>
   </g>
   <g id="matplotlib.axis_1">
    <g id="xtick_1">
     <g id="line2d_1">
      <defs>
       <path id="m011fd6dd43" d="M 0 0 
L 0 3.5 
" style="stroke: #000000; stroke-width: 0.8"/>
      </defs>
      <g>
       <use xlink:href="#m011fd6dd43" x="76.433113" y="376.50175" style="stroke: #000000; stroke-width: 0.8"/>
      </g>
     </g>
     <g id="text_1">
      <!-- 20 -->
      <g transform="translate(68.798113 392.619875) scale(0.12 -0.12)">
       <defs>
        <path id="DejaVuSans-32" d="M 1228 531 
L 3431 531 
L 3431 0 
L 469 0 
L 469 531 
Q 828 903 1448 1529 
Q 2069 2156 2228 2338 
Q 2531 2678 2651 2914 
Q 2772 3150 2772 3378 
Q 2772 3750 2511 3984 
Q 2250 4219 1831 4219 
Q 1534 4219 1204 4116 
Q 875 4013 500 3803 
L 500 4441 
Q 881 4594 1212 4672 
Q 1544 4750 1819 4750 
Q 2544 4750 2975 4387 
Q 3406 4025 3406 3419 
Q 3406 3131 3298 2873 
Q 3191 2616 2906 2266 
Q 2828 2175 2409 1742 
Q 1991 1309 1228 531 
z
" transform="scale(0.015625)"/>
        <path id="DejaVuSans-30" d="M 2034 4250 
Q 1547 4250 1301 3770 
Q 1056 3291 1056 2328 
Q 1056 1369 1301 889 
Q 1547 409 2034 409 
Q 2525 409 2770 889 
Q 3016 1369 3016 2328 
Q 3016 3291 2770 3770 
Q 2525 4250 2034 4250 
z
M 2034 4750 
Q 2819 4750 3233 4129 
Q 3647 3509 3647 2328 
Q 3647 1150 3233 529 
Q 2819 -91 2034 -91 
Q 1250 -91 836 529 
Q 422 1150 422 2328 
Q 422 3509 836 4129 
Q 1250 4750 2034 4750 
z
" transform="scale(0.015625)"/>
       </defs>
       <use xlink:href="#DejaVuSans-32"/>
       <use xlink:href="#DejaVuSans-30" transform="translate(63.623047 0)"/>
      </g>
     </g>
    </g>
    <g id="xtick_2">
     <g id="line2d_2">
      <g>
       <use xlink:href="#m011fd6dd43" x="120.48324" y="376.50175" style="stroke: #000000; stroke-width: 0.8"/>
      </g>
     </g>
     <g id="text_2">
      <!-- 21 -->
      <g transform="translate(112.84824 392.619875) scale(0.12 -0.12)">
       <defs>
        <path id="DejaVuSans-31" d="M 794 531 
L 1825 531 
L 1825 4091 
L 703 3866 
L 703 4441 
L 1819 4666 
L 2450 4666 
L 2450 531 
L 3481 531 
L 3481 0 
L 794 0 
L 794 531 
z
" transform="scale(0.015625)"/>
       </defs>
       <use xlink:href="#DejaVuSans-32"/>
       <use xlink:href="#DejaVuSans-31" transform="translate(63.623047 0)"/>
      </g>
     </g>
    </g>
    <g id="xtick_3">
     <g id="line2d_3">
      <g>
       <use xlink:href="#m011fd6dd43" x="164.533368" y="376.50175" style="stroke: #000000; stroke-width: 0.8"/>
      </g>
     </g>
     <g id="text_3">
      <!-- 22 -->
      <g transform="translate(156.898368 392.619875) scale(0.12 -0.12)">
       <use xlink:href="#DejaVuSans-32"/>
       <use xlink:href="#DejaVuSans-32" transform="translate(63.623047 0)"/>
      </g>
     </g>
    </g>
    <g id="xtick_4">
     <g id="line2d_4">
      <g>
       <use xlink:href="#m011fd6dd43" x="208.583495" y="376.50175" style="stroke: #000000; stroke-width: 0.8"/>
      </g>
     </g>
     <g id="text_4">
      <!-- 23 -->
      <g transform="translate(200.948495 392.619875) scale(0.12 -0.12)">
       <defs>
        <path id="DejaVuSans-33" d="M 2597 2516 
Q 3050 2419 3304 2112 
Q 3559 1806 3559 1356 
Q 3559 666 3084 287 
Q 2609 -91 1734 -91 
Q 1441 -91 1130 -33 
Q 819 25 488 141 
L 488 750 
Q 750 597 1062 519 
Q 1375 441 1716 441 
Q 2309 441 2620 675 
Q 2931 909 2931 1356 
Q 2931 1769 2642 2001 
Q 2353 2234 1838 2234 
L 1294 2234 
L 1294 2753 
L 1863 2753 
Q 2328 2753 2575 2939 
Q 2822 3125 2822 3475 
Q 2822 3834 2567 4026 
Q 2313 4219 1838 4219 
Q 1578 4219 1281 4162 
Q 984 4106 628 3988 
L 628 4550 
Q 988 4650 1302 4700 
Q 1616 4750 1894 4750 
Q 2613 4750 3031 4423 
Q 3450 4097 3450 3541 
Q 3450 3153 3228 2886 
Q 3006 2619 2597 2516 
z
" transform="scale(0.015625)"/>
       </defs>
       <use xlink:href="#DejaVuSans-32"/>
       <use xlink:href="#DejaVuSans-33" transform="translate(63.623047 0)"/>
      </g>
     </g>
    </g>
    <g id="xtick_5">
     <g id="line2d_5">
      <g>
       <use xlink:href="#m011fd6dd43" x="252.633623" y="376.50175" style="stroke: #000000; stroke-width: 0.8"/>
      </g>
     </g>
     <g id="text_5">
      <!-- 24 -->
      <g transform="translate(244.998623 392.619875) scale(0.12 -0.12)">
       <defs>
        <path id="DejaVuSans-34" d="M 2419 4116 
L 825 1625 
L 2419 1625 
L 2419 4116 
z
M 2253 4666 
L 3047 4666 
L 3047 1625 
L 3713 1625 
L 3713 1100 
L 3047 1100 
L 3047 0 
L 2419 0 
L 2419 1100 
L 313 1100 
L 313 1709 
L 2253 4666 
z
" transform="scale(0.015625)"/>
       </defs>
       <use xlink:href="#DejaVuSans-32"/>
       <use xlink:href="#DejaVuSans-34" transform="translate(63.623047 0)"/>
      </g>
     </g>
    </g>
    <g id="xtick_6">
     <g id="line2d_6">
      <g>
       <use xlink:href="#m011fd6dd43" x="296.68375" y="376.50175" style="stroke: #000000; stroke-width: 0.8"/>
      </g>
     </g>
     <g id="text_6">
      <!-- 25 -->
      <g transform="translate(289.04875 392.619875) scale(0.12 -0.12)">
       <defs>
        <path id="DejaVuSans-35" d="M 691 4666 
L 3169 4666 
L 3169 4134 
L 1269 4134 
L 1269 2991 
Q 1406 3038 1543 3061 
Q 1681 3084 1819 3084 
Q 2600 3084 3056 2656 
Q 3513 2228 3513 1497 
Q 3513 744 3044 326 
Q 2575 -91 1722 -91 
Q 1428 -91 1123 -41 
Q 819 9 494 109 
L 494 744 
Q 775 591 1075 516 
Q 1375 441 1709 441 
Q 2250 441 2565 725 
Q 2881 1009 2881 1497 
Q 2881 1984 2565 2268 
Q 2250 2553 1709 2553 
Q 1456 2553 1204 2497 
Q 953 2441 691 2322 
L 691 4666 
z
" transform="scale(0.015625)"/>
       </defs>
       <use xlink:href="#DejaVuSans-32"/>
       <use xlink:href="#DejaVuSans-35" transform="translate(63.623047 0)"/>
      </g>
     </g>
    </g>
    <g id="xtick_7">
     <g id="line2d_7">
      <g>
       <use xlink:href="#m011fd6dd43" x="340.733877" y="376.50175" style="stroke: #000000; stroke-width: 0.8"/>
      </g>
     </g>
     <g id="text_7">
      <!-- 26 -->
      <g transform="translate(333.098877 392.619875) scale(0.12 -0.12)">
       <defs>
        <path id="DejaVuSans-36" d="M 2113 2584 
Q 1688 2584 1439 2293 
Q 1191 2003 1191 1497 
Q 1191 994 1439 701 
Q 1688 409 2113 409 
Q 2538 409 2786 701 
Q 3034 994 3034 1497 
Q 3034 2003 2786 2293 
Q 2538 2584 2113 2584 
z
M 3366 4563 
L 3366 3988 
Q 3128 4100 2886 4159 
Q 2644 4219 2406 4219 
Q 1781 4219 1451 3797 
Q 1122 3375 1075 2522 
Q 1259 2794 1537 2939 
Q 1816 3084 2150 3084 
Q 2853 3084 3261 2657 
Q 3669 2231 3669 1497 
Q 3669 778 3244 343 
Q 2819 -91 2113 -91 
Q 1303 -91 875 529 
Q 447 1150 447 2328 
Q 447 3434 972 4092 
Q 1497 4750 2381 4750 
Q 2619 4750 2861 4703 
Q 3103 4656 3366 4563 
z
" transform="scale(0.015625)"/>
       </defs>
       <use xlink:href="#DejaVuSans-32"/>
       <use xlink:href="#DejaVuSans-36" transform="translate(63.623047 0)"/>
      </g>
     </g>
    </g>
    <g id="xtick_8">
     <g id="line2d_8">
      <g>
       <use xlink:href="#m011fd6dd43" x="384.784005" y="376.50175" style="stroke: #000000; stroke-width: 0.8"/>
      </g>
     </g>
     <g id="text_8">
      <!-- 27 -->
      <g transform="translate(377.149005 392.619875) scale(0.12 -0.12)">
       <defs>
        <path id="DejaVuSans-37" d="M 525 4666 
L 3525 4666 
L 3525 4397 
L 1831 0 
L 1172 0 
L 2766 4134 
L 525 4134 
L 525 4666 
z
" transform="scale(0.015625)"/>
       </defs>
       <use xlink:href="#DejaVuSans-32"/>
       <use xlink:href="#DejaVuSans-37" transform="translate(63.623047 0)"/>
      </g>
     </g>
    </g>
    <g id="xtick_9">
     <g id="line2d_9">
      <g>
       <use xlink:href="#m011fd6dd43" x="428.834132" y="376.50175" style="stroke: #000000; stroke-width: 0.8"/>
      </g>
     </g>
     <g id="text_9">
      <!-- 28 -->
      <g transform="translate(421.199132 392.619875) scale(0.12 -0.12)">
       <defs>
        <path id="DejaVuSans-38" d="M 2034 2216 
Q 1584 2216 1326 1975 
Q 1069 1734 1069 1313 
Q 1069 891 1326 650 
Q 1584 409 2034 409 
Q 2484 409 2743 651 
Q 3003 894 3003 1313 
Q 3003 1734 2745 1975 
Q 2488 2216 2034 2216 
z
M 1403 2484 
Q 997 2584 770 2862 
Q 544 3141 544 3541 
Q 544 4100 942 4425 
Q 1341 4750 2034 4750 
Q 2731 4750 3128 4425 
Q 3525 4100 3525 3541 
Q 3525 3141 3298 2862 
Q 3072 2584 2669 2484 
Q 3125 2378 3379 2068 
Q 3634 1759 3634 1313 
Q 3634 634 3220 271 
Q 2806 -91 2034 -91 
Q 1263 -91 848 271 
Q 434 634 434 1313 
Q 434 1759 690 2068 
Q 947 2378 1403 2484 
z
M 1172 3481 
Q 1172 3119 1398 2916 
Q 1625 2713 2034 2713 
Q 2441 2713 2670 2916 
Q 2900 3119 2900 3481 
Q 2900 3844 2670 4047 
Q 2441 4250 2034 4250 
Q 1625 4250 1398 4047 
Q 1172 3844 1172 3481 
z
" transform="scale(0.015625)"/>
       </defs>
       <use xlink:href="#DejaVuSans-32"/>
       <use xlink:href="#DejaVuSans-38" transform="translate(63.623047 0)"/>
      </g>
     </g>
    </g>
    <g id="xtick_10">
     <g id="line2d_10">
      <g>
       <use xlink:href="#m011fd6dd43" x="472.88426" y="376.50175" style="stroke: #000000; stroke-width: 0.8"/>
      </g>
     </g>
     <g id="text_10">
      <!-- 29 -->
      <g transform="translate(465.24926 392.619875) scale(0.12 -0.12)">
       <defs>
        <path id="DejaVuSans-39" d="M 703 97 
L 703 672 
Q 941 559 1184 500 
Q 1428 441 1663 441 
Q 2288 441 2617 861 
Q 2947 1281 2994 2138 
Q 2813 1869 2534 1725 
Q 2256 1581 1919 1581 
Q 1219 1581 811 2004 
Q 403 2428 403 3163 
Q 403 3881 828 4315 
Q 1253 4750 1959 4750 
Q 2769 4750 3195 4129 
Q 3622 3509 3622 2328 
Q 3622 1225 3098 567 
Q 2575 -91 1691 -91 
Q 1453 -91 1209 -44 
Q 966 3 703 97 
z
M 1959 2075 
Q 2384 2075 2632 2365 
Q 2881 2656 2881 3163 
Q 2881 3666 2632 3958 
Q 2384 4250 1959 4250 
Q 1534 4250 1286 3958 
Q 1038 3666 1038 3163 
Q 1038 2656 1286 2365 
Q 1534 2075 1959 2075 
z
" transform="scale(0.015625)"/>
       </defs>
       <use xlink:href="#DejaVuSans-32"/>
       <use xlink:href="#DejaVuSans-39" transform="translate(63.623047 0)"/>
      </g>
     </g>
    </g>
    <g id="xtick_11">
     <g id="line2d_11">
      <g>
       <use xlink:href="#m011fd6dd43" x="516.934387" y="376.50175" style="stroke: #000000; stroke-width: 0.8"/>
      </g>
     </g>
     <g id="text_11">
      <!-- 30 -->
      <g transform="translate(509.299387 392.619875) scale(0.12 -0.12)">
       <use xlink:href="#DejaVuSans-33"/>
       <use xlink:href="#DejaVuSans-30" transform="translate(63.623047 0)"/>
      </g>
     </g>
    </g>
    <g id="text_12">
     <!-- Transmit Power (dBm) -->
     <g transform="translate(221.35 408.233625) scale(0.12 -0.12)">
      <defs>
       <path id="DejaVuSans-Bold-54" d="M 31 4666 
L 4331 4666 
L 4331 3756 
L 2784 3756 
L 2784 0 
L 1581 0 
L 1581 3756 
L 31 3756 
L 31 4666 
z
" transform="scale(0.015625)"/>
       <path id="DejaVuSans-Bold-72" d="M 3138 2547 
Q 2991 2616 2845 2648 
Q 2700 2681 2553 2681 
Q 2122 2681 1889 2404 
Q 1656 2128 1656 1613 
L 1656 0 
L 538 0 
L 538 3500 
L 1656 3500 
L 1656 2925 
Q 1872 3269 2151 3426 
Q 2431 3584 2822 3584 
Q 2878 3584 2943 3579 
Q 3009 3575 3134 3559 
L 3138 2547 
z
" transform="scale(0.015625)"/>
       <path id="DejaVuSans-Bold-61" d="M 2106 1575 
Q 1756 1575 1579 1456 
Q 1403 1338 1403 1106 
Q 1403 894 1545 773 
Q 1688 653 1941 653 
Q 2256 653 2472 879 
Q 2688 1106 2688 1447 
L 2688 1575 
L 2106 1575 
z
M 3816 1997 
L 3816 0 
L 2688 0 
L 2688 519 
Q 2463 200 2181 54 
Q 1900 -91 1497 -91 
Q 953 -91 614 226 
Q 275 544 275 1050 
Q 275 1666 698 1953 
Q 1122 2241 2028 2241 
L 2688 2241 
L 2688 2328 
Q 2688 2594 2478 2717 
Q 2269 2841 1825 2841 
Q 1466 2841 1156 2769 
Q 847 2697 581 2553 
L 581 3406 
Q 941 3494 1303 3539 
Q 1666 3584 2028 3584 
Q 2975 3584 3395 3211 
Q 3816 2838 3816 1997 
z
" transform="scale(0.015625)"/>
       <path id="DejaVuSans-Bold-6e" d="M 4056 2131 
L 4056 0 
L 2931 0 
L 2931 347 
L 2931 1631 
Q 2931 2084 2911 2256 
Q 2891 2428 2841 2509 
Q 2775 2619 2662 2680 
Q 2550 2741 2406 2741 
Q 2056 2741 1856 2470 
Q 1656 2200 1656 1722 
L 1656 0 
L 538 0 
L 538 3500 
L 1656 3500 
L 1656 2988 
Q 1909 3294 2193 3439 
Q 2478 3584 2822 3584 
Q 3428 3584 3742 3212 
Q 4056 2841 4056 2131 
z
" transform="scale(0.015625)"/>
       <path id="DejaVuSans-Bold-73" d="M 3272 3391 
L 3272 2541 
Q 2913 2691 2578 2766 
Q 2244 2841 1947 2841 
Q 1628 2841 1473 2761 
Q 1319 2681 1319 2516 
Q 1319 2381 1436 2309 
Q 1553 2238 1856 2203 
L 2053 2175 
Q 2913 2066 3209 1816 
Q 3506 1566 3506 1031 
Q 3506 472 3093 190 
Q 2681 -91 1863 -91 
Q 1516 -91 1145 -36 
Q 775 19 384 128 
L 384 978 
Q 719 816 1070 734 
Q 1422 653 1784 653 
Q 2113 653 2278 743 
Q 2444 834 2444 1013 
Q 2444 1163 2330 1236 
Q 2216 1309 1875 1350 
L 1678 1375 
Q 931 1469 631 1722 
Q 331 1975 331 2491 
Q 331 3047 712 3315 
Q 1094 3584 1881 3584 
Q 2191 3584 2531 3537 
Q 2872 3491 3272 3391 
z
" transform="scale(0.015625)"/>
       <path id="DejaVuSans-Bold-6d" d="M 3781 2919 
Q 3994 3244 4286 3414 
Q 4578 3584 4928 3584 
Q 5531 3584 5847 3212 
Q 6163 2841 6163 2131 
L 6163 0 
L 5038 0 
L 5038 1825 
Q 5041 1866 5042 1909 
Q 5044 1953 5044 2034 
Q 5044 2406 4934 2573 
Q 4825 2741 4581 2741 
Q 4263 2741 4089 2478 
Q 3916 2216 3909 1719 
L 3909 0 
L 2784 0 
L 2784 1825 
Q 2784 2406 2684 2573 
Q 2584 2741 2328 2741 
Q 2006 2741 1831 2477 
Q 1656 2213 1656 1722 
L 1656 0 
L 531 0 
L 531 3500 
L 1656 3500 
L 1656 2988 
Q 1863 3284 2130 3434 
Q 2397 3584 2719 3584 
Q 3081 3584 3359 3409 
Q 3638 3234 3781 2919 
z
" transform="scale(0.015625)"/>
       <path id="DejaVuSans-Bold-69" d="M 538 3500 
L 1656 3500 
L 1656 0 
L 538 0 
L 538 3500 
z
M 538 4863 
L 1656 4863 
L 1656 3950 
L 538 3950 
L 538 4863 
z
" transform="scale(0.015625)"/>
       <path id="DejaVuSans-Bold-74" d="M 1759 4494 
L 1759 3500 
L 2913 3500 
L 2913 2700 
L 1759 2700 
L 1759 1216 
Q 1759 972 1856 886 
Q 1953 800 2241 800 
L 2816 800 
L 2816 0 
L 1856 0 
Q 1194 0 917 276 
Q 641 553 641 1216 
L 641 2700 
L 84 2700 
L 84 3500 
L 641 3500 
L 641 4494 
L 1759 4494 
z
" transform="scale(0.015625)"/>
       <path id="DejaVuSans-Bold-20" transform="scale(0.015625)"/>
       <path id="DejaVuSans-Bold-50" d="M 588 4666 
L 2584 4666 
Q 3475 4666 3951 4270 
Q 4428 3875 4428 3144 
Q 4428 2409 3951 2014 
Q 3475 1619 2584 1619 
L 1791 1619 
L 1791 0 
L 588 0 
L 588 4666 
z
M 1791 3794 
L 1791 2491 
L 2456 2491 
Q 2806 2491 2997 2661 
Q 3188 2831 3188 3144 
Q 3188 3456 2997 3625 
Q 2806 3794 2456 3794 
L 1791 3794 
z
" transform="scale(0.015625)"/>
       <path id="DejaVuSans-Bold-6f" d="M 2203 2784 
Q 1831 2784 1636 2517 
Q 1441 2250 1441 1747 
Q 1441 1244 1636 976 
Q 1831 709 2203 709 
Q 2569 709 2762 976 
Q 2956 1244 2956 1747 
Q 2956 2250 2762 2517 
Q 2569 2784 2203 2784 
z
M 2203 3584 
Q 3106 3584 3614 3096 
Q 4122 2609 4122 1747 
Q 4122 884 3614 396 
Q 3106 -91 2203 -91 
Q 1297 -91 786 396 
Q 275 884 275 1747 
Q 275 2609 786 3096 
Q 1297 3584 2203 3584 
z
" transform="scale(0.015625)"/>
       <path id="DejaVuSans-Bold-77" d="M 225 3500 
L 1313 3500 
L 1900 1088 
L 2491 3500 
L 3425 3500 
L 4013 1113 
L 4603 3500 
L 5691 3500 
L 4769 0 
L 3547 0 
L 2956 2406 
L 2369 0 
L 1147 0 
L 225 3500 
z
" transform="scale(0.015625)"/>
       <path id="DejaVuSans-Bold-65" d="M 4031 1759 
L 4031 1441 
L 1416 1441 
Q 1456 1047 1700 850 
Q 1944 653 2381 653 
Q 2734 653 3104 758 
Q 3475 863 3866 1075 
L 3866 213 
Q 3469 63 3072 -14 
Q 2675 -91 2278 -91 
Q 1328 -91 801 392 
Q 275 875 275 1747 
Q 275 2603 792 3093 
Q 1309 3584 2216 3584 
Q 3041 3584 3536 3087 
Q 4031 2591 4031 1759 
z
M 2881 2131 
Q 2881 2450 2695 2645 
Q 2509 2841 2209 2841 
Q 1884 2841 1681 2658 
Q 1478 2475 1428 2131 
L 2881 2131 
z
" transform="scale(0.015625)"/>
       <path id="DejaVuSans-Bold-28" d="M 2413 -844 
L 1484 -844 
Q 1006 -72 778 623 
Q 550 1319 550 2003 
Q 550 2688 779 3389 
Q 1009 4091 1484 4856 
L 2413 4856 
Q 2013 4116 1813 3408 
Q 1613 2700 1613 2009 
Q 1613 1319 1811 609 
Q 2009 -100 2413 -844 
z
" transform="scale(0.015625)"/>
       <path id="DejaVuSans-Bold-64" d="M 2919 2988 
L 2919 4863 
L 4044 4863 
L 4044 0 
L 2919 0 
L 2919 506 
Q 2688 197 2409 53 
Q 2131 -91 1766 -91 
Q 1119 -91 703 423 
Q 288 938 288 1747 
Q 288 2556 703 3070 
Q 1119 3584 1766 3584 
Q 2128 3584 2408 3439 
Q 2688 3294 2919 2988 
z
M 2181 722 
Q 2541 722 2730 984 
Q 2919 1247 2919 1747 
Q 2919 2247 2730 2509 
Q 2541 2772 2181 2772 
Q 1825 2772 1636 2509 
Q 1447 2247 1447 1747 
Q 1447 1247 1636 984 
Q 1825 722 2181 722 
z
" transform="scale(0.015625)"/>
       <path id="DejaVuSans-Bold-42" d="M 2456 2859 
Q 2741 2859 2887 2984 
Q 3034 3109 3034 3353 
Q 3034 3594 2887 3720 
Q 2741 3847 2456 3847 
L 1791 3847 
L 1791 2859 
L 2456 2859 
z
M 2497 819 
Q 2859 819 3042 972 
Q 3225 1125 3225 1434 
Q 3225 1738 3044 1889 
Q 2863 2041 2497 2041 
L 1791 2041 
L 1791 819 
L 2497 819 
z
M 3616 2497 
Q 4003 2384 4215 2081 
Q 4428 1778 4428 1338 
Q 4428 663 3972 331 
Q 3516 0 2584 0 
L 588 0 
L 588 4666 
L 2394 4666 
Q 3366 4666 3802 4372 
Q 4238 4078 4238 3431 
Q 4238 3091 4078 2852 
Q 3919 2613 3616 2497 
z
" transform="scale(0.015625)"/>
       <path id="DejaVuSans-Bold-29" d="M 513 -844 
Q 913 -100 1113 609 
Q 1313 1319 1313 2009 
Q 1313 2700 1113 3408 
Q 913 4116 513 4856 
L 1441 4856 
Q 1916 4091 2145 3389 
Q 2375 2688 2375 2003 
Q 2375 1319 2147 623 
Q 1919 -72 1441 -844 
L 513 -844 
z
" transform="scale(0.015625)"/>
      </defs>
      <use xlink:href="#DejaVuSans-Bold-54"/>
      <use xlink:href="#DejaVuSans-Bold-72" transform="translate(57.212891 0)"/>
      <use xlink:href="#DejaVuSans-Bold-61" transform="translate(106.529297 0)"/>
      <use xlink:href="#DejaVuSans-Bold-6e" transform="translate(174.009766 0)"/>
      <use xlink:href="#DejaVuSans-Bold-73" transform="translate(245.201172 0)"/>
      <use xlink:href="#DejaVuSans-Bold-6d" transform="translate(304.722656 0)"/>
      <use xlink:href="#DejaVuSans-Bold-69" transform="translate(408.921875 0)"/>
      <use xlink:href="#DejaVuSans-Bold-74" transform="translate(443.199219 0)"/>
      <use xlink:href="#DejaVuSans-Bold-20" transform="translate(491.001953 0)"/>
      <use xlink:href="#DejaVuSans-Bold-50" transform="translate(525.816406 0)"/>
      <use xlink:href="#DejaVuSans-Bold-6f" transform="translate(599.107422 0)"/>
      <use xlink:href="#DejaVuSans-Bold-77" transform="translate(667.808594 0)"/>
      <use xlink:href="#DejaVuSans-Bold-65" transform="translate(760.191406 0)"/>
      <use xlink:href="#DejaVuSans-Bold-72" transform="translate(828.013672 0)"/>
      <use xlink:href="#DejaVuSans-Bold-20" transform="translate(877.330078 0)"/>
      <use xlink:href="#DejaVuSans-Bold-28" transform="translate(912.144531 0)"/>
      <use xlink:href="#DejaVuSans-Bold-64" transform="translate(957.847656 0)"/>
      <use xlink:href="#DejaVuSans-Bold-42" transform="translate(1029.429688 0)"/>
      <use xlink:href="#DejaVuSans-Bold-6d" transform="translate(1105.650391 0)"/>
      <use xlink:href="#DejaVuSans-Bold-29" transform="translate(1209.849609 0)"/>
     </g>
    </g>
   </g>
   <g id="matplotlib.axis_2">
    <g id="ytick_1">
     <g id="line2d_12">
      <path d="M 37.44875 376.50175 
L 555.91875 376.50175 
" clip-path="url(#p86f90d1ba1)" style="fill: none; stroke: #b0b0b0; stroke-opacity: 0.3; stroke-width: 0.8; stroke-linecap: square"/>
     </g>
     <g id="line2d_13">
      <defs>
       <path id="m61fd984e13" d="M 0 0 
L -3.5 0 
" style="stroke: #000000; stroke-width: 0.8"/>
      </defs>
      <g>
       <use xlink:href="#m61fd984e13" x="37.44875" y="376.50175" style="stroke: #000000; stroke-width: 0.8"/>
      </g>
     </g>
     <g id="text_13">
      <!-- 0 -->
      <g transform="translate(22.81375 381.060812) scale(0.12 -0.12)">
       <use xlink:href="#DejaVuSans-30"/>
      </g>
     </g>
    </g>
    <g id="ytick_2">
     <g id="line2d_14">
      <path d="M 37.44875 317.775083 
L 555.91875 317.775083 
" clip-path="url(#p86f90d1ba1)" style="fill: none; stroke: #b0b0b0; stroke-opacity: 0.3; stroke-width: 0.8; stroke-linecap: square"/>
     </g>
     <g id="line2d_15">
      <g>
       <use xlink:href="#m61fd984e13" x="37.44875" y="317.775083" style="stroke: #000000; stroke-width: 0.8"/>
      </g>
     </g>
     <g id="text_14">
      <!-- 1 -->
      <g transform="translate(22.81375 322.334146) scale(0.12 -0.12)">
       <use xlink:href="#DejaVuSans-31"/>
      </g>
     </g>
    </g>
    <g id="ytick_3">
     <g id="line2d_16">
      <path d="M 37.44875 259.048417 
L 555.91875 259.048417 
" clip-path="url(#p86f90d1ba1)" style="fill: none; stroke: #b0b0b0; stroke-opacity: 0.3; stroke-width: 0.8; stroke-linecap: square"/>
     </g>
     <g id="line2d_17">
      <g>
       <use xlink:href="#m61fd984e13" x="37.44875" y="259.048417" style="stroke: #000000; stroke-width: 0.8"/>
      </g>
     </g>
     <g id="text_15">
      <!-- 2 -->
      <g transform="translate(22.81375 263.607479) scale(0.12 -0.12)">
       <use xlink:href="#DejaVuSans-32"/>
      </g>
     </g>
    </g>
    <g id="ytick_4">
     <g id="line2d_18">
      <path d="M 37.44875 200.32175 
L 555.91875 200.32175 
" clip-path="url(#p86f90d1ba1)" style="fill: none; stroke: #b0b0b0; stroke-opacity: 0.3; stroke-width: 0.8; stroke-linecap: square"/>
     </g>
     <g id="line2d_19">
      <g>
       <use xlink:href="#m61fd984e13" x="37.44875" y="200.32175" style="stroke: #000000; stroke-width: 0.8"/>
      </g>
     </g>
     <g id="text_16">
      <!-- 3 -->
      <g transform="translate(22.81375 204.880812) scale(0.12 -0.12)">
       <use xlink:href="#DejaVuSans-33"/>
      </g>
     </g>
    </g>
    <g id="ytick_5">
     <g id="line2d_20">
      <path d="M 37.44875 141.595083 
L 555.91875 141.595083 
" clip-path="url(#p86f90d1ba1)" style="fill: none; stroke: #b0b0b0; stroke-opacity: 0.3; stroke-width: 0.8; stroke-linecap: square"/>
     </g>
     <g id="line2d_21">
      <g>
       <use xlink:href="#m61fd984e13" x="37.44875" y="141.595083" style="stroke: #000000; stroke-width: 0.8"/>
      </g>
     </g>
     <g id="text_17">
      <!-- 4 -->
      <g transform="translate(22.81375 146.154146) scale(0.12 -0.12)">
       <use xlink:href="#DejaVuSans-34"/>
      </g>
     </g>
    </g>
    <g id="ytick_6">
     <g id="line2d_22">
      <path d="M 37.44875 82.868417 
L 555.91875 82.868417 
" clip-path="url(#p86f90d1ba1)" style="fill: none; stroke: #b0b0b0; stroke-opacity: 0.3; stroke-width: 0.8; stroke-linecap: square"/>
     </g>
     <g id="line2d_23">
      <g>
       <use xlink:href="#m61fd984e13" x="37.44875" y="82.868417" style="stroke: #000000; stroke-width: 0.8"/>
      </g>
     </g>
     <g id="text_18">
      <!-- 5 -->
      <g transform="translate(22.81375 87.427479) scale(0.12 -0.12)">
       <use xlink:href="#DejaVuSans-35"/>
      </g>
     </g>
    </g>
    <g id="ytick_7">
     <g id="line2d_24">
      <path d="M 37.44875 24.14175 
L 555.91875 24.14175 
" clip-path="url(#p86f90d1ba1)" style="fill: none; stroke: #b0b0b0; stroke-opacity: 0.3; stroke-width: 0.8; stroke-linecap: square"/>
     </g>
     <g id="line2d_25">
      <g>
       <use xlink:href="#m61fd984e13" x="37.44875" y="24.14175" style="stroke: #000000; stroke-width: 0.8"/>
      </g>
     </g>
     <g id="text_19">
      <!-- 6 -->
      <g transform="translate(22.81375 28.700812) scale(0.12 -0.12)">
       <use xlink:href="#DejaVuSans-36"/>
      </g>
     </g>
    </g>
    <g id="text_20">
     <!-- Error (dB) -->
     <g transform="translate(16.318125 233.859875) rotate(-90) scale(0.12 -0.12)">
      <defs>
       <path id="DejaVuSans-Bold-45" d="M 588 4666 
L 3834 4666 
L 3834 3756 
L 1791 3756 
L 1791 2888 
L 3713 2888 
L 3713 1978 
L 1791 1978 
L 1791 909 
L 3903 909 
L 3903 0 
L 588 0 
L 588 4666 
z
" transform="scale(0.015625)"/>
      </defs>
      <use xlink:href="#DejaVuSans-Bold-45"/>
      <use xlink:href="#DejaVuSans-Bold-72" transform="translate(68.310547 0)"/>
      <use xlink:href="#DejaVuSans-Bold-72" transform="translate(117.626953 0)"/>
      <use xlink:href="#DejaVuSans-Bold-6f" transform="translate(166.943359 0)"/>
      <use xlink:href="#DejaVuSans-Bold-72" transform="translate(235.644531 0)"/>
      <use xlink:href="#DejaVuSans-Bold-20" transform="translate(284.960938 0)"/>
      <use xlink:href="#DejaVuSans-Bold-28" transform="translate(319.775391 0)"/>
      <use xlink:href="#DejaVuSans-Bold-64" transform="translate(365.478516 0)"/>
      <use xlink:href="#DejaVuSans-Bold-42" transform="translate(437.060547 0)"/>
      <use xlink:href="#DejaVuSans-Bold-29" transform="translate(513.28125 0)"/>
     </g>
    </g>
   </g>
   <g id="LineCollection_1">
    <path d="M 68.72434 109.170035 
L 68.72434 83.111251 
" clip-path="url(#p86f90d1ba1)" style="fill: none; stroke: #000000; stroke-width: 1.5"/>
    <path d="M 112.774468 124.173876 
L 112.774468 98.880184 
" clip-path="url(#p86f90d1ba1)" style="fill: none; stroke: #000000; stroke-width: 1.5"/>
    <path d="M 156.824595 149.400797 
L 156.824595 114.996836 
" clip-path="url(#p86f90d1ba1)" style="fill: none; stroke: #000000; stroke-width: 1.5"/>
    <path d="M 200.874723 180.92856 
L 200.874723 126.222086 
" clip-path="url(#p86f90d1ba1)" style="fill: none; stroke: #000000; stroke-width: 1.5"/>
    <path d="M 244.92485 205.362906 
L 244.92485 146.185101 
" clip-path="url(#p86f90d1ba1)" style="fill: none; stroke: #000000; stroke-width: 1.5"/>
    <path d="M 288.974978 217.18846 
L 288.974978 156.205867 
" clip-path="url(#p86f90d1ba1)" style="fill: none; stroke: #000000; stroke-width: 1.5"/>
    <path d="M 333.025105 228.667233 
L 333.025105 177.614027 
" clip-path="url(#p86f90d1ba1)" style="fill: none; stroke: #000000; stroke-width: 1.5"/>
    <path d="M 377.075233 241.255587 
L 377.075233 203.315459 
" clip-path="url(#p86f90d1ba1)" style="fill: none; stroke: #000000; stroke-width: 1.5"/>
    <path d="M 421.12536 277.643687 
L 421.12536 236.929546 
" clip-path="url(#p86f90d1ba1)" style="fill: none; stroke: #000000; stroke-width: 1.5"/>
    <path d="M 465.175487 303.017013 
L 465.175487 257.597927 
" clip-path="url(#p86f90d1ba1)" style="fill: none; stroke: #000000; stroke-width: 1.5"/>
    <path d="M 509.225615 334.416929 
L 509.225615 294.790758 
" clip-path="url(#p86f90d1ba1)" style="fill: none; stroke: #000000; stroke-width: 1.5"/>
   </g>
   <g id="line2d_26">
    <defs>
     <path id="mfff34f7ed9" d="M 4 0 
L -4 -0 
" style="stroke: #000000"/>
    </defs>
    <g clip-path="url(#p86f90d1ba1)">
     <use xlink:href="#mfff34f7ed9" x="68.72434" y="109.170035" style="stroke: #000000"/>
     <use xlink:href="#mfff34f7ed9" x="112.774468" y="124.173876" style="stroke: #000000"/>
     <use xlink:href="#mfff34f7ed9" x="156.824595" y="149.400797" style="stroke: #000000"/>
     <use xlink:href="#mfff34f7ed9" x="200.874723" y="180.92856" style="stroke: #000000"/>
     <use xlink:href="#mfff34f7ed9" x="244.92485" y="205.362906" style="stroke: #000000"/>
     <use xlink:href="#mfff34f7ed9" x="288.974978" y="217.18846" style="stroke: #000000"/>
     <use xlink:href="#mfff34f7ed9" x="333.025105" y="228.667233" style="stroke: #000000"/>
     <use xlink:href="#mfff34f7ed9" x="377.075233" y="241.255587" style="stroke: #000000"/>
     <use xlink:href="#mfff34f7ed9" x="421.12536" y="277.643687" style="stroke: #000000"/>
     <use xlink:href="#mfff34f7ed9" x="465.175487" y="303.017013" style="stroke: #000000"/>
     <use xlink:href="#mfff34f7ed9" x="509.225615" y="334.416929" style="stroke: #000000"/>
    </g>
   </g>
   <g id="line2d_27">
    <g clip-path="url(#p86f90d1ba1)">
     <use xlink:href="#mfff34f7ed9" x="68.72434" y="83.111251" style="stroke: #000000"/>
     <use xlink:href="#mfff34f7ed9" x="112.774468" y="98.880184" style="stroke: #000000"/>
     <use xlink:href="#mfff34f7ed9" x="156.824595" y="114.996836" style="stroke: #000000"/>
     <use xlink:href="#mfff34f7ed9" x="200.874723" y="126.222086" style="stroke: #000000"/>
     <use xlink:href="#mfff34f7ed9" x="244.92485" y="146.185101" style="stroke: #000000"/>
     <use xlink:href="#mfff34f7ed9" x="288.974978" y="156.205867" style="stroke: #000000"/>
     <use xlink:href="#mfff34f7ed9" x="333.025105" y="177.614027" style="stroke: #000000"/>
     <use xlink:href="#mfff34f7ed9" x="377.075233" y="203.315459" style="stroke: #000000"/>
     <use xlink:href="#mfff34f7ed9" x="421.12536" y="236.929546" style="stroke: #000000"/>
     <use xlink:href="#mfff34f7ed9" x="465.175487" y="257.597927" style="stroke: #000000"/>
     <use xlink:href="#mfff34f7ed9" x="509.225615" y="294.790758" style="stroke: #000000"/>
    </g>
   </g>
   <g id="LineCollection_2">
    <path d="M 84.141885 309.607731 
L 84.141885 289.766809 
" clip-path="url(#p86f90d1ba1)" style="fill: none; stroke: #000000; stroke-width: 1.5"/>
    <path d="M 128.192013 308.265004 
L 128.192013 289.230282 
" clip-path="url(#p86f90d1ba1)" style="fill: none; stroke: #000000; stroke-width: 1.5"/>
    <path d="M 172.24214 320.498474 
L 172.24214 285.923266 
" clip-path="url(#p86f90d1ba1)" style="fill: none; stroke: #000000; stroke-width: 1.5"/>
    <path d="M 216.292267 334.945058 
L 216.292267 281.107856 
" clip-path="url(#p86f90d1ba1)" style="fill: none; stroke: #000000; stroke-width: 1.5"/>
    <path d="M 260.342395 341.582463 
L 260.342395 286.685597 
" clip-path="url(#p86f90d1ba1)" style="fill: none; stroke: #000000; stroke-width: 1.5"/>
    <path d="M 304.392522 337.644899 
L 304.392522 280.287268 
" clip-path="url(#p86f90d1ba1)" style="fill: none; stroke: #000000; stroke-width: 1.5"/>
    <path d="M 348.44265 331.636984 
L 348.44265 286.060276 
" clip-path="url(#p86f90d1ba1)" style="fill: none; stroke: #000000; stroke-width: 1.5"/>
    <path d="M 392.492777 328.397034 
L 392.492777 295.172892 
" clip-path="url(#p86f90d1ba1)" style="fill: none; stroke: #000000; stroke-width: 1.5"/>
    <path d="M 436.542905 348.996117 
L 436.542905 311.923969 
" clip-path="url(#p86f90d1ba1)" style="fill: none; stroke: #000000; stroke-width: 1.5"/>
    <path d="M 480.593032 358.532388 
L 480.593032 316.012285 
" clip-path="url(#p86f90d1ba1)" style="fill: none; stroke: #000000; stroke-width: 1.5"/>
    <path d="M 524.64316 362.031382 
L 524.64316 339.292651 
" clip-path="url(#p86f90d1ba1)" style="fill: none; stroke: #000000; stroke-width: 1.5"/>
   </g>
   <g id="line2d_28">
    <g clip-path="url(#p86f90d1ba1)">
     <use xlink:href="#mfff34f7ed9" x="84.141885" y="309.607731" style="stroke: #000000"/>
     <use xlink:href="#mfff34f7ed9" x="128.192013" y="308.265004" style="stroke: #000000"/>
     <use xlink:href="#mfff34f7ed9" x="172.24214" y="320.498474" style="stroke: #000000"/>
     <use xlink:href="#mfff34f7ed9" x="216.292267" y="334.945058" style="stroke: #000000"/>
     <use xlink:href="#mfff34f7ed9" x="260.342395" y="341.582463" style="stroke: #000000"/>
     <use xlink:href="#mfff34f7ed9" x="304.392522" y="337.644899" style="stroke: #000000"/>
     <use xlink:href="#mfff34f7ed9" x="348.44265" y="331.636984" style="stroke: #000000"/>
     <use xlink:href="#mfff34f7ed9" x="392.492777" y="328.397034" style="stroke: #000000"/>
     <use xlink:href="#mfff34f7ed9" x="436.542905" y="348.996117" style="stroke: #000000"/>
     <use xlink:href="#mfff34f7ed9" x="480.593032" y="358.532388" style="stroke: #000000"/>
     <use xlink:href="#mfff34f7ed9" x="524.64316" y="362.031382" style="stroke: #000000"/>
    </g>
   </g>
   <g id="line2d_29">
    <g clip-path="url(#p86f90d1ba1)">
     <use xlink:href="#mfff34f7ed9" x="84.141885" y="289.766809" style="stroke: #000000"/>
     <use xlink:href="#mfff34f7ed9" x="128.192013" y="289.230282" style="stroke: #000000"/>
     <use xlink:href="#mfff34f7ed9" x="172.24214" y="285.923266" style="stroke: #000000"/>
     <use xlink:href="#mfff34f7ed9" x="216.292267" y="281.107856" style="stroke: #000000"/>
     <use xlink:href="#mfff34f7ed9" x="260.342395" y="286.685597" style="stroke: #000000"/>
     <use xlink:href="#mfff34f7ed9" x="304.392522" y="280.287268" style="stroke: #000000"/>
     <use xlink:href="#mfff34f7ed9" x="348.44265" y="286.060276" style="stroke: #000000"/>
     <use xlink:href="#mfff34f7ed9" x="392.492777" y="295.172892" style="stroke: #000000"/>
     <use xlink:href="#mfff34f7ed9" x="436.542905" y="311.923969" style="stroke: #000000"/>
     <use xlink:href="#mfff34f7ed9" x="480.593032" y="316.012285" style="stroke: #000000"/>
     <use xlink:href="#mfff34f7ed9" x="524.64316" y="339.292651" style="stroke: #000000"/>
    </g>
   </g>
   <g id="patch_25">
    <path d="M 37.44875 376.50175 
L 37.44875 24.14175 
" style="fill: none; stroke: #000000; stroke-width: 0.8; stroke-linejoin: miter; stroke-linecap: square"/>
   </g>
   <g id="patch_26">
    <path d="M 555.91875 376.50175 
L 555.91875 24.14175 
" style="fill: none; stroke: #000000; stroke-width: 0.8; stroke-linejoin: miter; stroke-linecap: square"/>
   </g>
   <g id="patch_27">
    <path d="M 37.44875 376.50175 
L 555.91875 376.50175 
" style="fill: none; stroke: #000000; stroke-width: 0.8; stroke-linejoin: miter; stroke-linecap: square"/>
   </g>
   <g id="patch_28">
    <path d="M 37.44875 24.14175 
L 555.91875 24.14175 
" style="fill: none; stroke: #000000; stroke-width: 0.8; stroke-linejoin: miter; stroke-linecap: square"/>
   </g>
   <g id="text_21">
    <!-- Fig14 - 9640 -->
    <g transform="translate(246.084625 18.14175) scale(0.144 -0.144)">
     <defs>
      <path id="DejaVuSans-Bold-46" d="M 588 4666 
L 3834 4666 
L 3834 3756 
L 1791 3756 
L 1791 2888 
L 3713 2888 
L 3713 1978 
L 1791 1978 
L 1791 0 
L 588 0 
L 588 4666 
z
" transform="scale(0.015625)"/>
      <path id="DejaVuSans-Bold-67" d="M 2919 594 
Q 2688 288 2409 144 
Q 2131 0 1766 0 
Q 1125 0 706 504 
Q 288 1009 288 1791 
Q 288 2575 706 3076 
Q 1125 3578 1766 3578 
Q 2131 3578 2409 3434 
Q 2688 3291 2919 2981 
L 2919 3500 
L 4044 3500 
L 4044 353 
Q 4044 -491 3511 -936 
Q 2978 -1381 1966 -1381 
Q 1638 -1381 1331 -1331 
Q 1025 -1281 716 -1178 
L 716 -306 
Q 1009 -475 1290 -558 
Q 1572 -641 1856 -641 
Q 2406 -641 2662 -400 
Q 2919 -159 2919 353 
L 2919 594 
z
M 2181 2772 
Q 1834 2772 1640 2515 
Q 1447 2259 1447 1791 
Q 1447 1309 1634 1061 
Q 1822 813 2181 813 
Q 2531 813 2725 1069 
Q 2919 1325 2919 1791 
Q 2919 2259 2725 2515 
Q 2531 2772 2181 2772 
z
" transform="scale(0.015625)"/>
      <path id="DejaVuSans-Bold-31" d="M 750 831 
L 1813 831 
L 1813 3847 
L 722 3622 
L 722 4441 
L 1806 4666 
L 2950 4666 
L 2950 831 
L 4013 831 
L 4013 0 
L 750 0 
L 750 831 
z
" transform="scale(0.015625)"/>
      <path id="DejaVuSans-Bold-34" d="M 2356 3675 
L 1038 1722 
L 2356 1722 
L 2356 3675 
z
M 2156 4666 
L 3494 4666 
L 3494 1722 
L 4159 1722 
L 4159 850 
L 3494 850 
L 3494 0 
L 2356 0 
L 2356 850 
L 288 850 
L 288 1881 
L 2156 4666 
z
" transform="scale(0.015625)"/>
      <path id="DejaVuSans-Bold-2d" d="M 347 2297 
L 2309 2297 
L 2309 1388 
L 347 1388 
L 347 2297 
z
" transform="scale(0.015625)"/>
      <path id="DejaVuSans-Bold-39" d="M 641 103 
L 641 966 
Q 928 831 1190 764 
Q 1453 697 1709 697 
Q 2247 697 2547 995 
Q 2847 1294 2900 1881 
Q 2688 1725 2447 1647 
Q 2206 1569 1925 1569 
Q 1209 1569 770 1986 
Q 331 2403 331 3084 
Q 331 3838 820 4291 
Q 1309 4744 2131 4744 
Q 3044 4744 3544 4128 
Q 4044 3513 4044 2388 
Q 4044 1231 3459 570 
Q 2875 -91 1856 -91 
Q 1528 -91 1228 -42 
Q 928 6 641 103 
z
M 2125 2350 
Q 2441 2350 2600 2554 
Q 2759 2759 2759 3169 
Q 2759 3575 2600 3781 
Q 2441 3988 2125 3988 
Q 1809 3988 1650 3781 
Q 1491 3575 1491 3169 
Q 1491 2759 1650 2554 
Q 1809 2350 2125 2350 
z
" transform="scale(0.015625)"/>
      <path id="DejaVuSans-Bold-36" d="M 2316 2303 
Q 2000 2303 1842 2098 
Q 1684 1894 1684 1484 
Q 1684 1075 1842 870 
Q 2000 666 2316 666 
Q 2634 666 2792 870 
Q 2950 1075 2950 1484 
Q 2950 1894 2792 2098 
Q 2634 2303 2316 2303 
z
M 3803 4544 
L 3803 3681 
Q 3506 3822 3243 3889 
Q 2981 3956 2731 3956 
Q 2194 3956 1894 3657 
Q 1594 3359 1544 2772 
Q 1750 2925 1990 3001 
Q 2231 3078 2516 3078 
Q 3231 3078 3670 2659 
Q 4109 2241 4109 1563 
Q 4109 813 3618 361 
Q 3128 -91 2303 -91 
Q 1394 -91 895 523 
Q 397 1138 397 2266 
Q 397 3422 980 4083 
Q 1563 4744 2578 4744 
Q 2900 4744 3203 4694 
Q 3506 4644 3803 4544 
z
" transform="scale(0.015625)"/>
      <path id="DejaVuSans-Bold-30" d="M 2944 2338 
Q 2944 3213 2780 3570 
Q 2616 3928 2228 3928 
Q 1841 3928 1675 3570 
Q 1509 3213 1509 2338 
Q 1509 1453 1675 1090 
Q 1841 728 2228 728 
Q 2613 728 2778 1090 
Q 2944 1453 2944 2338 
z
M 4147 2328 
Q 4147 1169 3647 539 
Q 3147 -91 2228 -91 
Q 1306 -91 806 539 
Q 306 1169 306 2328 
Q 306 3491 806 4120 
Q 1306 4750 2228 4750 
Q 3147 4750 3647 4120 
Q 4147 3491 4147 2328 
z
" transform="scale(0.015625)"/>
     </defs>
     <use xlink:href="#DejaVuSans-Bold-46"/>
     <use xlink:href="#DejaVuSans-Bold-69" transform="translate(68.310547 0)"/>
     <use xlink:href="#DejaVuSans-Bold-67" transform="translate(102.587891 0)"/>
     <use xlink:href="#DejaVuSans-Bold-31" transform="translate(174.169922 0)"/>
     <use xlink:href="#DejaVuSans-Bold-34" transform="translate(243.75 0)"/>
     <use xlink:href="#DejaVuSans-Bold-20" transform="translate(313.330078 0)"/>
     <use xlink:href="#DejaVuSans-Bold-2d" transform="translate(348.144531 0)"/>
     <use xlink:href="#DejaVuSans-Bold-20" transform="translate(389.648438 0)"/>
     <use xlink:href="#DejaVuSans-Bold-39" transform="translate(424.462891 0)"/>
     <use xlink:href="#DejaVuSans-Bold-36" transform="translate(494.042969 0)"/>
     <use xlink:href="#DejaVuSans-Bold-34" transform="translate(563.623047 0)"/>
     <use xlink:href="#DejaVuSans-Bold-30" transform="translate(633.203125 0)"/>
    </g>
   </g>
   <g id="legend_1">
    <g id="patch_29">
     <path d="M 461.34375 69.303 
L 547.51875 69.303 
Q 549.91875 69.303 549.91875 66.903 
L 549.91875 32.54175 
Q 549.91875 30.14175 547.51875 30.14175 
L 461.34375 30.14175 
Q 458.94375 30.14175 458.94375 32.54175 
L 458.94375 66.903 
Q 458.94375 69.303 461.34375 69.303 
z
" style="fill: #ffffff; opacity: 0.8; stroke: #cccccc; stroke-linejoin: miter"/>
    </g>
    <g id="patch_30">
     <path d="M 463.74375 44.059875 
L 487.74375 44.059875 
L 487.74375 35.659875 
L 463.74375 35.659875 
z
" style="fill: #008080; opacity: 0.8; stroke: #000000; stroke-linejoin: miter"/>
    </g>
    <g id="text_22">
     <!-- RSSI -->
     <g transform="translate(497.34375 44.059875) scale(0.12 -0.12)">
      <defs>
       <path id="DejaVuSans-52" d="M 2841 2188 
Q 3044 2119 3236 1894 
Q 3428 1669 3622 1275 
L 4263 0 
L 3584 0 
L 2988 1197 
Q 2756 1666 2539 1819 
Q 2322 1972 1947 1972 
L 1259 1972 
L 1259 0 
L 628 0 
L 628 4666 
L 2053 4666 
Q 2853 4666 3247 4331 
Q 3641 3997 3641 3322 
Q 3641 2881 3436 2590 
Q 3231 2300 2841 2188 
z
M 1259 4147 
L 1259 2491 
L 2053 2491 
Q 2509 2491 2742 2702 
Q 2975 2913 2975 3322 
Q 2975 3731 2742 3939 
Q 2509 4147 2053 4147 
L 1259 4147 
z
" transform="scale(0.015625)"/>
       <path id="DejaVuSans-53" d="M 3425 4513 
L 3425 3897 
Q 3066 4069 2747 4153 
Q 2428 4238 2131 4238 
Q 1616 4238 1336 4038 
Q 1056 3838 1056 3469 
Q 1056 3159 1242 3001 
Q 1428 2844 1947 2747 
L 2328 2669 
Q 3034 2534 3370 2195 
Q 3706 1856 3706 1288 
Q 3706 609 3251 259 
Q 2797 -91 1919 -91 
Q 1588 -91 1214 -16 
Q 841 59 441 206 
L 441 856 
Q 825 641 1194 531 
Q 1563 422 1919 422 
Q 2459 422 2753 634 
Q 3047 847 3047 1241 
Q 3047 1584 2836 1778 
Q 2625 1972 2144 2069 
L 1759 2144 
Q 1053 2284 737 2584 
Q 422 2884 422 3419 
Q 422 4038 858 4394 
Q 1294 4750 2059 4750 
Q 2388 4750 2728 4690 
Q 3069 4631 3425 4513 
z
" transform="scale(0.015625)"/>
       <path id="DejaVuSans-49" d="M 628 4666 
L 1259 4666 
L 1259 0 
L 628 0 
L 628 4666 
z
" transform="scale(0.015625)"/>
      </defs>
      <use xlink:href="#DejaVuSans-52"/>
      <use xlink:href="#DejaVuSans-53" transform="translate(69.482422 0)"/>
      <use xlink:href="#DejaVuSans-53" transform="translate(132.958984 0)"/>
      <use xlink:href="#DejaVuSans-49" transform="translate(196.435547 0)"/>
     </g>
    </g>
    <g id="patch_31">
     <path d="M 463.74375 61.673625 
L 487.74375 61.673625 
L 487.74375 53.273625 
L 463.74375 53.273625 
z
" style="fill: #ffd700; opacity: 0.8; stroke: #000000; stroke-linejoin: miter"/>
    </g>
    <g id="text_23">
     <!-- RSSI_fix -->
     <g transform="translate(497.34375 61.673625) scale(0.12 -0.12)">
      <defs>
       <path id="DejaVuSans-5f" d="M 3263 -1063 
L 3263 -1509 
L -63 -1509 
L -63 -1063 
L 3263 -1063 
z
" transform="scale(0.015625)"/>
       <path id="DejaVuSans-66" d="M 2375 4863 
L 2375 4384 
L 1825 4384 
Q 1516 4384 1395 4259 
Q 1275 4134 1275 3809 
L 1275 3500 
L 2222 3500 
L 2222 3053 
L 1275 3053 
L 1275 0 
L 697 0 
L 697 3053 
L 147 3053 
L 147 3500 
L 697 3500 
L 697 3744 
Q 697 4328 969 4595 
Q 1241 4863 1831 4863 
L 2375 4863 
z
" transform="scale(0.015625)"/>
       <path id="DejaVuSans-69" d="M 603 3500 
L 1178 3500 
L 1178 0 
L 603 0 
L 603 3500 
z
M 603 4863 
L 1178 4863 
L 1178 4134 
L 603 4134 
L 603 4863 
z
" transform="scale(0.015625)"/>
       <path id="DejaVuSans-78" d="M 3513 3500 
L 2247 1797 
L 3578 0 
L 2900 0 
L 1881 1375 
L 863 0 
L 184 0 
L 1544 1831 
L 300 3500 
L 978 3500 
L 1906 2253 
L 2834 3500 
L 3513 3500 
z
" transform="scale(0.015625)"/>
      </defs>
      <use xlink:href="#DejaVuSans-52"/>
      <use xlink:href="#DejaVuSans-53" transform="translate(69.482422 0)"/>
      <use xlink:href="#DejaVuSans-53" transform="translate(132.958984 0)"/>
      <use xlink:href="#DejaVuSans-49" transform="translate(196.435547 0)"/>
      <use xlink:href="#DejaVuSans-5f" transform="translate(225.927734 0)"/>
      <use xlink:href="#DejaVuSans-66" transform="translate(275.927734 0)"/>
      <use xlink:href="#DejaVuSans-69" transform="translate(311.132812 0)"/>
      <use xlink:href="#DejaVuSans-78" transform="translate(338.916016 0)"/>
     </g>
    </g>
   </g>
  </g>
 </g>
 <defs>
  <clipPath id="p86f90d1ba1">
   <rect x="37.44875" y="24.14175" width="518.47" height="352.36"/>
  </clipPath>
 </defs>
</svg>
