<?xml version="1.0" encoding="utf-8" standalone="no"?>
<!DOCTYPE svg PUBLIC "-//W3C//DTD SVG 1.1//EN"
  "http://www.w3.org/Graphics/SVG/1.1/DTD/svg11.dtd">
<svg xmlns:xlink="http://www.w3.org/1999/xlink" width="460.8pt" height="345.6pt" viewBox="0 0 460.8 345.6" xmlns="http://www.w3.org/2000/svg" version="1.1">
 <metadata>
  <rdf:RDF xmlns:dc="http://purl.org/dc/elements/1.1/" xmlns:cc="http://creativecommons.org/ns#" xmlns:rdf="http://www.w3.org/1999/02/22-rdf-syntax-ns#">
   <cc:Work>
    <dc:type rdf:resource="http://purl.org/dc/dcmitype/StillImage"/>
    <dc:date>2025-09-04T18:42:09.388788</dc:date>
    <dc:format>image/svg+xml</dc:format>
    <dc:creator>
     <cc:Agent>
      <dc:title>Matplotlib v3.10.1, https://matplotlib.org/</dc:title>
     </cc:Agent>
    </dc:creator>
   </cc:Work>
  </rdf:RDF>
 </metadata>
 <defs>
  <style type="text/css">*{stroke-linejoin: round; stroke-linecap: butt}</style>
 </defs>
 <g id="figure_1">
  <g id="patch_1">
   <path d="M 0 345.6 
L 460.8 345.6 
L 460.8 0 
L 0 0 
z
" style="fill: #ffffff"/>
  </g>
  <g id="axes_1">
   <g id="patch_2">
    <path d="M 78.68 274.84 
L 433.8 274.84 
L 433.8 20.16 
L 78.68 20.16 
z
" style="fill: #ffffff"/>
   </g>
   <g id="matplotlib.axis_1">
    <g id="xtick_1">
     <g id="line2d_1">
      <path d="M 78.68 274.84 
L 78.68 20.16 
" clip-path="url(#pd8930a5ff0)" style="fill: none; stroke: #b0b0b0; stroke-opacity: 0.4; stroke-width: 0.8; stroke-linecap: square"/>
     </g>
     <g id="line2d_2">
      <defs>
       <path id="m96c2ab3882" d="M 0 0 
L 0 3.5 
" style="stroke: #000000; stroke-width: 0.8"/>
      </defs>
      <g>
       <use xlink:href="#m96c2ab3882" x="78.68" y="274.84" style="stroke: #000000; stroke-width: 0.8"/>
      </g>
     </g>
     <g id="text_1">
      <!-- 0.0 -->
      <g transform="translate(62.43 299.89375) scale(0.26 -0.26)">
       <defs>
        <path id="TimesNewRomanPSMT-30" d="M 231 2094 
Q 231 2819 450 3342 
Q 669 3866 1031 4122 
Q 1313 4325 1613 4325 
Q 2100 4325 2488 3828 
Q 2972 3213 2972 2159 
Q 2972 1422 2759 906 
Q 2547 391 2217 158 
Q 1888 -75 1581 -75 
Q 975 -75 572 641 
Q 231 1244 231 2094 
z
M 844 2016 
Q 844 1141 1059 588 
Q 1238 122 1591 122 
Q 1759 122 1940 273 
Q 2122 425 2216 781 
Q 2359 1319 2359 2297 
Q 2359 3022 2209 3506 
Q 2097 3866 1919 4016 
Q 1791 4119 1609 4119 
Q 1397 4119 1231 3928 
Q 1006 3669 925 3112 
Q 844 2556 844 2016 
z
" transform="scale(0.015625)"/>
        <path id="TimesNewRomanPSMT-2e" d="M 800 606 
Q 947 606 1047 504 
Q 1147 403 1147 259 
Q 1147 116 1045 14 
Q 944 -88 800 -88 
Q 656 -88 554 14 
Q 453 116 453 259 
Q 453 406 554 506 
Q 656 606 800 606 
z
" transform="scale(0.015625)"/>
       </defs>
       <use xlink:href="#TimesNewRomanPSMT-30"/>
       <use xlink:href="#TimesNewRomanPSMT-2e" transform="translate(50 0)"/>
       <use xlink:href="#TimesNewRomanPSMT-30" transform="translate(75 0)"/>
      </g>
     </g>
    </g>
    <g id="xtick_2">
     <g id="line2d_3">
      <path d="M 149.704 274.84 
L 149.704 20.16 
" clip-path="url(#pd8930a5ff0)" style="fill: none; stroke: #b0b0b0; stroke-opacity: 0.4; stroke-width: 0.8; stroke-linecap: square"/>
     </g>
     <g id="line2d_4">
      <g>
       <use xlink:href="#m96c2ab3882" x="149.704" y="274.84" style="stroke: #000000; stroke-width: 0.8"/>
      </g>
     </g>
     <g id="text_2">
      <!-- 0.6 -->
      <g transform="translate(133.454 299.89375) scale(0.26 -0.26)">
       <defs>
        <path id="TimesNewRomanPSMT-36" d="M 2869 4325 
L 2869 4209 
Q 2456 4169 2195 4045 
Q 1934 3922 1679 3669 
Q 1425 3416 1258 3105 
Q 1091 2794 978 2366 
Q 1428 2675 1881 2675 
Q 2316 2675 2634 2325 
Q 2953 1975 2953 1425 
Q 2953 894 2631 456 
Q 2244 -75 1606 -75 
Q 1172 -75 869 213 
Q 275 772 275 1663 
Q 275 2231 503 2743 
Q 731 3256 1154 3653 
Q 1578 4050 1965 4187 
Q 2353 4325 2688 4325 
L 2869 4325 
z
M 925 2138 
Q 869 1716 869 1456 
Q 869 1156 980 804 
Q 1091 453 1309 247 
Q 1469 100 1697 100 
Q 1969 100 2183 356 
Q 2397 613 2397 1088 
Q 2397 1622 2184 2012 
Q 1972 2403 1581 2403 
Q 1463 2403 1327 2353 
Q 1191 2303 925 2138 
z
" transform="scale(0.015625)"/>
       </defs>
       <use xlink:href="#TimesNewRomanPSMT-30"/>
       <use xlink:href="#TimesNewRomanPSMT-2e" transform="translate(50 0)"/>
       <use xlink:href="#TimesNewRomanPSMT-36" transform="translate(75 0)"/>
      </g>
     </g>
    </g>
    <g id="xtick_3">
     <g id="line2d_5">
      <path d="M 220.728 274.84 
L 220.728 20.16 
" clip-path="url(#pd8930a5ff0)" style="fill: none; stroke: #b0b0b0; stroke-opacity: 0.4; stroke-width: 0.8; stroke-linecap: square"/>
     </g>
     <g id="line2d_6">
      <g>
       <use xlink:href="#m96c2ab3882" x="220.728" y="274.84" style="stroke: #000000; stroke-width: 0.8"/>
      </g>
     </g>
     <g id="text_3">
      <!-- 1.2 -->
      <g transform="translate(204.478 299.89375) scale(0.26 -0.26)">
       <defs>
        <path id="TimesNewRomanPSMT-31" d="M 750 3822 
L 1781 4325 
L 1884 4325 
L 1884 747 
Q 1884 391 1914 303 
Q 1944 216 2037 169 
Q 2131 122 2419 116 
L 2419 0 
L 825 0 
L 825 116 
Q 1125 122 1212 167 
Q 1300 213 1334 289 
Q 1369 366 1369 747 
L 1369 3034 
Q 1369 3497 1338 3628 
Q 1316 3728 1258 3775 
Q 1200 3822 1119 3822 
Q 1003 3822 797 3725 
L 750 3822 
z
" transform="scale(0.015625)"/>
        <path id="TimesNewRomanPSMT-32" d="M 2934 816 
L 2638 0 
L 138 0 
L 138 116 
Q 1241 1122 1691 1759 
Q 2141 2397 2141 2925 
Q 2141 3328 1894 3587 
Q 1647 3847 1303 3847 
Q 991 3847 742 3664 
Q 494 3481 375 3128 
L 259 3128 
Q 338 3706 661 4015 
Q 984 4325 1469 4325 
Q 1984 4325 2329 3994 
Q 2675 3663 2675 3213 
Q 2675 2891 2525 2569 
Q 2294 2063 1775 1497 
Q 997 647 803 472 
L 1909 472 
Q 2247 472 2383 497 
Q 2519 522 2628 598 
Q 2738 675 2819 816 
L 2934 816 
z
" transform="scale(0.015625)"/>
       </defs>
       <use xlink:href="#TimesNewRomanPSMT-31"/>
       <use xlink:href="#TimesNewRomanPSMT-2e" transform="translate(50 0)"/>
       <use xlink:href="#TimesNewRomanPSMT-32" transform="translate(75 0)"/>
      </g>
     </g>
    </g>
    <g id="xtick_4">
     <g id="line2d_7">
      <path d="M 291.752 274.84 
L 291.752 20.16 
" clip-path="url(#pd8930a5ff0)" style="fill: none; stroke: #b0b0b0; stroke-opacity: 0.4; stroke-width: 0.8; stroke-linecap: square"/>
     </g>
     <g id="line2d_8">
      <g>
       <use xlink:href="#m96c2ab3882" x="291.752" y="274.84" style="stroke: #000000; stroke-width: 0.8"/>
      </g>
     </g>
     <g id="text_4">
      <!-- 1.8 -->
      <g transform="translate(275.502 299.89375) scale(0.26 -0.26)">
       <defs>
        <path id="TimesNewRomanPSMT-38" d="M 1228 2134 
Q 725 2547 579 2797 
Q 434 3047 434 3316 
Q 434 3728 753 4026 
Q 1072 4325 1600 4325 
Q 2113 4325 2425 4047 
Q 2738 3769 2738 3413 
Q 2738 3175 2569 2928 
Q 2400 2681 1866 2347 
Q 2416 1922 2594 1678 
Q 2831 1359 2831 1006 
Q 2831 559 2490 242 
Q 2150 -75 1597 -75 
Q 994 -75 656 303 
Q 388 606 388 966 
Q 388 1247 577 1523 
Q 766 1800 1228 2134 
z
M 1719 2469 
Q 2094 2806 2194 3001 
Q 2294 3197 2294 3444 
Q 2294 3772 2109 3958 
Q 1925 4144 1606 4144 
Q 1288 4144 1088 3959 
Q 888 3775 888 3528 
Q 888 3366 970 3203 
Q 1053 3041 1206 2894 
L 1719 2469 
z
M 1375 2016 
Q 1116 1797 991 1539 
Q 866 1281 866 981 
Q 866 578 1086 336 
Q 1306 94 1647 94 
Q 1984 94 2187 284 
Q 2391 475 2391 747 
Q 2391 972 2272 1150 
Q 2050 1481 1375 2016 
z
" transform="scale(0.015625)"/>
       </defs>
       <use xlink:href="#TimesNewRomanPSMT-31"/>
       <use xlink:href="#TimesNewRomanPSMT-2e" transform="translate(50 0)"/>
       <use xlink:href="#TimesNewRomanPSMT-38" transform="translate(75 0)"/>
      </g>
     </g>
    </g>
    <g id="xtick_5">
     <g id="line2d_9">
      <path d="M 362.776 274.84 
L 362.776 20.16 
" clip-path="url(#pd8930a5ff0)" style="fill: none; stroke: #b0b0b0; stroke-opacity: 0.4; stroke-width: 0.8; stroke-linecap: square"/>
     </g>
     <g id="line2d_10">
      <g>
       <use xlink:href="#m96c2ab3882" x="362.776" y="274.84" style="stroke: #000000; stroke-width: 0.8"/>
      </g>
     </g>
     <g id="text_5">
      <!-- 2.4 -->
      <g transform="translate(346.526 299.89375) scale(0.26 -0.26)">
       <defs>
        <path id="TimesNewRomanPSMT-34" d="M 2978 1563 
L 2978 1119 
L 2409 1119 
L 2409 0 
L 1894 0 
L 1894 1119 
L 100 1119 
L 100 1519 
L 2066 4325 
L 2409 4325 
L 2409 1563 
L 2978 1563 
z
M 1894 1563 
L 1894 3666 
L 406 1563 
L 1894 1563 
z
" transform="scale(0.015625)"/>
       </defs>
       <use xlink:href="#TimesNewRomanPSMT-32"/>
       <use xlink:href="#TimesNewRomanPSMT-2e" transform="translate(50 0)"/>
       <use xlink:href="#TimesNewRomanPSMT-34" transform="translate(75 0)"/>
      </g>
     </g>
    </g>
    <g id="xtick_6">
     <g id="line2d_11">
      <path d="M 433.8 274.84 
L 433.8 20.16 
" clip-path="url(#pd8930a5ff0)" style="fill: none; stroke: #b0b0b0; stroke-opacity: 0.4; stroke-width: 0.8; stroke-linecap: square"/>
     </g>
     <g id="line2d_12">
      <g>
       <use xlink:href="#m96c2ab3882" x="433.8" y="274.84" style="stroke: #000000; stroke-width: 0.8"/>
      </g>
     </g>
     <g id="text_6">
      <!-- 3.0 -->
      <g transform="translate(417.55 299.89375) scale(0.26 -0.26)">
       <defs>
        <path id="TimesNewRomanPSMT-33" d="M 325 3431 
Q 506 3859 782 4092 
Q 1059 4325 1472 4325 
Q 1981 4325 2253 3994 
Q 2459 3747 2459 3466 
Q 2459 3003 1878 2509 
Q 2269 2356 2469 2072 
Q 2669 1788 2669 1403 
Q 2669 853 2319 450 
Q 1863 -75 997 -75 
Q 569 -75 414 31 
Q 259 138 259 259 
Q 259 350 332 419 
Q 406 488 509 488 
Q 588 488 669 463 
Q 722 447 909 348 
Q 1097 250 1169 231 
Q 1284 197 1416 197 
Q 1734 197 1970 444 
Q 2206 691 2206 1028 
Q 2206 1275 2097 1509 
Q 2016 1684 1919 1775 
Q 1784 1900 1550 2001 
Q 1316 2103 1072 2103 
L 972 2103 
L 972 2197 
Q 1219 2228 1467 2375 
Q 1716 2522 1828 2728 
Q 1941 2934 1941 3181 
Q 1941 3503 1739 3701 
Q 1538 3900 1238 3900 
Q 753 3900 428 3381 
L 325 3431 
z
" transform="scale(0.015625)"/>
       </defs>
       <use xlink:href="#TimesNewRomanPSMT-33"/>
       <use xlink:href="#TimesNewRomanPSMT-2e" transform="translate(50 0)"/>
       <use xlink:href="#TimesNewRomanPSMT-30" transform="translate(75 0)"/>
      </g>
     </g>
    </g>
    <g id="xtick_7">
     <g id="line2d_13">
      <path d="M 114.192 274.84 
L 114.192 20.16 
" clip-path="url(#pd8930a5ff0)" style="fill: none; stroke: #b0b0b0; stroke-opacity: 0.4; stroke-width: 0.8; stroke-linecap: square"/>
     </g>
     <g id="line2d_14">
      <defs>
       <path id="mae6a3f8661" d="M 0 0 
L 0 2 
" style="stroke: #000000; stroke-width: 0.6"/>
      </defs>
      <g>
       <use xlink:href="#mae6a3f8661" x="114.192" y="274.84" style="stroke: #000000; stroke-width: 0.6"/>
      </g>
     </g>
    </g>
    <g id="xtick_8">
     <g id="line2d_15">
      <path d="M 185.216 274.84 
L 185.216 20.16 
" clip-path="url(#pd8930a5ff0)" style="fill: none; stroke: #b0b0b0; stroke-opacity: 0.4; stroke-width: 0.8; stroke-linecap: square"/>
     </g>
     <g id="line2d_16">
      <g>
       <use xlink:href="#mae6a3f8661" x="185.216" y="274.84" style="stroke: #000000; stroke-width: 0.6"/>
      </g>
     </g>
    </g>
    <g id="xtick_9">
     <g id="line2d_17">
      <path d="M 256.24 274.84 
L 256.24 20.16 
" clip-path="url(#pd8930a5ff0)" style="fill: none; stroke: #b0b0b0; stroke-opacity: 0.4; stroke-width: 0.8; stroke-linecap: square"/>
     </g>
     <g id="line2d_18">
      <g>
       <use xlink:href="#mae6a3f8661" x="256.24" y="274.84" style="stroke: #000000; stroke-width: 0.6"/>
      </g>
     </g>
    </g>
    <g id="xtick_10">
     <g id="line2d_19">
      <path d="M 327.264 274.84 
L 327.264 20.16 
" clip-path="url(#pd8930a5ff0)" style="fill: none; stroke: #b0b0b0; stroke-opacity: 0.4; stroke-width: 0.8; stroke-linecap: square"/>
     </g>
     <g id="line2d_20">
      <g>
       <use xlink:href="#mae6a3f8661" x="327.264" y="274.84" style="stroke: #000000; stroke-width: 0.6"/>
      </g>
     </g>
    </g>
    <g id="xtick_11">
     <g id="line2d_21">
      <path d="M 398.288 274.84 
L 398.288 20.16 
" clip-path="url(#pd8930a5ff0)" style="fill: none; stroke: #b0b0b0; stroke-opacity: 0.4; stroke-width: 0.8; stroke-linecap: square"/>
     </g>
     <g id="line2d_22">
      <g>
       <use xlink:href="#mae6a3f8661" x="398.288" y="274.84" style="stroke: #000000; stroke-width: 0.6"/>
      </g>
     </g>
    </g>
    <g id="text_7">
     <!-- Error(m) -->
     <g transform="translate(210.045313 327.509062) scale(0.26 -0.26)">
      <defs>
       <path id="TimesNewRomanPSMT-45" d="M 1338 4006 
L 1338 2331 
L 2269 2331 
Q 2631 2331 2753 2441 
Q 2916 2584 2934 2947 
L 3050 2947 
L 3050 1472 
L 2934 1472 
Q 2891 1781 2847 1869 
Q 2791 1978 2662 2040 
Q 2534 2103 2269 2103 
L 1338 2103 
L 1338 706 
Q 1338 425 1363 364 
Q 1388 303 1450 267 
Q 1513 231 1688 231 
L 2406 231 
Q 2766 231 2928 281 
Q 3091 331 3241 478 
Q 3434 672 3638 1063 
L 3763 1063 
L 3397 0 
L 131 0 
L 131 116 
L 281 116 
Q 431 116 566 188 
Q 666 238 702 338 
Q 738 438 738 747 
L 738 3500 
Q 738 3903 656 3997 
Q 544 4122 281 4122 
L 131 4122 
L 131 4238 
L 3397 4238 
L 3444 3309 
L 3322 3309 
Q 3256 3644 3176 3769 
Q 3097 3894 2941 3959 
Q 2816 4006 2500 4006 
L 1338 4006 
z
" transform="scale(0.015625)"/>
       <path id="TimesNewRomanPSMT-72" d="M 1038 2947 
L 1038 2303 
Q 1397 2947 1775 2947 
Q 1947 2947 2059 2842 
Q 2172 2738 2172 2600 
Q 2172 2478 2090 2393 
Q 2009 2309 1897 2309 
Q 1788 2309 1652 2417 
Q 1516 2525 1450 2525 
Q 1394 2525 1328 2463 
Q 1188 2334 1038 2041 
L 1038 669 
Q 1038 431 1097 309 
Q 1138 225 1241 169 
Q 1344 113 1538 113 
L 1538 0 
L 72 0 
L 72 113 
Q 291 113 397 181 
Q 475 231 506 341 
Q 522 394 522 644 
L 522 1753 
Q 522 2253 501 2348 
Q 481 2444 426 2487 
Q 372 2531 291 2531 
Q 194 2531 72 2484 
L 41 2597 
L 906 2947 
L 1038 2947 
z
" transform="scale(0.015625)"/>
       <path id="TimesNewRomanPSMT-6f" d="M 1600 2947 
Q 2250 2947 2644 2453 
Q 2978 2031 2978 1484 
Q 2978 1100 2793 706 
Q 2609 313 2286 112 
Q 1963 -88 1566 -88 
Q 919 -88 538 428 
Q 216 863 216 1403 
Q 216 1797 411 2186 
Q 606 2575 925 2761 
Q 1244 2947 1600 2947 
z
M 1503 2744 
Q 1338 2744 1170 2645 
Q 1003 2547 900 2300 
Q 797 2053 797 1666 
Q 797 1041 1045 587 
Q 1294 134 1700 134 
Q 2003 134 2200 384 
Q 2397 634 2397 1244 
Q 2397 2006 2069 2444 
Q 1847 2744 1503 2744 
z
" transform="scale(0.015625)"/>
       <path id="TimesNewRomanPSMT-28" d="M 1988 -1253 
L 1988 -1369 
Q 1516 -1131 1200 -813 
Q 750 -359 506 256 
Q 263 872 263 1534 
Q 263 2503 741 3301 
Q 1219 4100 1988 4444 
L 1988 4313 
Q 1603 4100 1356 3731 
Q 1109 3363 987 2797 
Q 866 2231 866 1616 
Q 866 947 969 400 
Q 1050 -31 1165 -292 
Q 1281 -553 1476 -793 
Q 1672 -1034 1988 -1253 
z
" transform="scale(0.015625)"/>
       <path id="TimesNewRomanPSMT-6d" d="M 1050 2338 
Q 1363 2650 1419 2697 
Q 1559 2816 1721 2881 
Q 1884 2947 2044 2947 
Q 2313 2947 2506 2790 
Q 2700 2634 2766 2338 
Q 3088 2713 3309 2830 
Q 3531 2947 3766 2947 
Q 3994 2947 4170 2830 
Q 4347 2713 4450 2447 
Q 4519 2266 4519 1878 
L 4519 647 
Q 4519 378 4559 278 
Q 4591 209 4675 161 
Q 4759 113 4950 113 
L 4950 0 
L 3538 0 
L 3538 113 
L 3597 113 
Q 3781 113 3884 184 
Q 3956 234 3988 344 
Q 4000 397 4000 647 
L 4000 1878 
Q 4000 2228 3916 2372 
Q 3794 2572 3525 2572 
Q 3359 2572 3192 2489 
Q 3025 2406 2788 2181 
L 2781 2147 
L 2788 2013 
L 2788 647 
Q 2788 353 2820 281 
Q 2853 209 2943 161 
Q 3034 113 3253 113 
L 3253 0 
L 1806 0 
L 1806 113 
Q 2044 113 2133 169 
Q 2222 225 2256 338 
Q 2272 391 2272 647 
L 2272 1878 
Q 2272 2228 2169 2381 
Q 2031 2581 1784 2581 
Q 1616 2581 1450 2491 
Q 1191 2353 1050 2181 
L 1050 647 
Q 1050 366 1089 281 
Q 1128 197 1204 155 
Q 1281 113 1516 113 
L 1516 0 
L 100 0 
L 100 113 
Q 297 113 375 155 
Q 453 197 493 289 
Q 534 381 534 647 
L 534 1741 
Q 534 2213 506 2350 
Q 484 2453 437 2492 
Q 391 2531 309 2531 
Q 222 2531 100 2484 
L 53 2597 
L 916 2947 
L 1050 2947 
L 1050 2338 
z
" transform="scale(0.015625)"/>
       <path id="TimesNewRomanPSMT-29" d="M 144 4313 
L 144 4444 
Q 619 4209 934 3891 
Q 1381 3434 1625 2820 
Q 1869 2206 1869 1541 
Q 1869 572 1392 -226 
Q 916 -1025 144 -1369 
L 144 -1253 
Q 528 -1038 776 -670 
Q 1025 -303 1145 264 
Q 1266 831 1266 1447 
Q 1266 2113 1163 2663 
Q 1084 3094 967 3353 
Q 850 3613 656 3853 
Q 463 4094 144 4313 
z
" transform="scale(0.015625)"/>
      </defs>
      <use xlink:href="#TimesNewRomanPSMT-45"/>
      <use xlink:href="#TimesNewRomanPSMT-72" transform="translate(61.083984 0)"/>
      <use xlink:href="#TimesNewRomanPSMT-72" transform="translate(94.384766 0)"/>
      <use xlink:href="#TimesNewRomanPSMT-6f" transform="translate(127.685547 0)"/>
      <use xlink:href="#TimesNewRomanPSMT-72" transform="translate(177.685547 0)"/>
      <use xlink:href="#TimesNewRomanPSMT-28" transform="translate(210.986328 0)"/>
      <use xlink:href="#TimesNewRomanPSMT-6d" transform="translate(244.287109 0)"/>
      <use xlink:href="#TimesNewRomanPSMT-29" transform="translate(322.070312 0)"/>
     </g>
    </g>
   </g>
   <g id="matplotlib.axis_2">
    <g id="ytick_1">
     <g id="line2d_23">
      <path d="M 78.68 274.84 
L 433.8 274.84 
" clip-path="url(#pd8930a5ff0)" style="fill: none; stroke: #b0b0b0; stroke-opacity: 0.4; stroke-width: 0.8; stroke-linecap: square"/>
     </g>
     <g id="line2d_24">
      <defs>
       <path id="m11adebe041" d="M 0 0 
L -3.5 0 
" style="stroke: #000000; stroke-width: 0.8"/>
      </defs>
      <g>
       <use xlink:href="#m11adebe041" x="78.68" y="274.84" style="stroke: #000000; stroke-width: 0.8"/>
      </g>
     </g>
     <g id="text_8">
      <!-- 0.0 -->
      <g transform="translate(39.18 283.866875) scale(0.26 -0.26)">
       <use xlink:href="#TimesNewRomanPSMT-30"/>
       <use xlink:href="#TimesNewRomanPSMT-2e" transform="translate(50 0)"/>
       <use xlink:href="#TimesNewRomanPSMT-30" transform="translate(75 0)"/>
      </g>
     </g>
    </g>
    <g id="ytick_2">
     <g id="line2d_25">
      <path d="M 78.68 223.904 
L 433.8 223.904 
" clip-path="url(#pd8930a5ff0)" style="fill: none; stroke: #b0b0b0; stroke-opacity: 0.4; stroke-width: 0.8; stroke-linecap: square"/>
     </g>
     <g id="line2d_26">
      <g>
       <use xlink:href="#m11adebe041" x="78.68" y="223.904" style="stroke: #000000; stroke-width: 0.8"/>
      </g>
     </g>
     <g id="text_9">
      <!-- 0.2 -->
      <g transform="translate(39.18 232.930875) scale(0.26 -0.26)">
       <use xlink:href="#TimesNewRomanPSMT-30"/>
       <use xlink:href="#TimesNewRomanPSMT-2e" transform="translate(50 0)"/>
       <use xlink:href="#TimesNewRomanPSMT-32" transform="translate(75 0)"/>
      </g>
     </g>
    </g>
    <g id="ytick_3">
     <g id="line2d_27">
      <path d="M 78.68 172.968 
L 433.8 172.968 
" clip-path="url(#pd8930a5ff0)" style="fill: none; stroke: #b0b0b0; stroke-opacity: 0.4; stroke-width: 0.8; stroke-linecap: square"/>
     </g>
     <g id="line2d_28">
      <g>
       <use xlink:href="#m11adebe041" x="78.68" y="172.968" style="stroke: #000000; stroke-width: 0.8"/>
      </g>
     </g>
     <g id="text_10">
      <!-- 0.4 -->
      <g transform="translate(39.18 181.994875) scale(0.26 -0.26)">
       <use xlink:href="#TimesNewRomanPSMT-30"/>
       <use xlink:href="#TimesNewRomanPSMT-2e" transform="translate(50 0)"/>
       <use xlink:href="#TimesNewRomanPSMT-34" transform="translate(75 0)"/>
      </g>
     </g>
    </g>
    <g id="ytick_4">
     <g id="line2d_29">
      <path d="M 78.68 122.032 
L 433.8 122.032 
" clip-path="url(#pd8930a5ff0)" style="fill: none; stroke: #b0b0b0; stroke-opacity: 0.4; stroke-width: 0.8; stroke-linecap: square"/>
     </g>
     <g id="line2d_30">
      <g>
       <use xlink:href="#m11adebe041" x="78.68" y="122.032" style="stroke: #000000; stroke-width: 0.8"/>
      </g>
     </g>
     <g id="text_11">
      <!-- 0.6 -->
      <g transform="translate(39.18 131.058875) scale(0.26 -0.26)">
       <use xlink:href="#TimesNewRomanPSMT-30"/>
       <use xlink:href="#TimesNewRomanPSMT-2e" transform="translate(50 0)"/>
       <use xlink:href="#TimesNewRomanPSMT-36" transform="translate(75 0)"/>
      </g>
     </g>
    </g>
    <g id="ytick_5">
     <g id="line2d_31">
      <path d="M 78.68 71.096 
L 433.8 71.096 
" clip-path="url(#pd8930a5ff0)" style="fill: none; stroke: #b0b0b0; stroke-opacity: 0.4; stroke-width: 0.8; stroke-linecap: square"/>
     </g>
     <g id="line2d_32">
      <g>
       <use xlink:href="#m11adebe041" x="78.68" y="71.096" style="stroke: #000000; stroke-width: 0.8"/>
      </g>
     </g>
     <g id="text_12">
      <!-- 0.8 -->
      <g transform="translate(39.18 80.122875) scale(0.26 -0.26)">
       <use xlink:href="#TimesNewRomanPSMT-30"/>
       <use xlink:href="#TimesNewRomanPSMT-2e" transform="translate(50 0)"/>
       <use xlink:href="#TimesNewRomanPSMT-38" transform="translate(75 0)"/>
      </g>
     </g>
    </g>
    <g id="ytick_6">
     <g id="line2d_33">
      <path d="M 78.68 20.16 
L 433.8 20.16 
" clip-path="url(#pd8930a5ff0)" style="fill: none; stroke: #b0b0b0; stroke-opacity: 0.4; stroke-width: 0.8; stroke-linecap: square"/>
     </g>
     <g id="line2d_34">
      <g>
       <use xlink:href="#m11adebe041" x="78.68" y="20.16" style="stroke: #000000; stroke-width: 0.8"/>
      </g>
     </g>
     <g id="text_13">
      <!-- 1.0 -->
      <g transform="translate(39.18 29.186875) scale(0.26 -0.26)">
       <use xlink:href="#TimesNewRomanPSMT-31"/>
       <use xlink:href="#TimesNewRomanPSMT-2e" transform="translate(50 0)"/>
       <use xlink:href="#TimesNewRomanPSMT-30" transform="translate(75 0)"/>
      </g>
     </g>
    </g>
    <g id="text_14">
     <!-- CDF -->
     <g transform="translate(29.618438 172.789062) rotate(-90) scale(0.26 -0.26)">
      <defs>
       <path id="TimesNewRomanPSMT-43" d="M 3853 4334 
L 3950 2894 
L 3853 2894 
Q 3659 3541 3300 3825 
Q 2941 4109 2438 4109 
Q 2016 4109 1675 3895 
Q 1334 3681 1139 3212 
Q 944 2744 944 2047 
Q 944 1472 1128 1050 
Q 1313 628 1683 403 
Q 2053 178 2528 178 
Q 2941 178 3256 354 
Q 3572 531 3950 1056 
L 4047 994 
Q 3728 428 3303 165 
Q 2878 -97 2294 -97 
Q 1241 -97 663 684 
Q 231 1266 231 2053 
Q 231 2688 515 3219 
Q 800 3750 1298 4042 
Q 1797 4334 2388 4334 
Q 2847 4334 3294 4109 
Q 3425 4041 3481 4041 
Q 3566 4041 3628 4100 
Q 3709 4184 3744 4334 
L 3853 4334 
z
" transform="scale(0.015625)"/>
       <path id="TimesNewRomanPSMT-44" d="M 109 0 
L 109 116 
L 269 116 
Q 538 116 650 288 
Q 719 391 719 750 
L 719 3488 
Q 719 3884 631 3984 
Q 509 4122 269 4122 
L 109 4122 
L 109 4238 
L 1834 4238 
Q 2784 4238 3279 4022 
Q 3775 3806 4076 3303 
Q 4378 2800 4378 2141 
Q 4378 1256 3841 663 
Q 3238 0 2003 0 
L 109 0 
z
M 1319 306 
Q 1716 219 1984 219 
Q 2709 219 3187 728 
Q 3666 1238 3666 2109 
Q 3666 2988 3187 3494 
Q 2709 4000 1959 4000 
Q 1678 4000 1319 3909 
L 1319 306 
z
" transform="scale(0.015625)"/>
       <path id="TimesNewRomanPSMT-46" d="M 1309 4006 
L 1309 2341 
L 2081 2341 
Q 2347 2341 2470 2458 
Q 2594 2575 2634 2922 
L 2750 2922 
L 2750 1488 
L 2634 1488 
Q 2631 1734 2570 1850 
Q 2509 1966 2401 2023 
Q 2294 2081 2081 2081 
L 1309 2081 
L 1309 750 
Q 1309 428 1350 325 
Q 1381 247 1481 191 
Q 1619 116 1769 116 
L 1922 116 
L 1922 0 
L 103 0 
L 103 116 
L 253 116 
Q 516 116 634 269 
Q 709 369 709 750 
L 709 3488 
Q 709 3809 669 3913 
Q 638 3991 541 4047 
Q 406 4122 253 4122 
L 103 4122 
L 103 4238 
L 3256 4238 
L 3297 3306 
L 3188 3306 
Q 3106 3603 2998 3742 
Q 2891 3881 2733 3943 
Q 2575 4006 2244 4006 
L 1309 4006 
z
" transform="scale(0.015625)"/>
      </defs>
      <use xlink:href="#TimesNewRomanPSMT-43"/>
      <use xlink:href="#TimesNewRomanPSMT-44" transform="translate(66.699219 0)"/>
      <use xlink:href="#TimesNewRomanPSMT-46" transform="translate(138.916016 0)"/>
     </g>
    </g>
   </g>
   <g id="line2d_35">
    <path d="M 79.023038 273.878943 
L 79.023038 272.917887 
L 80.479366 272.917887 
L 80.479366 271.95683 
L 81.259714 271.95683 
L 81.259714 270.995774 
L 81.405834 270.995774 
L 81.405834 270.034717 
L 81.544661 270.034717 
L 81.606309 268.112604 
L 81.888324 268.112604 
L 81.888324 267.151547 
L 82.647817 267.151547 
L 82.647817 266.190491 
L 82.821041 266.190491 
L 82.821041 265.229434 
L 84.547352 265.229434 
L 84.547352 264.268377 
L 85.879767 264.268377 
L 85.879767 263.307321 
L 86.425132 263.307321 
L 86.425132 262.346264 
L 86.959319 262.346264 
L 86.959319 260.424151 
L 87.988175 260.424151 
L 87.988175 259.463094 
L 88.250666 259.463094 
L 88.250666 258.502038 
L 88.672193 258.502038 
L 88.672193 257.540981 
L 89.276119 257.540981 
L 89.276119 255.618868 
L 89.659054 255.618868 
L 89.746636 253.696755 
L 89.793416 253.696755 
L 89.793416 252.735698 
L 89.959476 252.735698 
L 90.039065 249.852528 
L 90.229564 249.852528 
L 90.229564 248.891472 
L 90.868126 248.891472 
L 90.922355 246.969358 
L 91.410026 246.969358 
L 91.410026 246.008302 
L 92.296535 246.008302 
L 92.296535 245.047245 
L 92.630638 245.047245 
L 92.630638 244.086189 
L 92.922794 244.086189 
L 92.922794 242.164075 
L 93.174271 242.164075 
L 93.174271 241.203019 
L 93.79254 241.203019 
L 93.79254 240.241962 
L 94.482543 240.241962 
L 94.562926 238.319849 
L 94.691444 238.319849 
L 94.691444 237.358792 
L 94.857963 237.358792 
L 94.869559 235.436679 
L 95.11694 235.436679 
L 95.11694 233.514566 
L 95.576134 233.514566 
L 95.670639 231.592453 
L 95.853493 231.592453 
L 95.853493 230.631396 
L 96.124587 230.631396 
L 96.124587 229.67034 
L 96.488574 229.67034 
L 96.488574 228.709283 
L 96.643323 228.709283 
L 96.675535 226.78717 
L 96.813843 226.78717 
L 96.887151 224.865057 
L 97.581013 224.865057 
L 97.581013 223.904 
L 98.102343 223.904 
L 98.165039 221.02083 
L 98.640048 221.02083 
L 98.640048 220.059774 
L 99.156513 220.059774 
L 99.168453 218.13766 
L 99.809337 218.13766 
L 99.809337 217.176604 
L 100.468973 217.176604 
L 100.468973 216.215547 
L 101.124331 216.215547 
L 101.20616 214.293434 
L 101.445249 214.293434 
L 101.445249 212.371321 
L 102.155513 212.371321 
L 102.155513 210.449208 
L 102.32927 210.449208 
L 102.32927 209.488151 
L 102.541796 209.488151 
L 102.594178 207.566038 
L 103.128901 207.566038 
L 103.128901 206.604981 
L 103.637437 206.604981 
L 103.637437 203.721811 
L 104.230323 203.721811 
L 104.230323 202.760755 
L 104.722071 202.760755 
L 104.722071 201.799698 
L 105.239952 201.799698 
L 105.239952 200.838642 
L 105.514419 200.838642 
L 105.514419 199.877585 
L 105.672296 199.877585 
L 105.698908 197.955472 
L 105.996375 197.955472 
L 105.996375 196.994415 
L 106.240447 196.994415 
L 106.240447 196.033358 
L 106.428643 196.033358 
L 106.428643 195.072302 
L 107.040562 195.072302 
L 107.109791 193.150189 
L 107.842372 193.150189 
L 107.842372 192.189132 
L 108.108597 192.189132 
L 108.16888 190.267019 
L 108.585412 190.267019 
L 108.585412 189.305962 
L 109.048715 189.305962 
L 109.128538 187.383849 
L 109.333854 187.383849 
L 109.333854 186.422792 
L 109.86591 186.422792 
L 109.86591 185.461736 
L 110.141768 185.461736 
L 110.197995 183.539623 
L 110.682133 183.539623 
L 110.723269 181.617509 
L 110.92065 181.617509 
L 110.92065 180.656453 
L 111.033915 180.656453 
L 111.117906 177.773283 
L 111.328885 177.773283 
L 111.352886 175.85117 
L 111.991166 175.85117 
L 112.089666 172.006943 
L 112.46581 172.006943 
L 112.517085 170.08483 
L 112.641871 170.08483 
L 112.70287 168.162717 
L 113.364319 168.162717 
L 113.463664 161.435321 
L 113.514731 161.435321 
L 113.514731 160.474264 
L 114.013001 160.474264 
L 114.12156 158.552151 
L 114.626715 158.552151 
L 114.638146 156.630038 
L 114.828553 156.630038 
L 114.92344 154.707925 
L 115.32809 154.707925 
L 115.32809 153.746868 
L 115.533982 153.746868 
L 115.533982 152.785811 
L 115.785543 152.785811 
L 115.890451 150.863698 
L 116.116938 150.863698 
L 116.116938 149.902642 
L 116.237852 149.902642 
L 116.237852 148.941585 
L 116.498846 148.941585 
L 116.498846 147.980528 
L 117.255608 147.980528 
L 117.255608 147.019472 
L 117.43058 147.019472 
L 117.43058 146.058415 
L 117.690918 146.058415 
L 117.690918 145.097358 
L 117.818061 145.097358 
L 117.818061 144.136302 
L 118.003212 144.136302 
L 118.003212 143.175245 
L 118.161381 143.175245 
L 118.161381 142.214189 
L 118.710127 142.214189 
L 118.710127 141.253132 
L 119.492766 141.253132 
L 119.600359 139.331019 
L 120.396657 139.331019 
L 120.428497 136.447849 
L 121.110726 136.447849 
L 121.121542 134.525736 
L 121.228661 134.525736 
L 121.235046 132.603623 
L 121.375343 132.603623 
L 121.443101 130.681509 
L 121.516879 130.681509 
L 121.516879 129.720453 
L 121.813053 129.720453 
L 121.813053 128.759396 
L 122.278794 128.759396 
L 122.32217 126.837283 
L 122.427581 126.837283 
L 122.532975 123.954113 
L 122.59991 123.954113 
L 122.59991 122.032 
L 122.749088 122.032 
L 122.749088 121.070943 
L 123.191492 121.070943 
L 123.191493 119.14883 
L 123.506606 119.14883 
L 123.506606 118.187774 
L 124.430237 118.187774 
L 124.430237 117.226717 
L 124.563841 117.226717 
L 124.563841 116.26566 
L 124.708055 116.26566 
L 124.759396 114.343547 
L 125.24774 114.343547 
L 125.24774 111.460377 
L 125.372317 111.460377 
L 125.372317 110.499321 
L 125.850647 110.499321 
L 125.930127 108.577208 
L 126.474949 108.577208 
L 126.554322 106.655094 
L 126.611004 106.655094 
L 126.611004 105.694038 
L 126.950878 105.694038 
L 126.950878 104.732981 
L 127.282179 104.732981 
L 127.329115 102.810868 
L 127.86627 102.810868 
L 127.86627 100.888755 
L 128.200079 100.888755 
L 128.26869 98.966642 
L 129.05368 98.966642 
L 129.05368 98.005585 
L 129.206187 98.005585 
L 129.206187 97.044528 
L 129.540504 97.044528 
L 129.540504 96.083472 
L 129.973495 96.083472 
L 130.063738 94.161358 
L 130.275073 94.161358 
L 130.275073 93.200302 
L 130.452958 93.200302 
L 130.452958 92.239245 
L 131.111865 92.239245 
L 131.111865 91.278189 
L 131.341259 91.278189 
L 131.341259 90.317132 
L 132.082953 90.317132 
L 132.082953 89.356075 
L 132.480989 89.356075 
L 132.480989 88.395019 
L 132.677361 88.395019 
L 132.677362 86.472906 
L 132.935487 86.472906 
L 132.935487 85.511849 
L 134.128691 85.511849 
L 134.200172 83.589736 
L 134.655753 83.589736 
L 134.655753 82.628679 
L 135.315512 82.628679 
L 135.413469 80.706566 
L 135.710868 80.706566 
L 135.710868 79.745509 
L 135.84257 79.745509 
L 135.84257 78.784453 
L 136.498432 78.784453 
L 136.498432 77.823396 
L 136.631906 77.823396 
L 136.631906 76.86234 
L 136.815508 76.86234 
L 136.815508 75.901283 
L 137.550907 75.901283 
L 137.550907 74.940226 
L 138.729494 74.940226 
L 138.729494 73.97917 
L 139.382816 73.97917 
L 139.382816 73.018113 
L 139.544236 73.018113 
L 139.544236 72.057057 
L 140.295733 72.057057 
L 140.295733 71.096 
L 141.235037 71.096 
L 141.235037 70.134943 
L 141.856039 70.134943 
L 141.856039 69.173887 
L 142.828228 69.173887 
L 142.828228 68.21283 
L 143.927256 68.21283 
L 143.927256 67.251774 
L 144.830123 67.251774 
L 144.830123 66.290717 
L 147.206671 66.290717 
L 147.206671 65.32966 
L 147.63209 65.32966 
L 147.63209 64.368604 
L 148.421667 64.368604 
L 148.421667 63.407547 
L 149.36142 63.407547 
L 149.36142 62.446491 
L 149.691006 62.446491 
L 149.691006 61.485434 
L 151.828242 61.485434 
L 151.828242 60.524377 
L 152.150277 60.524377 
L 152.150277 59.563321 
L 152.424316 59.563321 
L 152.424316 58.602264 
L 152.561489 58.602264 
L 152.561489 57.641208 
L 154.895357 57.641208 
L 154.895357 56.680151 
L 157.023737 56.680151 
L 157.023737 55.719094 
L 157.457715 55.719094 
L 157.457715 53.796981 
L 159.837316 53.796981 
L 159.837316 52.835925 
L 160.854396 52.835925 
L 160.934994 49.952755 
L 162.383594 49.952755 
L 162.383594 48.991698 
L 163.66778 48.991698 
L 163.66778 48.030642 
L 166.545346 48.030642 
L 166.545346 47.069585 
L 167.580448 47.069585 
L 167.580448 45.147472 
L 167.898513 45.147472 
L 167.898513 44.186415 
L 168.692795 44.186415 
L 168.692795 43.225358 
L 169.248046 43.225358 
L 169.248046 42.264302 
L 170.910116 42.264302 
L 170.910116 41.303245 
L 172.015099 41.303245 
L 172.0151 37.459019 
L 172.724155 37.459019 
L 172.724155 36.497962 
L 173.117639 36.497962 
L 173.11764 34.575849 
L 176.64503 34.575849 
L 176.64503 33.614792 
L 177.503469 33.614792 
L 177.50347 31.692679 
L 178.593871 31.692679 
L 178.593871 30.731623 
L 179.138168 30.731623 
L 179.138168 29.770566 
L 180.043991 29.770566 
L 180.043991 28.809509 
L 183.470915 28.809509 
L 183.470915 27.848453 
L 184.068026 27.848453 
L 184.068026 26.887396 
L 185.392823 26.887396 
L 185.392823 25.92634 
L 187.536359 25.92634 
L 187.536359 24.965283 
L 191.488399 24.965283 
L 191.488399 24.004226 
L 194.25414 24.004226 
L 194.25414 23.04317 
L 199.888746 23.04317 
L 199.888746 22.082113 
L 209.754355 22.082113 
L 209.754355 21.121057 
L 209.883376 21.121057 
L 209.883376 20.16 
L 209.934979 20.16 
" clip-path="url(#pd8930a5ff0)" style="fill: none; stroke: #4586bd; stroke-width: 4; stroke-linecap: square"/>
   </g>
   <g id="line2d_36">
    <path d="M 106.915925 273.878943 
L 106.967616 271.95683 
L 107.432466 271.95683 
L 107.432466 270.995774 
L 108.874442 270.995774 
L 108.874442 269.07366 
L 109.114152 269.07366 
L 109.114152 268.112604 
L 110.361202 268.112604 
L 110.361202 267.151547 
L 110.719054 267.151547 
L 110.719054 266.190491 
L 110.965912 266.190491 
L 110.965912 264.268377 
L 111.667997 264.268377 
L 111.667997 263.307321 
L 112.451571 263.307321 
L 112.451571 262.346264 
L 113.820773 262.346264 
L 113.871372 260.424151 
L 115.438724 260.424151 
L 115.438724 259.463094 
L 116.067492 259.463094 
L 116.067492 258.502038 
L 116.692182 258.502038 
L 116.770181 256.579925 
L 117.840735 256.579925 
L 117.840735 255.618868 
L 118.043315 255.618868 
L 118.093246 253.696755 
L 120.876831 253.696755 
L 120.876831 252.735698 
L 121.568884 252.735698 
L 121.568884 251.774642 
L 123.095846 251.774642 
L 123.095846 250.813585 
L 123.349613 250.813585 
L 123.349613 249.852528 
L 124.321825 249.852528 
L 124.321825 248.891472 
L 124.517533 248.891472 
L 124.517533 247.930415 
L 126.030074 247.930415 
L 126.030074 246.969358 
L 126.419205 246.969358 
L 126.419205 246.008302 
L 127.050493 246.008302 
L 127.050493 244.086189 
L 127.502926 244.086189 
L 127.502926 243.125132 
L 127.728893 243.125132 
L 127.728893 242.164075 
L 128.405792 242.164075 
L 128.454085 237.358792 
L 128.83488 237.358792 
L 128.83488 236.397736 
L 129.081194 236.397736 
L 129.081194 235.436679 
L 129.56271 235.436679 
L 129.56271 234.475623 
L 129.755103 234.475623 
L 129.755103 233.514566 
L 130.082746 233.514566 
L 130.082746 232.553509 
L 130.23847 232.553509 
L 130.23847 231.592453 
L 130.427521 231.592453 
L 130.427521 230.631396 
L 130.667309 230.631396 
L 130.667309 229.67034 
L 131.098452 229.67034 
L 131.098452 228.709283 
L 132.483521 228.709283 
L 132.483521 227.748226 
L 133.958668 227.748226 
L 133.958668 225.826113 
L 134.883581 225.826113 
L 134.883581 224.865057 
L 135.092992 224.865057 
L 135.092992 222.942943 
L 135.753605 222.942943 
L 135.855712 221.02083 
L 136.130442 221.02083 
L 136.130442 220.059774 
L 136.412757 220.059774 
L 136.46439 218.13766 
L 136.727276 218.13766 
L 136.727276 217.176604 
L 137.304989 217.176604 
L 137.304989 216.215547 
L 137.726691 216.215547 
L 137.726691 214.293434 
L 139.034819 214.293434 
L 139.051421 212.371321 
L 139.221223 212.371321 
L 139.221223 211.410264 
L 139.686715 211.410264 
L 139.686715 208.527094 
L 140.337168 208.527094 
L 140.337168 207.566038 
L 140.856495 207.566038 
L 140.932154 205.643925 
L 140.986183 205.643925 
L 140.986183 204.682868 
L 141.310153 204.682868 
L 141.310153 203.721811 
L 144.923612 203.721811 
L 144.934346 201.799698 
L 145.276422 201.799698 
L 145.276422 200.838642 
L 146.581477 200.838642 
L 146.581477 199.877585 
L 147.61963 199.877585 
L 147.619631 197.955472 
L 149.926896 197.955472 
L 149.926896 196.994415 
L 152.073391 196.994415 
L 152.073391 196.033358 
L 153.399934 196.033358 
L 153.399934 195.072302 
L 155.601071 195.072302 
L 155.601071 194.111245 
L 156.47812 194.111245 
L 156.47812 193.150189 
L 159.097648 193.150189 
L 159.097648 192.189132 
L 159.966964 192.189132 
L 159.966964 191.228075 
L 161.699833 191.228075 
L 161.699833 190.267019 
L 162.008468 190.267019 
L 162.008468 189.305962 
L 162.501775 189.305962 
L 162.501775 188.344906 
L 163.30207 188.344906 
L 163.30207 187.383849 
L 164.897732 187.383849 
L 164.897732 186.422792 
L 165.998584 186.422792 
L 165.998584 184.500679 
L 167.643998 184.500679 
L 167.643998 183.539623 
L 170.25001 183.539623 
L 170.25001 182.578566 
L 170.732897 182.578566 
L 170.732897 180.656453 
L 171.094662 180.656453 
L 171.094662 179.695396 
L 171.937446 179.695396 
L 171.937446 178.73434 
L 172.237989 178.73434 
L 172.237989 177.773283 
L 172.395908 177.773283 
L 172.395908 176.812226 
L 172.708361 176.812226 
L 172.708361 175.85117 
L 172.898346 175.85117 
L 172.898346 174.890113 
L 173.05826 174.890113 
L 173.05826 173.929057 
L 173.404165 173.929057 
L 173.404165 172.968 
L 173.856817 172.968 
L 173.856817 172.006943 
L 175.289985 172.006943 
L 175.289985 171.045887 
L 175.693697 171.045887 
L 175.693697 170.08483 
L 176.350631 170.08483 
L 176.350631 169.123774 
L 176.836457 169.123774 
L 176.836457 168.162717 
L 177.429563 168.162717 
L 177.429563 167.20166 
L 177.784976 167.20166 
L 177.784976 166.240604 
L 177.903373 166.240604 
L 177.903373 165.279547 
L 178.612964 165.279547 
L 178.612964 164.318491 
L 179.439121 164.318491 
L 179.439121 163.357434 
L 180.498638 163.357434 
L 180.498638 162.396377 
L 181.085957 162.396377 
L 181.085957 161.435321 
L 181.906645 161.435321 
L 181.906645 160.474264 
L 183.309317 160.474264 
L 183.309317 159.513208 
L 184.183288 159.513208 
L 184.183288 158.552151 
L 185.171285 158.552151 
L 185.171285 157.591094 
L 185.982937 157.591094 
L 185.982937 156.630038 
L 188.119389 156.630038 
L 188.119389 155.668981 
L 189.211637 155.668981 
L 189.211637 154.707925 
L 191.820519 154.707925 
L 191.820519 153.746868 
L 192.563555 153.746868 
L 192.563555 152.785811 
L 192.809909 152.785811 
L 192.916702 150.863698 
L 193.897643 150.863698 
L 193.897643 149.902642 
L 194.048377 149.902642 
L 194.048377 148.941585 
L 194.23926 148.941585 
L 194.23926 147.980528 
L 196.210941 147.980528 
L 196.210941 147.019472 
L 196.603593 147.019472 
L 196.679424 145.097358 
L 199.782846 145.097358 
L 199.782846 144.136302 
L 201.302095 144.136302 
L 201.302095 143.175245 
L 203.060484 143.175245 
L 203.060484 142.214189 
L 203.292065 142.214189 
L 203.326082 140.292075 
L 203.456688 140.292075 
L 203.456688 139.331019 
L 204.217472 139.331019 
L 204.217472 138.369962 
L 208.047413 138.369962 
L 208.047413 137.408906 
L 209.540272 137.408906 
L 209.540272 136.447849 
L 210.474945 136.447849 
L 210.474945 135.486792 
L 213.098844 135.486792 
L 213.098844 134.525736 
L 214.555435 134.525736 
L 214.555435 133.564679 
L 215.990259 133.564679 
L 215.990259 132.603623 
L 218.027999 132.603623 
L 218.104955 130.681509 
L 219.153449 130.681509 
L 219.153449 129.720453 
L 219.806093 129.720453 
L 219.806093 128.759396 
L 221.556149 128.759396 
L 221.556149 127.79834 
L 221.84008 127.79834 
L 221.84008 126.837283 
L 223.681266 126.837283 
L 223.681266 125.876226 
L 224.389099 125.876226 
L 224.389099 123.954113 
L 226.323523 123.954113 
L 226.323523 122.993057 
L 227.50518 122.993057 
L 227.50518 122.032 
L 227.860206 122.032 
L 227.860206 121.070943 
L 228.126329 121.070943 
L 228.126329 120.109887 
L 228.530942 120.109887 
L 228.530942 118.187774 
L 229.628979 118.187774 
L 229.628979 117.226717 
L 230.378746 117.226717 
L 230.378746 116.26566 
L 231.457114 116.26566 
L 231.530385 112.421434 
L 232.331956 112.421434 
L 232.331956 111.460377 
L 232.774487 111.460377 
L 232.774487 110.499321 
L 233.480915 110.499321 
L 233.583385 108.577208 
L 233.880788 108.577208 
L 233.880788 107.616151 
L 234.21243 107.616151 
L 234.300147 105.694038 
L 234.70931 105.694038 
L 234.70931 104.732981 
L 235.789217 104.732981 
L 235.789217 103.771925 
L 236.359753 103.771925 
L 236.359753 102.810868 
L 236.750601 102.810868 
L 236.750601 101.849811 
L 237.089435 101.849811 
L 237.089435 100.888755 
L 237.251472 100.888755 
L 237.251472 98.966642 
L 237.525478 98.966642 
L 237.525478 98.005585 
L 238.209737 98.005585 
L 238.209737 97.044528 
L 238.688074 97.044528 
L 238.688074 96.083472 
L 240.050569 96.083472 
L 240.119913 94.161358 
L 240.810656 94.161358 
L 240.810656 93.200302 
L 241.071834 93.200302 
L 241.071834 89.356075 
L 241.532517 89.356075 
L 241.619077 86.472906 
L 241.682671 86.472906 
L 241.705623 84.550792 
L 242.02165 84.550792 
L 242.02165 82.628679 
L 244.037194 82.628679 
L 244.037194 81.667623 
L 244.467758 81.667623 
L 244.467758 80.706566 
L 245.060425 80.706566 
L 245.060425 79.745509 
L 245.799953 79.745509 
L 245.799954 77.823396 
L 246.739313 77.823396 
L 246.739313 76.86234 
L 247.208213 76.86234 
L 247.208213 75.901283 
L 247.815525 75.901283 
L 247.815525 74.940226 
L 247.988561 74.940226 
L 247.988561 73.97917 
L 250.035848 73.97917 
L 250.035849 72.057057 
L 250.934981 72.057057 
L 250.940787 70.134943 
L 251.227631 70.134943 
L 251.227631 69.173887 
L 252.596472 69.173887 
L 252.596472 68.21283 
L 252.731709 68.21283 
L 252.731709 67.251774 
L 253.214603 67.251774 
L 253.214603 65.32966 
L 253.433953 65.32966 
L 253.433953 64.368604 
L 253.628228 64.368604 
L 253.628228 63.407547 
L 253.817719 63.407547 
L 253.817719 62.446491 
L 254.443084 62.446491 
L 254.443084 61.485434 
L 257.441883 61.485434 
L 257.544645 59.563321 
L 258.981613 59.563321 
L 258.981613 58.602264 
L 264.291155 58.602264 
L 264.291155 57.641208 
L 264.697775 57.641208 
L 264.697776 54.758038 
L 265.171841 54.758038 
L 265.171841 53.796981 
L 266.929597 53.796981 
L 266.929597 52.835925 
L 267.418882 52.835925 
L 267.418882 51.874868 
L 270.363538 51.874868 
L 270.363538 50.913811 
L 270.866974 50.913811 
L 270.866974 49.952755 
L 272.475297 49.952755 
L 272.475297 48.991698 
L 277.375545 48.991698 
L 277.375545 48.030642 
L 278.669249 48.030642 
L 278.768655 46.108528 
L 281.54564 46.108528 
L 281.54564 45.147472 
L 283.603885 45.147472 
L 283.603885 44.186415 
L 287.482048 44.186415 
L 287.482048 43.225358 
L 308.642369 43.225358 
L 308.642369 42.264302 
L 309.259467 42.264302 
L 309.259467 41.303245 
L 310.140117 41.303245 
L 310.140117 40.342189 
L 311.132691 40.342189 
L 311.132691 39.381132 
L 311.546903 39.381132 
L 311.546903 38.420075 
L 316.98458 38.420075 
L 316.98458 37.459019 
L 318.887283 37.459019 
L 318.887283 36.497962 
L 319.565049 36.497962 
L 319.565049 35.536906 
L 320.450379 35.536906 
L 320.450379 34.575849 
L 321.119218 34.575849 
L 321.119218 33.614792 
L 329.756624 33.614792 
L 329.756624 32.653736 
L 330.702449 32.653736 
L 330.702449 31.692679 
L 334.975546 31.692679 
L 334.975546 30.731623 
L 337.309097 30.731623 
L 337.309097 29.770566 
L 338.940062 29.770566 
L 338.940062 28.809509 
L 349.28712 28.809509 
L 349.28712 27.848453 
L 353.084402 27.848453 
L 353.084402 26.887396 
L 356.521821 26.887396 
L 356.521821 25.92634 
L 377.354946 25.92634 
L 377.354946 24.965283 
L 383.071109 24.965283 
L 383.071109 24.004226 
L 385.201652 24.004226 
L 385.201652 23.04317 
L 389.542178 23.04317 
L 389.542178 22.082113 
L 397.141988 22.082113 
L 397.241378 20.16 
L 397.28113 20.16 
L 397.28113 20.16 
" clip-path="url(#pd8930a5ff0)" style="fill: none; stroke-dasharray: 14.8,6.4; stroke-dashoffset: 0; stroke: #55ac3d; stroke-width: 4"/>
   </g>
   <g id="patch_3">
    <path d="M 78.68 274.84 
L 78.68 20.16 
" style="fill: none; stroke: #000000; stroke-width: 0.8; stroke-linejoin: miter; stroke-linecap: square"/>
   </g>
   <g id="patch_4">
    <path d="M 433.8 274.84 
L 433.8 20.16 
" style="fill: none; stroke: #000000; stroke-width: 0.8; stroke-linejoin: miter; stroke-linecap: square"/>
   </g>
   <g id="patch_5">
    <path d="M 78.68 274.84 
L 433.8 274.84 
" style="fill: none; stroke: #000000; stroke-width: 0.8; stroke-linejoin: miter; stroke-linecap: square"/>
   </g>
   <g id="patch_6">
    <path d="M 78.68 20.16 
L 433.8 20.16 
" style="fill: none; stroke: #000000; stroke-width: 0.8; stroke-linejoin: miter; stroke-linecap: square"/>
   </g>
   <g id="legend_1">
    <g id="patch_7">
     <path d="M 221.164688 261.84 
L 415.6 261.84 
Q 420.8 261.84 420.8 256.64 
L 420.8 185.716875 
Q 420.8 180.516875 415.6 180.516875 
L 221.164688 180.516875 
Q 215.964688 180.516875 215.964688 185.716875 
L 215.964688 256.64 
Q 215.964688 261.84 221.164688 261.84 
z
" style="fill: #ffffff; opacity: 0.8; stroke: #cccccc; stroke-linejoin: miter"/>
    </g>
    <g id="line2d_37">
     <path d="M 226.364688 200.016875 
L 226.364688 200.016875 
L 252.364688 200.016875 
L 252.364688 200.016875 
L 278.364688 200.016875 
" style="fill: none; stroke: #4586bd; stroke-width: 4; stroke-linecap: square"/>
    </g>
    <g id="text_15">
     <!-- ITP -->
     <g transform="translate(299.164688 209.116875) scale(0.26 -0.26)">
      <defs>
       <path id="TimesNewRomanPSMT-49" d="M 1975 116 
L 1975 0 
L 159 0 
L 159 116 
L 309 116 
Q 572 116 691 269 
Q 766 369 766 750 
L 766 3488 
Q 766 3809 725 3913 
Q 694 3991 597 4047 
Q 459 4122 309 4122 
L 159 4122 
L 159 4238 
L 1975 4238 
L 1975 4122 
L 1822 4122 
Q 1563 4122 1444 3969 
Q 1366 3869 1366 3488 
L 1366 750 
Q 1366 428 1406 325 
Q 1438 247 1538 191 
Q 1672 116 1822 116 
L 1975 116 
z
" transform="scale(0.015625)"/>
       <path id="TimesNewRomanPSMT-54" d="M 3703 4238 
L 3750 3244 
L 3631 3244 
Q 3597 3506 3538 3619 
Q 3441 3800 3280 3886 
Q 3119 3972 2856 3972 
L 2259 3972 
L 2259 734 
Q 2259 344 2344 247 
Q 2463 116 2709 116 
L 2856 116 
L 2856 0 
L 1059 0 
L 1059 116 
L 1209 116 
Q 1478 116 1591 278 
Q 1659 378 1659 734 
L 1659 3972 
L 1150 3972 
Q 853 3972 728 3928 
Q 566 3869 450 3700 
Q 334 3531 313 3244 
L 194 3244 
L 244 4238 
L 3703 4238 
z
" transform="scale(0.015625)"/>
       <path id="TimesNewRomanPSMT-50" d="M 1313 1984 
L 1313 750 
Q 1313 350 1400 253 
Q 1519 116 1759 116 
L 1922 116 
L 1922 0 
L 106 0 
L 106 116 
L 266 116 
Q 534 116 650 291 
Q 713 388 713 750 
L 713 3488 
Q 713 3888 628 3984 
Q 506 4122 266 4122 
L 106 4122 
L 106 4238 
L 1659 4238 
Q 2228 4238 2556 4120 
Q 2884 4003 3109 3725 
Q 3334 3447 3334 3066 
Q 3334 2547 2992 2222 
Q 2650 1897 2025 1897 
Q 1872 1897 1694 1919 
Q 1516 1941 1313 1984 
z
M 1313 2163 
Q 1478 2131 1606 2115 
Q 1734 2100 1825 2100 
Q 2150 2100 2386 2351 
Q 2622 2603 2622 3003 
Q 2622 3278 2509 3514 
Q 2397 3750 2190 3867 
Q 1984 3984 1722 3984 
Q 1563 3984 1313 3925 
L 1313 2163 
z
" transform="scale(0.015625)"/>
      </defs>
      <use xlink:href="#TimesNewRomanPSMT-49"/>
      <use xlink:href="#TimesNewRomanPSMT-54" transform="translate(33.300781 0)"/>
      <use xlink:href="#TimesNewRomanPSMT-50" transform="translate(94.384766 0)"/>
     </g>
    </g>
    <g id="line2d_38">
     <path d="M 226.364688 236.778437 
L 226.364688 236.778437 
L 252.364688 236.778437 
L 252.364688 236.778437 
L 278.364688 236.778437 
" style="fill: none; stroke-dasharray: 14.8,6.4; stroke-dashoffset: 0; stroke: #55ac3d; stroke-width: 4"/>
    </g>
    <g id="text_16">
     <!-- Raw-RSSI -->
     <g transform="translate(299.164688 245.878437) scale(0.26 -0.26)">
      <defs>
       <path id="TimesNewRomanPSMT-52" d="M 4325 0 
L 3194 0 
L 1759 1981 
Q 1600 1975 1500 1975 
Q 1459 1975 1412 1976 
Q 1366 1978 1316 1981 
L 1316 750 
Q 1316 350 1403 253 
Q 1522 116 1759 116 
L 1925 116 
L 1925 0 
L 109 0 
L 109 116 
L 269 116 
Q 538 116 653 291 
Q 719 388 719 750 
L 719 3488 
Q 719 3888 631 3984 
Q 509 4122 269 4122 
L 109 4122 
L 109 4238 
L 1653 4238 
Q 2328 4238 2648 4139 
Q 2969 4041 3192 3777 
Q 3416 3513 3416 3147 
Q 3416 2756 3161 2468 
Q 2906 2181 2372 2063 
L 3247 847 
Q 3547 428 3762 290 
Q 3978 153 4325 116 
L 4325 0 
z
M 1316 2178 
Q 1375 2178 1419 2176 
Q 1463 2175 1491 2175 
Q 2097 2175 2405 2437 
Q 2713 2700 2713 3106 
Q 2713 3503 2464 3751 
Q 2216 4000 1806 4000 
Q 1625 4000 1316 3941 
L 1316 2178 
z
" transform="scale(0.015625)"/>
       <path id="TimesNewRomanPSMT-61" d="M 1822 413 
Q 1381 72 1269 19 
Q 1100 -59 909 -59 
Q 613 -59 420 144 
Q 228 347 228 678 
Q 228 888 322 1041 
Q 450 1253 767 1440 
Q 1084 1628 1822 1897 
L 1822 2009 
Q 1822 2438 1686 2597 
Q 1550 2756 1291 2756 
Q 1094 2756 978 2650 
Q 859 2544 859 2406 
L 866 2225 
Q 866 2081 792 2003 
Q 719 1925 600 1925 
Q 484 1925 411 2006 
Q 338 2088 338 2228 
Q 338 2497 613 2722 
Q 888 2947 1384 2947 
Q 1766 2947 2009 2819 
Q 2194 2722 2281 2516 
Q 2338 2381 2338 1966 
L 2338 994 
Q 2338 584 2353 492 
Q 2369 400 2405 369 
Q 2441 338 2488 338 
Q 2538 338 2575 359 
Q 2641 400 2828 588 
L 2828 413 
Q 2478 -56 2159 -56 
Q 2006 -56 1915 50 
Q 1825 156 1822 413 
z
M 1822 616 
L 1822 1706 
Q 1350 1519 1213 1441 
Q 966 1303 859 1153 
Q 753 1003 753 825 
Q 753 600 887 451 
Q 1022 303 1197 303 
Q 1434 303 1822 616 
z
" transform="scale(0.015625)"/>
       <path id="TimesNewRomanPSMT-77" d="M 41 2863 
L 1241 2863 
L 1241 2747 
Q 1075 2734 1023 2687 
Q 972 2641 972 2553 
Q 972 2456 1025 2319 
L 1638 672 
L 2253 2013 
L 2091 2434 
Q 2016 2622 1894 2694 
Q 1825 2738 1638 2747 
L 1638 2863 
L 3000 2863 
L 3000 2747 
Q 2775 2738 2681 2666 
Q 2619 2616 2619 2506 
Q 2619 2444 2644 2378 
L 3294 734 
L 3897 2319 
Q 3959 2488 3959 2588 
Q 3959 2647 3898 2694 
Q 3838 2741 3659 2747 
L 3659 2863 
L 4563 2863 
L 4563 2747 
Q 4291 2706 4163 2378 
L 3206 -88 
L 3078 -88 
L 2363 1741 
L 1528 -88 
L 1413 -88 
L 494 2319 
Q 403 2547 315 2626 
Q 228 2706 41 2747 
L 41 2863 
z
" transform="scale(0.015625)"/>
       <path id="TimesNewRomanPSMT-2d" d="M 259 1672 
L 1875 1672 
L 1875 1200 
L 259 1200 
L 259 1672 
z
" transform="scale(0.015625)"/>
       <path id="TimesNewRomanPSMT-53" d="M 2934 4334 
L 2934 2869 
L 2819 2869 
Q 2763 3291 2617 3541 
Q 2472 3791 2203 3937 
Q 1934 4084 1647 4084 
Q 1322 4084 1109 3886 
Q 897 3688 897 3434 
Q 897 3241 1031 3081 
Q 1225 2847 1953 2456 
Q 2547 2138 2764 1967 
Q 2981 1797 3098 1565 
Q 3216 1334 3216 1081 
Q 3216 600 2842 251 
Q 2469 -97 1881 -97 
Q 1697 -97 1534 -69 
Q 1438 -53 1133 45 
Q 828 144 747 144 
Q 669 144 623 97 
Q 578 50 556 -97 
L 441 -97 
L 441 1356 
L 556 1356 
Q 638 900 775 673 
Q 913 447 1195 297 
Q 1478 147 1816 147 
Q 2206 147 2432 353 
Q 2659 559 2659 841 
Q 2659 997 2573 1156 
Q 2488 1316 2306 1453 
Q 2184 1547 1640 1851 
Q 1097 2156 867 2337 
Q 638 2519 519 2737 
Q 400 2956 400 3219 
Q 400 3675 750 4004 
Q 1100 4334 1641 4334 
Q 1978 4334 2356 4169 
Q 2531 4091 2603 4091 
Q 2684 4091 2736 4139 
Q 2788 4188 2819 4334 
L 2934 4334 
z
" transform="scale(0.015625)"/>
      </defs>
      <use xlink:href="#TimesNewRomanPSMT-52"/>
      <use xlink:href="#TimesNewRomanPSMT-61" transform="translate(66.699219 0)"/>
      <use xlink:href="#TimesNewRomanPSMT-77" transform="translate(111.083984 0)"/>
      <use xlink:href="#TimesNewRomanPSMT-2d" transform="translate(183.300781 0)"/>
      <use xlink:href="#TimesNewRomanPSMT-52" transform="translate(216.601562 0)"/>
      <use xlink:href="#TimesNewRomanPSMT-53" transform="translate(283.300781 0)"/>
      <use xlink:href="#TimesNewRomanPSMT-53" transform="translate(338.916016 0)"/>
      <use xlink:href="#TimesNewRomanPSMT-49" transform="translate(394.53125 0)"/>
     </g>
    </g>
   </g>
  </g>
 </g>
 <defs>
  <clipPath id="pd8930a5ff0">
   <rect x="78.68" y="20.16" width="355.12" height="254.68"/>
  </clipPath>
 </defs>
</svg>
