<?xml version="1.0" encoding="utf-8" standalone="no"?>
<!DOCTYPE svg PUBLIC "-//W3C//DTD SVG 1.1//EN"
  "http://www.w3.org/Graphics/SVG/1.1/DTD/svg11.dtd">
<svg xmlns:xlink="http://www.w3.org/1999/xlink" width="460.8pt" height="345.6pt" viewBox="0 0 460.8 345.6" xmlns="http://www.w3.org/2000/svg" version="1.1">
 <metadata>
  <rdf:RDF xmlns:dc="http://purl.org/dc/elements/1.1/" xmlns:cc="http://creativecommons.org/ns#" xmlns:rdf="http://www.w3.org/1999/02/22-rdf-syntax-ns#">
   <cc:Work>
    <dc:type rdf:resource="http://purl.org/dc/dcmitype/StillImage"/>
    <dc:date>2025-09-04T18:42:10.246829</dc:date>
    <dc:format>image/svg+xml</dc:format>
    <dc:creator>
     <cc:Agent>
      <dc:title>Matplotlib v3.10.1, https://matplotlib.org/</dc:title>
     </cc:Agent>
    </dc:creator>
   </cc:Work>
  </rdf:RDF>
 </metadata>
 <defs>
  <style type="text/css">*{stroke-linejoin: round; stroke-linecap: butt}</style>
 </defs>
 <g id="figure_1">
  <g id="patch_1">
   <path d="M 0 345.6 
L 460.8 345.6 
L 460.8 0 
L 0 0 
z
" style="fill: #ffffff"/>
  </g>
  <g id="axes_1">
   <g id="patch_2">
    <path d="M 78.68 274.84 
L 433.8 274.84 
L 433.8 20.16 
L 78.68 20.16 
z
" style="fill: #ffffff"/>
   </g>
   <g id="matplotlib.axis_1">
    <g id="xtick_1">
     <g id="line2d_1">
      <path d="M 78.68 274.84 
L 78.68 20.16 
" clip-path="url(#p1b83e5871c)" style="fill: none; stroke: #b0b0b0; stroke-opacity: 0.4; stroke-width: 0.8; stroke-linecap: square"/>
     </g>
     <g id="line2d_2">
      <defs>
       <path id="mb8400a5a62" d="M 0 0 
L 0 3.5 
" style="stroke: #000000; stroke-width: 0.8"/>
      </defs>
      <g>
       <use xlink:href="#mb8400a5a62" x="78.68" y="274.84" style="stroke: #000000; stroke-width: 0.8"/>
      </g>
     </g>
     <g id="text_1">
      <!-- 0.0 -->
      <g transform="translate(62.43 299.89375) scale(0.26 -0.26)">
       <defs>
        <path id="TimesNewRomanPSMT-30" d="M 231 2094 
Q 231 2819 450 3342 
Q 669 3866 1031 4122 
Q 1313 4325 1613 4325 
Q 2100 4325 2488 3828 
Q 2972 3213 2972 2159 
Q 2972 1422 2759 906 
Q 2547 391 2217 158 
Q 1888 -75 1581 -75 
Q 975 -75 572 641 
Q 231 1244 231 2094 
z
M 844 2016 
Q 844 1141 1059 588 
Q 1238 122 1591 122 
Q 1759 122 1940 273 
Q 2122 425 2216 781 
Q 2359 1319 2359 2297 
Q 2359 3022 2209 3506 
Q 2097 3866 1919 4016 
Q 1791 4119 1609 4119 
Q 1397 4119 1231 3928 
Q 1006 3669 925 3112 
Q 844 2556 844 2016 
z
" transform="scale(0.015625)"/>
        <path id="TimesNewRomanPSMT-2e" d="M 800 606 
Q 947 606 1047 504 
Q 1147 403 1147 259 
Q 1147 116 1045 14 
Q 944 -88 800 -88 
Q 656 -88 554 14 
Q 453 116 453 259 
Q 453 406 554 506 
Q 656 606 800 606 
z
" transform="scale(0.015625)"/>
       </defs>
       <use xlink:href="#TimesNewRomanPSMT-30"/>
       <use xlink:href="#TimesNewRomanPSMT-2e" transform="translate(50 0)"/>
       <use xlink:href="#TimesNewRomanPSMT-30" transform="translate(75 0)"/>
      </g>
     </g>
    </g>
    <g id="xtick_2">
     <g id="line2d_3">
      <path d="M 149.704 274.84 
L 149.704 20.16 
" clip-path="url(#p1b83e5871c)" style="fill: none; stroke: #b0b0b0; stroke-opacity: 0.4; stroke-width: 0.8; stroke-linecap: square"/>
     </g>
     <g id="line2d_4">
      <g>
       <use xlink:href="#mb8400a5a62" x="149.704" y="274.84" style="stroke: #000000; stroke-width: 0.8"/>
      </g>
     </g>
     <g id="text_2">
      <!-- 0.6 -->
      <g transform="translate(133.454 299.89375) scale(0.26 -0.26)">
       <defs>
        <path id="TimesNewRomanPSMT-36" d="M 2869 4325 
L 2869 4209 
Q 2456 4169 2195 4045 
Q 1934 3922 1679 3669 
Q 1425 3416 1258 3105 
Q 1091 2794 978 2366 
Q 1428 2675 1881 2675 
Q 2316 2675 2634 2325 
Q 2953 1975 2953 1425 
Q 2953 894 2631 456 
Q 2244 -75 1606 -75 
Q 1172 -75 869 213 
Q 275 772 275 1663 
Q 275 2231 503 2743 
Q 731 3256 1154 3653 
Q 1578 4050 1965 4187 
Q 2353 4325 2688 4325 
L 2869 4325 
z
M 925 2138 
Q 869 1716 869 1456 
Q 869 1156 980 804 
Q 1091 453 1309 247 
Q 1469 100 1697 100 
Q 1969 100 2183 356 
Q 2397 613 2397 1088 
Q 2397 1622 2184 2012 
Q 1972 2403 1581 2403 
Q 1463 2403 1327 2353 
Q 1191 2303 925 2138 
z
" transform="scale(0.015625)"/>
       </defs>
       <use xlink:href="#TimesNewRomanPSMT-30"/>
       <use xlink:href="#TimesNewRomanPSMT-2e" transform="translate(50 0)"/>
       <use xlink:href="#TimesNewRomanPSMT-36" transform="translate(75 0)"/>
      </g>
     </g>
    </g>
    <g id="xtick_3">
     <g id="line2d_5">
      <path d="M 220.728 274.84 
L 220.728 20.16 
" clip-path="url(#p1b83e5871c)" style="fill: none; stroke: #b0b0b0; stroke-opacity: 0.4; stroke-width: 0.8; stroke-linecap: square"/>
     </g>
     <g id="line2d_6">
      <g>
       <use xlink:href="#mb8400a5a62" x="220.728" y="274.84" style="stroke: #000000; stroke-width: 0.8"/>
      </g>
     </g>
     <g id="text_3">
      <!-- 1.2 -->
      <g transform="translate(204.478 299.89375) scale(0.26 -0.26)">
       <defs>
        <path id="TimesNewRomanPSMT-31" d="M 750 3822 
L 1781 4325 
L 1884 4325 
L 1884 747 
Q 1884 391 1914 303 
Q 1944 216 2037 169 
Q 2131 122 2419 116 
L 2419 0 
L 825 0 
L 825 116 
Q 1125 122 1212 167 
Q 1300 213 1334 289 
Q 1369 366 1369 747 
L 1369 3034 
Q 1369 3497 1338 3628 
Q 1316 3728 1258 3775 
Q 1200 3822 1119 3822 
Q 1003 3822 797 3725 
L 750 3822 
z
" transform="scale(0.015625)"/>
        <path id="TimesNewRomanPSMT-32" d="M 2934 816 
L 2638 0 
L 138 0 
L 138 116 
Q 1241 1122 1691 1759 
Q 2141 2397 2141 2925 
Q 2141 3328 1894 3587 
Q 1647 3847 1303 3847 
Q 991 3847 742 3664 
Q 494 3481 375 3128 
L 259 3128 
Q 338 3706 661 4015 
Q 984 4325 1469 4325 
Q 1984 4325 2329 3994 
Q 2675 3663 2675 3213 
Q 2675 2891 2525 2569 
Q 2294 2063 1775 1497 
Q 997 647 803 472 
L 1909 472 
Q 2247 472 2383 497 
Q 2519 522 2628 598 
Q 2738 675 2819 816 
L 2934 816 
z
" transform="scale(0.015625)"/>
       </defs>
       <use xlink:href="#TimesNewRomanPSMT-31"/>
       <use xlink:href="#TimesNewRomanPSMT-2e" transform="translate(50 0)"/>
       <use xlink:href="#TimesNewRomanPSMT-32" transform="translate(75 0)"/>
      </g>
     </g>
    </g>
    <g id="xtick_4">
     <g id="line2d_7">
      <path d="M 291.752 274.84 
L 291.752 20.16 
" clip-path="url(#p1b83e5871c)" style="fill: none; stroke: #b0b0b0; stroke-opacity: 0.4; stroke-width: 0.8; stroke-linecap: square"/>
     </g>
     <g id="line2d_8">
      <g>
       <use xlink:href="#mb8400a5a62" x="291.752" y="274.84" style="stroke: #000000; stroke-width: 0.8"/>
      </g>
     </g>
     <g id="text_4">
      <!-- 1.8 -->
      <g transform="translate(275.502 299.89375) scale(0.26 -0.26)">
       <defs>
        <path id="TimesNewRomanPSMT-38" d="M 1228 2134 
Q 725 2547 579 2797 
Q 434 3047 434 3316 
Q 434 3728 753 4026 
Q 1072 4325 1600 4325 
Q 2113 4325 2425 4047 
Q 2738 3769 2738 3413 
Q 2738 3175 2569 2928 
Q 2400 2681 1866 2347 
Q 2416 1922 2594 1678 
Q 2831 1359 2831 1006 
Q 2831 559 2490 242 
Q 2150 -75 1597 -75 
Q 994 -75 656 303 
Q 388 606 388 966 
Q 388 1247 577 1523 
Q 766 1800 1228 2134 
z
M 1719 2469 
Q 2094 2806 2194 3001 
Q 2294 3197 2294 3444 
Q 2294 3772 2109 3958 
Q 1925 4144 1606 4144 
Q 1288 4144 1088 3959 
Q 888 3775 888 3528 
Q 888 3366 970 3203 
Q 1053 3041 1206 2894 
L 1719 2469 
z
M 1375 2016 
Q 1116 1797 991 1539 
Q 866 1281 866 981 
Q 866 578 1086 336 
Q 1306 94 1647 94 
Q 1984 94 2187 284 
Q 2391 475 2391 747 
Q 2391 972 2272 1150 
Q 2050 1481 1375 2016 
z
" transform="scale(0.015625)"/>
       </defs>
       <use xlink:href="#TimesNewRomanPSMT-31"/>
       <use xlink:href="#TimesNewRomanPSMT-2e" transform="translate(50 0)"/>
       <use xlink:href="#TimesNewRomanPSMT-38" transform="translate(75 0)"/>
      </g>
     </g>
    </g>
    <g id="xtick_5">
     <g id="line2d_9">
      <path d="M 362.776 274.84 
L 362.776 20.16 
" clip-path="url(#p1b83e5871c)" style="fill: none; stroke: #b0b0b0; stroke-opacity: 0.4; stroke-width: 0.8; stroke-linecap: square"/>
     </g>
     <g id="line2d_10">
      <g>
       <use xlink:href="#mb8400a5a62" x="362.776" y="274.84" style="stroke: #000000; stroke-width: 0.8"/>
      </g>
     </g>
     <g id="text_5">
      <!-- 2.4 -->
      <g transform="translate(346.526 299.89375) scale(0.26 -0.26)">
       <defs>
        <path id="TimesNewRomanPSMT-34" d="M 2978 1563 
L 2978 1119 
L 2409 1119 
L 2409 0 
L 1894 0 
L 1894 1119 
L 100 1119 
L 100 1519 
L 2066 4325 
L 2409 4325 
L 2409 1563 
L 2978 1563 
z
M 1894 1563 
L 1894 3666 
L 406 1563 
L 1894 1563 
z
" transform="scale(0.015625)"/>
       </defs>
       <use xlink:href="#TimesNewRomanPSMT-32"/>
       <use xlink:href="#TimesNewRomanPSMT-2e" transform="translate(50 0)"/>
       <use xlink:href="#TimesNewRomanPSMT-34" transform="translate(75 0)"/>
      </g>
     </g>
    </g>
    <g id="xtick_6">
     <g id="line2d_11">
      <path d="M 433.8 274.84 
L 433.8 20.16 
" clip-path="url(#p1b83e5871c)" style="fill: none; stroke: #b0b0b0; stroke-opacity: 0.4; stroke-width: 0.8; stroke-linecap: square"/>
     </g>
     <g id="line2d_12">
      <g>
       <use xlink:href="#mb8400a5a62" x="433.8" y="274.84" style="stroke: #000000; stroke-width: 0.8"/>
      </g>
     </g>
     <g id="text_6">
      <!-- 3.0 -->
      <g transform="translate(417.55 299.89375) scale(0.26 -0.26)">
       <defs>
        <path id="TimesNewRomanPSMT-33" d="M 325 3431 
Q 506 3859 782 4092 
Q 1059 4325 1472 4325 
Q 1981 4325 2253 3994 
Q 2459 3747 2459 3466 
Q 2459 3003 1878 2509 
Q 2269 2356 2469 2072 
Q 2669 1788 2669 1403 
Q 2669 853 2319 450 
Q 1863 -75 997 -75 
Q 569 -75 414 31 
Q 259 138 259 259 
Q 259 350 332 419 
Q 406 488 509 488 
Q 588 488 669 463 
Q 722 447 909 348 
Q 1097 250 1169 231 
Q 1284 197 1416 197 
Q 1734 197 1970 444 
Q 2206 691 2206 1028 
Q 2206 1275 2097 1509 
Q 2016 1684 1919 1775 
Q 1784 1900 1550 2001 
Q 1316 2103 1072 2103 
L 972 2103 
L 972 2197 
Q 1219 2228 1467 2375 
Q 1716 2522 1828 2728 
Q 1941 2934 1941 3181 
Q 1941 3503 1739 3701 
Q 1538 3900 1238 3900 
Q 753 3900 428 3381 
L 325 3431 
z
" transform="scale(0.015625)"/>
       </defs>
       <use xlink:href="#TimesNewRomanPSMT-33"/>
       <use xlink:href="#TimesNewRomanPSMT-2e" transform="translate(50 0)"/>
       <use xlink:href="#TimesNewRomanPSMT-30" transform="translate(75 0)"/>
      </g>
     </g>
    </g>
    <g id="xtick_7">
     <g id="line2d_13">
      <path d="M 114.192 274.84 
L 114.192 20.16 
" clip-path="url(#p1b83e5871c)" style="fill: none; stroke: #b0b0b0; stroke-opacity: 0.4; stroke-width: 0.8; stroke-linecap: square"/>
     </g>
     <g id="line2d_14">
      <defs>
       <path id="mb4071e938d" d="M 0 0 
L 0 2 
" style="stroke: #000000; stroke-width: 0.6"/>
      </defs>
      <g>
       <use xlink:href="#mb4071e938d" x="114.192" y="274.84" style="stroke: #000000; stroke-width: 0.6"/>
      </g>
     </g>
    </g>
    <g id="xtick_8">
     <g id="line2d_15">
      <path d="M 185.216 274.84 
L 185.216 20.16 
" clip-path="url(#p1b83e5871c)" style="fill: none; stroke: #b0b0b0; stroke-opacity: 0.4; stroke-width: 0.8; stroke-linecap: square"/>
     </g>
     <g id="line2d_16">
      <g>
       <use xlink:href="#mb4071e938d" x="185.216" y="274.84" style="stroke: #000000; stroke-width: 0.6"/>
      </g>
     </g>
    </g>
    <g id="xtick_9">
     <g id="line2d_17">
      <path d="M 256.24 274.84 
L 256.24 20.16 
" clip-path="url(#p1b83e5871c)" style="fill: none; stroke: #b0b0b0; stroke-opacity: 0.4; stroke-width: 0.8; stroke-linecap: square"/>
     </g>
     <g id="line2d_18">
      <g>
       <use xlink:href="#mb4071e938d" x="256.24" y="274.84" style="stroke: #000000; stroke-width: 0.6"/>
      </g>
     </g>
    </g>
    <g id="xtick_10">
     <g id="line2d_19">
      <path d="M 327.264 274.84 
L 327.264 20.16 
" clip-path="url(#p1b83e5871c)" style="fill: none; stroke: #b0b0b0; stroke-opacity: 0.4; stroke-width: 0.8; stroke-linecap: square"/>
     </g>
     <g id="line2d_20">
      <g>
       <use xlink:href="#mb4071e938d" x="327.264" y="274.84" style="stroke: #000000; stroke-width: 0.6"/>
      </g>
     </g>
    </g>
    <g id="xtick_11">
     <g id="line2d_21">
      <path d="M 398.288 274.84 
L 398.288 20.16 
" clip-path="url(#p1b83e5871c)" style="fill: none; stroke: #b0b0b0; stroke-opacity: 0.4; stroke-width: 0.8; stroke-linecap: square"/>
     </g>
     <g id="line2d_22">
      <g>
       <use xlink:href="#mb4071e938d" x="398.288" y="274.84" style="stroke: #000000; stroke-width: 0.6"/>
      </g>
     </g>
    </g>
    <g id="text_7">
     <!-- Error(m) -->
     <g transform="translate(210.045313 327.509062) scale(0.26 -0.26)">
      <defs>
       <path id="TimesNewRomanPSMT-45" d="M 1338 4006 
L 1338 2331 
L 2269 2331 
Q 2631 2331 2753 2441 
Q 2916 2584 2934 2947 
L 3050 2947 
L 3050 1472 
L 2934 1472 
Q 2891 1781 2847 1869 
Q 2791 1978 2662 2040 
Q 2534 2103 2269 2103 
L 1338 2103 
L 1338 706 
Q 1338 425 1363 364 
Q 1388 303 1450 267 
Q 1513 231 1688 231 
L 2406 231 
Q 2766 231 2928 281 
Q 3091 331 3241 478 
Q 3434 672 3638 1063 
L 3763 1063 
L 3397 0 
L 131 0 
L 131 116 
L 281 116 
Q 431 116 566 188 
Q 666 238 702 338 
Q 738 438 738 747 
L 738 3500 
Q 738 3903 656 3997 
Q 544 4122 281 4122 
L 131 4122 
L 131 4238 
L 3397 4238 
L 3444 3309 
L 3322 3309 
Q 3256 3644 3176 3769 
Q 3097 3894 2941 3959 
Q 2816 4006 2500 4006 
L 1338 4006 
z
" transform="scale(0.015625)"/>
       <path id="TimesNewRomanPSMT-72" d="M 1038 2947 
L 1038 2303 
Q 1397 2947 1775 2947 
Q 1947 2947 2059 2842 
Q 2172 2738 2172 2600 
Q 2172 2478 2090 2393 
Q 2009 2309 1897 2309 
Q 1788 2309 1652 2417 
Q 1516 2525 1450 2525 
Q 1394 2525 1328 2463 
Q 1188 2334 1038 2041 
L 1038 669 
Q 1038 431 1097 309 
Q 1138 225 1241 169 
Q 1344 113 1538 113 
L 1538 0 
L 72 0 
L 72 113 
Q 291 113 397 181 
Q 475 231 506 341 
Q 522 394 522 644 
L 522 1753 
Q 522 2253 501 2348 
Q 481 2444 426 2487 
Q 372 2531 291 2531 
Q 194 2531 72 2484 
L 41 2597 
L 906 2947 
L 1038 2947 
z
" transform="scale(0.015625)"/>
       <path id="TimesNewRomanPSMT-6f" d="M 1600 2947 
Q 2250 2947 2644 2453 
Q 2978 2031 2978 1484 
Q 2978 1100 2793 706 
Q 2609 313 2286 112 
Q 1963 -88 1566 -88 
Q 919 -88 538 428 
Q 216 863 216 1403 
Q 216 1797 411 2186 
Q 606 2575 925 2761 
Q 1244 2947 1600 2947 
z
M 1503 2744 
Q 1338 2744 1170 2645 
Q 1003 2547 900 2300 
Q 797 2053 797 1666 
Q 797 1041 1045 587 
Q 1294 134 1700 134 
Q 2003 134 2200 384 
Q 2397 634 2397 1244 
Q 2397 2006 2069 2444 
Q 1847 2744 1503 2744 
z
" transform="scale(0.015625)"/>
       <path id="TimesNewRomanPSMT-28" d="M 1988 -1253 
L 1988 -1369 
Q 1516 -1131 1200 -813 
Q 750 -359 506 256 
Q 263 872 263 1534 
Q 263 2503 741 3301 
Q 1219 4100 1988 4444 
L 1988 4313 
Q 1603 4100 1356 3731 
Q 1109 3363 987 2797 
Q 866 2231 866 1616 
Q 866 947 969 400 
Q 1050 -31 1165 -292 
Q 1281 -553 1476 -793 
Q 1672 -1034 1988 -1253 
z
" transform="scale(0.015625)"/>
       <path id="TimesNewRomanPSMT-6d" d="M 1050 2338 
Q 1363 2650 1419 2697 
Q 1559 2816 1721 2881 
Q 1884 2947 2044 2947 
Q 2313 2947 2506 2790 
Q 2700 2634 2766 2338 
Q 3088 2713 3309 2830 
Q 3531 2947 3766 2947 
Q 3994 2947 4170 2830 
Q 4347 2713 4450 2447 
Q 4519 2266 4519 1878 
L 4519 647 
Q 4519 378 4559 278 
Q 4591 209 4675 161 
Q 4759 113 4950 113 
L 4950 0 
L 3538 0 
L 3538 113 
L 3597 113 
Q 3781 113 3884 184 
Q 3956 234 3988 344 
Q 4000 397 4000 647 
L 4000 1878 
Q 4000 2228 3916 2372 
Q 3794 2572 3525 2572 
Q 3359 2572 3192 2489 
Q 3025 2406 2788 2181 
L 2781 2147 
L 2788 2013 
L 2788 647 
Q 2788 353 2820 281 
Q 2853 209 2943 161 
Q 3034 113 3253 113 
L 3253 0 
L 1806 0 
L 1806 113 
Q 2044 113 2133 169 
Q 2222 225 2256 338 
Q 2272 391 2272 647 
L 2272 1878 
Q 2272 2228 2169 2381 
Q 2031 2581 1784 2581 
Q 1616 2581 1450 2491 
Q 1191 2353 1050 2181 
L 1050 647 
Q 1050 366 1089 281 
Q 1128 197 1204 155 
Q 1281 113 1516 113 
L 1516 0 
L 100 0 
L 100 113 
Q 297 113 375 155 
Q 453 197 493 289 
Q 534 381 534 647 
L 534 1741 
Q 534 2213 506 2350 
Q 484 2453 437 2492 
Q 391 2531 309 2531 
Q 222 2531 100 2484 
L 53 2597 
L 916 2947 
L 1050 2947 
L 1050 2338 
z
" transform="scale(0.015625)"/>
       <path id="TimesNewRomanPSMT-29" d="M 144 4313 
L 144 4444 
Q 619 4209 934 3891 
Q 1381 3434 1625 2820 
Q 1869 2206 1869 1541 
Q 1869 572 1392 -226 
Q 916 -1025 144 -1369 
L 144 -1253 
Q 528 -1038 776 -670 
Q 1025 -303 1145 264 
Q 1266 831 1266 1447 
Q 1266 2113 1163 2663 
Q 1084 3094 967 3353 
Q 850 3613 656 3853 
Q 463 4094 144 4313 
z
" transform="scale(0.015625)"/>
      </defs>
      <use xlink:href="#TimesNewRomanPSMT-45"/>
      <use xlink:href="#TimesNewRomanPSMT-72" transform="translate(61.083984 0)"/>
      <use xlink:href="#TimesNewRomanPSMT-72" transform="translate(94.384766 0)"/>
      <use xlink:href="#TimesNewRomanPSMT-6f" transform="translate(127.685547 0)"/>
      <use xlink:href="#TimesNewRomanPSMT-72" transform="translate(177.685547 0)"/>
      <use xlink:href="#TimesNewRomanPSMT-28" transform="translate(210.986328 0)"/>
      <use xlink:href="#TimesNewRomanPSMT-6d" transform="translate(244.287109 0)"/>
      <use xlink:href="#TimesNewRomanPSMT-29" transform="translate(322.070312 0)"/>
     </g>
    </g>
   </g>
   <g id="matplotlib.axis_2">
    <g id="ytick_1">
     <g id="line2d_23">
      <path d="M 78.68 274.84 
L 433.8 274.84 
" clip-path="url(#p1b83e5871c)" style="fill: none; stroke: #b0b0b0; stroke-opacity: 0.4; stroke-width: 0.8; stroke-linecap: square"/>
     </g>
     <g id="line2d_24">
      <defs>
       <path id="meea01a807e" d="M 0 0 
L -3.5 0 
" style="stroke: #000000; stroke-width: 0.8"/>
      </defs>
      <g>
       <use xlink:href="#meea01a807e" x="78.68" y="274.84" style="stroke: #000000; stroke-width: 0.8"/>
      </g>
     </g>
     <g id="text_8">
      <!-- 0.0 -->
      <g transform="translate(39.18 283.866875) scale(0.26 -0.26)">
       <use xlink:href="#TimesNewRomanPSMT-30"/>
       <use xlink:href="#TimesNewRomanPSMT-2e" transform="translate(50 0)"/>
       <use xlink:href="#TimesNewRomanPSMT-30" transform="translate(75 0)"/>
      </g>
     </g>
    </g>
    <g id="ytick_2">
     <g id="line2d_25">
      <path d="M 78.68 223.904 
L 433.8 223.904 
" clip-path="url(#p1b83e5871c)" style="fill: none; stroke: #b0b0b0; stroke-opacity: 0.4; stroke-width: 0.8; stroke-linecap: square"/>
     </g>
     <g id="line2d_26">
      <g>
       <use xlink:href="#meea01a807e" x="78.68" y="223.904" style="stroke: #000000; stroke-width: 0.8"/>
      </g>
     </g>
     <g id="text_9">
      <!-- 0.2 -->
      <g transform="translate(39.18 232.930875) scale(0.26 -0.26)">
       <use xlink:href="#TimesNewRomanPSMT-30"/>
       <use xlink:href="#TimesNewRomanPSMT-2e" transform="translate(50 0)"/>
       <use xlink:href="#TimesNewRomanPSMT-32" transform="translate(75 0)"/>
      </g>
     </g>
    </g>
    <g id="ytick_3">
     <g id="line2d_27">
      <path d="M 78.68 172.968 
L 433.8 172.968 
" clip-path="url(#p1b83e5871c)" style="fill: none; stroke: #b0b0b0; stroke-opacity: 0.4; stroke-width: 0.8; stroke-linecap: square"/>
     </g>
     <g id="line2d_28">
      <g>
       <use xlink:href="#meea01a807e" x="78.68" y="172.968" style="stroke: #000000; stroke-width: 0.8"/>
      </g>
     </g>
     <g id="text_10">
      <!-- 0.4 -->
      <g transform="translate(39.18 181.994875) scale(0.26 -0.26)">
       <use xlink:href="#TimesNewRomanPSMT-30"/>
       <use xlink:href="#TimesNewRomanPSMT-2e" transform="translate(50 0)"/>
       <use xlink:href="#TimesNewRomanPSMT-34" transform="translate(75 0)"/>
      </g>
     </g>
    </g>
    <g id="ytick_4">
     <g id="line2d_29">
      <path d="M 78.68 122.032 
L 433.8 122.032 
" clip-path="url(#p1b83e5871c)" style="fill: none; stroke: #b0b0b0; stroke-opacity: 0.4; stroke-width: 0.8; stroke-linecap: square"/>
     </g>
     <g id="line2d_30">
      <g>
       <use xlink:href="#meea01a807e" x="78.68" y="122.032" style="stroke: #000000; stroke-width: 0.8"/>
      </g>
     </g>
     <g id="text_11">
      <!-- 0.6 -->
      <g transform="translate(39.18 131.058875) scale(0.26 -0.26)">
       <use xlink:href="#TimesNewRomanPSMT-30"/>
       <use xlink:href="#TimesNewRomanPSMT-2e" transform="translate(50 0)"/>
       <use xlink:href="#TimesNewRomanPSMT-36" transform="translate(75 0)"/>
      </g>
     </g>
    </g>
    <g id="ytick_5">
     <g id="line2d_31">
      <path d="M 78.68 71.096 
L 433.8 71.096 
" clip-path="url(#p1b83e5871c)" style="fill: none; stroke: #b0b0b0; stroke-opacity: 0.4; stroke-width: 0.8; stroke-linecap: square"/>
     </g>
     <g id="line2d_32">
      <g>
       <use xlink:href="#meea01a807e" x="78.68" y="71.096" style="stroke: #000000; stroke-width: 0.8"/>
      </g>
     </g>
     <g id="text_12">
      <!-- 0.8 -->
      <g transform="translate(39.18 80.122875) scale(0.26 -0.26)">
       <use xlink:href="#TimesNewRomanPSMT-30"/>
       <use xlink:href="#TimesNewRomanPSMT-2e" transform="translate(50 0)"/>
       <use xlink:href="#TimesNewRomanPSMT-38" transform="translate(75 0)"/>
      </g>
     </g>
    </g>
    <g id="ytick_6">
     <g id="line2d_33">
      <path d="M 78.68 20.16 
L 433.8 20.16 
" clip-path="url(#p1b83e5871c)" style="fill: none; stroke: #b0b0b0; stroke-opacity: 0.4; stroke-width: 0.8; stroke-linecap: square"/>
     </g>
     <g id="line2d_34">
      <g>
       <use xlink:href="#meea01a807e" x="78.68" y="20.16" style="stroke: #000000; stroke-width: 0.8"/>
      </g>
     </g>
     <g id="text_13">
      <!-- 1.0 -->
      <g transform="translate(39.18 29.186875) scale(0.26 -0.26)">
       <use xlink:href="#TimesNewRomanPSMT-31"/>
       <use xlink:href="#TimesNewRomanPSMT-2e" transform="translate(50 0)"/>
       <use xlink:href="#TimesNewRomanPSMT-30" transform="translate(75 0)"/>
      </g>
     </g>
    </g>
    <g id="text_14">
     <!-- CDF -->
     <g transform="translate(29.618438 172.789062) rotate(-90) scale(0.26 -0.26)">
      <defs>
       <path id="TimesNewRomanPSMT-43" d="M 3853 4334 
L 3950 2894 
L 3853 2894 
Q 3659 3541 3300 3825 
Q 2941 4109 2438 4109 
Q 2016 4109 1675 3895 
Q 1334 3681 1139 3212 
Q 944 2744 944 2047 
Q 944 1472 1128 1050 
Q 1313 628 1683 403 
Q 2053 178 2528 178 
Q 2941 178 3256 354 
Q 3572 531 3950 1056 
L 4047 994 
Q 3728 428 3303 165 
Q 2878 -97 2294 -97 
Q 1241 -97 663 684 
Q 231 1266 231 2053 
Q 231 2688 515 3219 
Q 800 3750 1298 4042 
Q 1797 4334 2388 4334 
Q 2847 4334 3294 4109 
Q 3425 4041 3481 4041 
Q 3566 4041 3628 4100 
Q 3709 4184 3744 4334 
L 3853 4334 
z
" transform="scale(0.015625)"/>
       <path id="TimesNewRomanPSMT-44" d="M 109 0 
L 109 116 
L 269 116 
Q 538 116 650 288 
Q 719 391 719 750 
L 719 3488 
Q 719 3884 631 3984 
Q 509 4122 269 4122 
L 109 4122 
L 109 4238 
L 1834 4238 
Q 2784 4238 3279 4022 
Q 3775 3806 4076 3303 
Q 4378 2800 4378 2141 
Q 4378 1256 3841 663 
Q 3238 0 2003 0 
L 109 0 
z
M 1319 306 
Q 1716 219 1984 219 
Q 2709 219 3187 728 
Q 3666 1238 3666 2109 
Q 3666 2988 3187 3494 
Q 2709 4000 1959 4000 
Q 1678 4000 1319 3909 
L 1319 306 
z
" transform="scale(0.015625)"/>
       <path id="TimesNewRomanPSMT-46" d="M 1309 4006 
L 1309 2341 
L 2081 2341 
Q 2347 2341 2470 2458 
Q 2594 2575 2634 2922 
L 2750 2922 
L 2750 1488 
L 2634 1488 
Q 2631 1734 2570 1850 
Q 2509 1966 2401 2023 
Q 2294 2081 2081 2081 
L 1309 2081 
L 1309 750 
Q 1309 428 1350 325 
Q 1381 247 1481 191 
Q 1619 116 1769 116 
L 1922 116 
L 1922 0 
L 103 0 
L 103 116 
L 253 116 
Q 516 116 634 269 
Q 709 369 709 750 
L 709 3488 
Q 709 3809 669 3913 
Q 638 3991 541 4047 
Q 406 4122 253 4122 
L 103 4122 
L 103 4238 
L 3256 4238 
L 3297 3306 
L 3188 3306 
Q 3106 3603 2998 3742 
Q 2891 3881 2733 3943 
Q 2575 4006 2244 4006 
L 1309 4006 
z
" transform="scale(0.015625)"/>
      </defs>
      <use xlink:href="#TimesNewRomanPSMT-43"/>
      <use xlink:href="#TimesNewRomanPSMT-44" transform="translate(66.699219 0)"/>
      <use xlink:href="#TimesNewRomanPSMT-46" transform="translate(138.916016 0)"/>
     </g>
    </g>
   </g>
   <g id="line2d_35">
    <path d="M 78.688927 273.765401 
L 78.688927 272.690802 
L 78.864933 272.690802 
L 78.864933 271.616203 
L 79.303239 271.616203 
L 79.303239 270.541603 
L 80.728678 270.541603 
L 80.728678 269.467004 
L 81.033627 269.467004 
L 81.046861 267.317806 
L 81.486049 267.317806 
L 81.551919 265.168608 
L 81.839162 265.168608 
L 81.839162 264.094008 
L 82.293231 264.094008 
L 82.293231 263.019409 
L 82.706033 263.019409 
L 82.706033 261.94481 
L 82.885697 261.94481 
L 82.885697 260.870211 
L 83.93476 260.870211 
L 83.93476 259.795612 
L 85.356999 259.795612 
L 85.356999 258.721013 
L 85.523983 258.721013 
L 85.523983 257.646414 
L 86.290112 257.646414 
L 86.290112 256.571814 
L 86.575299 256.571814 
L 86.575299 255.497215 
L 87.146564 255.497215 
L 87.146564 254.422616 
L 87.515493 254.422616 
L 87.515493 252.273418 
L 87.69987 252.273418 
L 87.723021 250.124219 
L 88.232222 250.124219 
L 88.252652 247.975021 
L 88.482824 247.975021 
L 88.482824 246.900422 
L 88.913189 246.900422 
L 88.913189 245.825823 
L 89.231631 245.825823 
L 89.231631 244.751224 
L 90.091476 244.751224 
L 90.12998 242.602025 
L 90.83681 242.602025 
L 90.83681 241.527426 
L 91.020113 241.527426 
L 91.020113 240.452827 
L 91.85709 240.452827 
L 91.85709 239.378228 
L 92.502922 239.378228 
L 92.58448 237.22903 
L 92.656077 237.22903 
L 92.656077 236.15443 
L 93.890886 236.15443 
L 93.890886 235.079831 
L 94.348446 235.079831 
L 94.407677 232.930633 
L 94.480995 232.930633 
L 94.480995 231.856034 
L 95.468408 231.856034 
L 95.468408 230.781435 
L 96.34842 230.781435 
L 96.34842 229.706835 
L 96.481749 229.706835 
L 96.525975 226.483038 
L 96.679384 226.483038 
L 96.696363 224.33384 
L 97.126894 224.33384 
L 97.126894 223.259241 
L 97.751337 223.259241 
L 97.841914 220.035443 
L 98.00752 220.035443 
L 98.00752 218.960844 
L 98.290599 218.960844 
L 98.290599 217.886245 
L 99.019767 217.886245 
L 99.019767 216.811646 
L 99.512724 216.811646 
L 99.512724 215.737046 
L 99.89267 215.737046 
L 99.89267 214.662447 
L 100.282095 214.662447 
L 100.367427 212.513249 
L 100.432196 212.513249 
L 100.510305 210.364051 
L 100.724538 210.364051 
L 100.724538 209.289451 
L 100.961863 209.289451 
L 100.961863 208.214852 
L 101.271562 208.214852 
L 101.271562 207.140253 
L 101.451652 207.140253 
L 101.543278 203.916456 
L 101.728589 203.916456 
L 101.728589 202.841857 
L 101.93661 202.841857 
L 101.93661 201.767257 
L 102.683615 201.767257 
L 102.683615 200.692658 
L 102.861291 200.692658 
L 102.932342 198.54346 
L 103.145426 198.54346 
L 103.250423 193.170464 
L 103.340131 193.170464 
L 103.340131 192.095865 
L 103.525364 192.095865 
L 103.525364 191.021266 
L 103.677696 191.021266 
L 103.677696 189.946667 
L 103.854356 189.946667 
L 103.854356 188.872068 
L 104.374436 188.872068 
L 104.374436 187.797468 
L 104.540666 187.797468 
L 104.540666 186.722869 
L 104.917205 186.722869 
L 104.975968 184.573671 
L 105.310116 184.573671 
L 105.310116 182.424473 
L 105.615035 182.424473 
L 105.615035 181.349873 
L 105.906345 181.349873 
L 105.976914 178.126076 
L 106.029735 178.126076 
L 106.099084 175.976878 
L 106.143798 175.976878 
L 106.143798 174.902278 
L 106.381767 174.902278 
L 106.482333 171.678481 
L 106.560179 171.678481 
L 106.560179 170.603882 
L 106.893298 170.603882 
L 106.975446 167.380084 
L 107.56095 167.380084 
L 107.56095 166.305485 
L 107.704606 166.305485 
L 107.807477 164.156287 
L 108.088807 164.156287 
L 108.088807 163.081688 
L 108.268484 163.081688 
L 108.268484 160.932489 
L 108.482216 160.932489 
L 108.482216 158.783291 
L 108.782888 158.783291 
L 108.782888 157.708692 
L 109.677827 157.708692 
L 109.677827 156.634093 
L 109.791006 156.634093 
L 109.84108 154.484895 
L 109.911027 154.484895 
L 109.987055 151.261097 
L 110.423523 151.261097 
L 110.423523 150.186498 
L 110.825158 150.186498 
L 110.825158 149.111899 
L 111.051216 149.111899 
L 111.138694 144.813502 
L 111.237919 144.813502 
L 111.237919 142.664304 
L 111.595689 142.664304 
L 111.595689 141.589705 
L 111.852284 141.589705 
L 111.852284 140.515105 
L 112.048304 140.515105 
L 112.048304 139.440506 
L 112.288481 139.440506 
L 112.288481 138.365907 
L 112.769347 138.365907 
L 112.769347 137.291308 
L 113.565665 137.291308 
L 113.578724 135.14211 
L 113.741122 135.14211 
L 113.83183 132.992911 
L 113.923668 132.992911 
L 114.002713 128.694515 
L 114.286918 128.694515 
L 114.286918 127.619916 
L 114.690896 127.619916 
L 114.690896 125.470717 
L 115.39663 125.470717 
L 115.39663 124.396118 
L 115.633835 124.396118 
L 115.678229 122.24692 
L 115.839268 122.24692 
L 115.839268 121.172321 
L 116.159413 121.172321 
L 116.159413 120.097722 
L 116.675848 120.097722 
L 116.675848 119.023122 
L 116.803418 119.023122 
L 116.903665 115.799325 
L 117.372958 115.799325 
L 117.372958 114.724726 
L 117.50448 114.724726 
L 117.50448 113.650127 
L 117.687069 113.650127 
L 117.687069 112.575527 
L 118.203991 112.575527 
L 118.204378 110.426329 
L 118.362088 110.426329 
L 118.362088 109.35173 
L 118.901956 109.35173 
L 118.90976 106.127932 
L 119.491336 106.127932 
L 119.598376 103.978734 
L 119.648061 103.978734 
L 119.686424 101.829536 
L 119.800401 101.829536 
L 119.89637 98.605738 
L 120.244626 98.605738 
L 120.342832 96.45654 
L 120.469428 96.45654 
L 120.469428 95.381941 
L 120.9866 95.381941 
L 120.9866 94.307342 
L 121.347034 94.307342 
L 121.448353 92.158143 
L 122.055548 92.158143 
L 122.055548 91.083544 
L 122.368691 91.083544 
L 122.368691 86.785148 
L 122.590242 86.785148 
L 122.590242 85.710549 
L 123.057445 85.710549 
L 123.167921 82.486751 
L 123.773541 82.486751 
L 123.773541 81.412152 
L 124.118075 81.412152 
L 124.118075 80.337553 
L 124.234623 80.337553 
L 124.234623 79.262954 
L 124.723797 79.262954 
L 124.723797 78.188354 
L 125.11458 78.188354 
L 125.11458 76.039156 
L 125.244731 76.039156 
L 125.244731 74.964557 
L 125.588335 74.964557 
L 125.628947 72.815359 
L 126.089376 72.815359 
L 126.180342 70.66616 
L 126.478432 70.66616 
L 126.478432 69.591561 
L 127.055343 69.591561 
L 127.158097 67.442363 
L 127.303543 67.442363 
L 127.303543 66.367764 
L 127.836258 66.367764 
L 127.836258 65.293165 
L 128.061979 65.293165 
L 128.061979 64.218565 
L 128.205715 64.218565 
L 128.205715 63.143966 
L 128.519106 63.143966 
L 128.609464 59.920169 
L 128.978987 59.920169 
L 128.978987 58.84557 
L 129.597425 58.84557 
L 129.597425 57.77097 
L 129.979632 57.77097 
L 129.979632 55.621772 
L 130.533939 55.621772 
L 130.533939 54.547173 
L 130.988923 54.547173 
L 130.988923 53.472574 
L 131.436928 53.472574 
L 131.436928 49.174177 
L 131.804827 49.174177 
L 131.804827 48.099578 
L 132.417781 48.099578 
L 132.417781 45.95038 
L 132.583494 45.95038 
L 132.583494 44.875781 
L 134.186482 44.875781 
L 134.186482 43.801181 
L 134.306479 43.801181 
L 134.341858 41.651983 
L 134.560829 41.651983 
L 134.560829 40.577384 
L 134.857418 40.577384 
L 134.857418 39.502785 
L 137.440043 39.502785 
L 137.547506 37.353586 
L 137.617683 37.353586 
L 137.714726 35.204388 
L 138.675207 35.204388 
L 138.675207 33.05519 
L 139.166166 33.05519 
L 139.166166 31.980591 
L 140.369605 31.980591 
L 140.369605 30.905992 
L 146.297281 30.905992 
L 146.297281 29.831392 
L 147.705302 29.831392 
L 147.705302 28.756793 
L 153.858402 28.756793 
L 153.858402 27.682194 
L 156.824167 27.682194 
L 156.824167 26.607595 
L 157.123983 26.607595 
L 157.123983 25.532996 
L 158.521248 25.532996 
L 158.521248 24.458397 
L 159.915422 24.458397 
L 159.915422 23.383797 
L 160.031464 23.383797 
L 160.031464 22.309198 
L 160.670293 22.309198 
L 160.670293 21.234599 
L 176.21319 21.234599 
L 176.21319 20.16 
L 181.807477 20.16 
L 181.807477 20.16 
" clip-path="url(#p1b83e5871c)" style="fill: none; stroke: #4586bd; stroke-width: 4; stroke-linecap: square"/>
   </g>
   <g id="line2d_36">
    <path d="M 96.037993 273.765401 
L 96.037993 272.690802 
L 102.695036 272.690802 
L 102.695036 271.616203 
L 104.060302 271.616203 
L 104.060302 270.541603 
L 108.614558 270.541603 
L 108.614558 269.467004 
L 110.429395 269.467004 
L 110.429395 268.392405 
L 113.020246 268.392405 
L 113.020246 267.317806 
L 118.791455 267.317806 
L 118.791455 265.168608 
L 119.430124 265.168608 
L 119.430124 264.094008 
L 120.084035 264.094008 
L 120.084035 263.019409 
L 121.107686 263.019409 
L 121.107686 261.94481 
L 121.568885 261.94481 
L 121.568885 260.870211 
L 123.252815 260.870211 
L 123.252815 259.795612 
L 123.635874 259.795612 
L 123.648316 256.571814 
L 124.125994 256.571814 
L 124.125994 255.497215 
L 125.68918 255.497215 
L 125.68918 254.422616 
L 125.946276 254.422616 
L 125.946276 253.348017 
L 126.37059 253.348017 
L 126.37059 250.124219 
L 127.050493 250.124219 
L 127.050493 249.04962 
L 128.36598 249.04962 
L 128.36598 247.975021 
L 128.695433 247.975021 
L 128.695433 246.900422 
L 128.936591 246.900422 
L 128.936591 245.825823 
L 129.081194 245.825823 
L 129.081194 243.676624 
L 129.370195 243.676624 
L 129.370195 242.602025 
L 129.755103 242.602025 
L 129.755103 240.452827 
L 130.427521 240.452827 
L 130.427521 239.378228 
L 131.154296 239.378228 
L 131.154296 238.303629 
L 131.767899 238.303629 
L 131.863413 234.005232 
L 132.435866 234.005232 
L 132.435866 232.930633 
L 133.102355 232.930633 
L 133.102355 231.856034 
L 133.76737 231.856034 
L 133.76737 229.706835 
L 134.430915 229.706835 
L 134.478255 227.557637 
L 134.714842 227.557637 
L 134.714842 226.483038 
L 135.140227 226.483038 
L 135.140227 225.408439 
L 135.753605 225.408439 
L 135.753605 224.33384 
L 136.727276 224.33384 
L 136.727276 223.259241 
L 137.070451 223.259241 
L 137.070451 218.960844 
L 137.281544 218.960844 
L 137.281544 217.886245 
L 137.646065 217.886245 
L 137.726691 215.737046 
L 137.789114 215.737046 
L 137.789114 214.662447 
L 138.3011 214.662447 
L 138.3011 213.587848 
L 138.848298 213.587848 
L 138.848298 212.513249 
L 139.31438 212.513249 
L 139.31438 211.43865 
L 139.477555 211.43865 
L 139.477555 210.364051 
L 139.686715 210.364051 
L 139.686715 208.214852 
L 139.810722 208.214852 
L 139.810722 207.140253 
L 140.176801 207.140253 
L 140.176801 206.065654 
L 140.615494 206.065654 
L 140.615494 204.991055 
L 140.986183 204.991055 
L 140.986183 203.916456 
L 141.633763 203.916456 
L 141.69063 201.767257 
L 141.772344 201.767257 
L 141.772344 200.692658 
L 142.279911 200.692658 
L 142.279911 199.618059 
L 142.494976 199.618059 
L 142.494976 198.54346 
L 143.016615 198.54346 
L 143.016615 197.468861 
L 143.439615 197.468861 
L 143.439615 196.394262 
L 144.09625 196.394262 
L 144.09625 195.319662 
L 144.850242 195.319662 
L 144.850242 194.245063 
L 145.309855 194.245063 
L 145.309855 193.170464 
L 145.43852 193.170464 
L 145.43852 192.095865 
L 145.631443 192.095865 
L 145.631443 191.021266 
L 146.124053 191.021266 
L 146.124053 189.946667 
L 146.722947 189.946667 
L 146.722947 188.872068 
L 147.395646 188.872068 
L 147.395646 187.797468 
L 147.555647 187.797468 
L 147.61963 185.64827 
L 147.779145 185.64827 
L 147.811519 182.424473 
L 148.290842 182.424473 
L 148.290842 181.349873 
L 149.407053 181.349873 
L 149.407053 180.275274 
L 150.297801 180.275274 
L 150.361351 177.051477 
L 150.742436 177.051477 
L 150.816494 174.902278 
L 151.186579 174.902278 
L 151.260555 171.678481 
L 152.263167 171.678481 
L 152.263167 170.603882 
L 153.694123 170.603882 
L 153.694123 169.529283 
L 153.841137 169.529283 
L 153.904126 167.380084 
L 155.099028 167.380084 
L 155.099028 165.230886 
L 156.478121 165.230886 
L 156.478121 164.156287 
L 157.35323 164.156287 
L 157.35323 163.081688 
L 159.097648 163.081688 
L 159.097648 162.007089 
L 159.242667 162.007089 
L 159.242667 160.932489 
L 159.791881 160.932489 
L 159.791881 159.85789 
L 160.114872 159.85789 
L 160.114872 157.708692 
L 160.27629 157.708692 
L 160.27629 156.634093 
L 160.760239 156.634093 
L 160.760239 155.559494 
L 160.961749 155.559494 
L 160.961749 154.484895 
L 161.514536 154.484895 
L 161.514536 153.410295 
L 162.370091 153.410295 
L 162.370091 152.335696 
L 162.707136 152.335696 
L 162.809776 150.186498 
L 162.871346 150.186498 
L 162.871346 149.111899 
L 163.209812 149.111899 
L 163.209812 148.0373 
L 164.615347 148.0373 
L 164.615347 146.9627 
L 166.213025 146.9627 
L 166.213025 145.888101 
L 167.964644 145.888101 
L 167.964644 143.738903 
L 168.555085 143.738903 
L 168.555085 142.664304 
L 169.076142 142.664304 
L 169.15544 139.440506 
L 171.291768 139.440506 
L 171.291768 138.365907 
L 171.603783 138.365907 
L 171.603783 137.291308 
L 172.395908 137.291308 
L 172.395908 135.14211 
L 173.890479 135.14211 
L 173.969016 132.992911 
L 175.693697 132.992911 
L 175.693697 130.843713 
L 176.423569 130.843713 
L 176.423569 129.769114 
L 176.631906 129.769114 
L 176.631906 128.694515 
L 176.788102 128.694515 
L 176.788102 127.619916 
L 177.880086 127.619916 
L 177.880086 126.545316 
L 180.522004 126.545316 
L 180.522004 125.470717 
L 181.592842 125.470717 
L 181.592842 124.396118 
L 183.303888 124.396118 
L 183.303888 123.321519 
L 186.529466 123.321519 
L 186.529466 122.24692 
L 187.599906 122.24692 
L 187.599906 121.172321 
L 187.883814 121.172321 
L 187.883814 120.097722 
L 189.73369 120.097722 
L 189.822392 117.948523 
L 190.560151 117.948523 
L 190.560151 116.873924 
L 191.218706 116.873924 
L 191.327838 114.724726 
L 191.858046 114.724726 
L 191.858046 113.650127 
L 193.712372 113.650127 
L 193.712372 112.575527 
L 196.679424 112.575527 
L 196.742804 110.426329 
L 198.174964 110.426329 
L 198.174964 109.35173 
L 199.715553 109.35173 
L 199.715553 108.277131 
L 200.623353 108.277131 
L 200.623353 107.202532 
L 201.079417 107.202532 
L 201.094932 105.053333 
L 201.302095 105.053333 
L 201.302095 103.978734 
L 201.561753 103.978734 
L 201.561753 102.904135 
L 201.942466 102.904135 
L 201.942466 101.829536 
L 202.066222 101.829536 
L 202.066222 100.754937 
L 202.736118 100.754937 
L 202.736118 98.605738 
L 203.978308 98.605738 
L 204.032507 96.45654 
L 204.415209 96.45654 
L 204.415209 95.381941 
L 205.418315 95.381941 
L 205.418315 94.307342 
L 206.745621 94.307342 
L 206.745621 93.232743 
L 206.886609 93.232743 
L 206.886609 92.158143 
L 207.681532 92.158143 
L 207.681532 91.083544 
L 211.111571 91.083544 
L 211.111571 90.008945 
L 211.577117 90.008945 
L 211.577117 88.934346 
L 212.922348 88.934346 
L 212.922348 87.859747 
L 213.185844 87.859747 
L 213.185844 86.785148 
L 213.995672 86.785148 
L 213.995672 85.710549 
L 215.990259 85.710549 
L 215.990259 84.635949 
L 216.206106 84.635949 
L 216.206106 83.56135 
L 217.472706 83.56135 
L 217.472706 82.486751 
L 218.173321 82.486751 
L 218.173321 81.412152 
L 218.66356 81.412152 
L 218.736505 79.262954 
L 219.727528 79.262954 
L 219.727528 78.188354 
L 219.997508 78.188354 
L 219.997508 76.039156 
L 220.926459 76.039156 
L 220.926459 74.964557 
L 221.255722 74.964557 
L 221.255723 72.815359 
L 222.511155 72.815359 
L 222.511155 68.516962 
L 223.348533 68.516962 
L 223.348533 67.442363 
L 223.600865 67.442363 
L 223.600865 66.367764 
L 223.819562 66.367764 
L 223.819562 65.293165 
L 225.013696 65.293165 
L 225.013696 64.218565 
L 226.330643 64.218565 
L 226.330643 63.143966 
L 227.682721 63.143966 
L 227.740983 60.994768 
L 227.919356 60.994768 
L 227.919356 59.920169 
L 228.746791 59.920169 
L 228.746791 57.77097 
L 229.127841 57.77097 
L 229.127841 56.696371 
L 231.127684 56.696371 
L 231.127684 55.621772 
L 239.01743 55.621772 
L 239.01743 54.547173 
L 239.205868 54.547173 
L 239.205868 53.472574 
L 239.639205 53.472574 
L 239.639205 52.397975 
L 243.112078 52.397975 
L 243.112078 51.323376 
L 244.381766 51.323376 
L 244.381766 50.248776 
L 244.640052 50.248776 
L 244.640052 49.174177 
L 245.843768 49.174177 
L 245.843768 48.099578 
L 247.044822 48.099578 
L 247.14479 45.95038 
L 247.396293 45.95038 
L 247.396293 44.875781 
L 247.518034 44.875781 
L 247.518034 43.801181 
L 248.439059 43.801181 
L 248.439059 42.726582 
L 249.46284 42.726582 
L 249.46284 41.651983 
L 250.519652 41.651983 
L 250.519652 40.577384 
L 255.146743 40.577384 
L 255.146743 39.502785 
L 257.544645 39.502785 
L 257.544645 38.428186 
L 257.701423 38.428186 
L 257.701423 37.353586 
L 260.97357 37.353586 
L 260.97357 36.278987 
L 261.085031 36.278987 
L 261.085031 35.204388 
L 263.273477 35.204388 
L 263.273477 34.129789 
L 264.111349 34.129789 
L 264.111349 33.05519 
L 265.455029 33.05519 
L 265.455029 31.980591 
L 265.611732 31.980591 
L 265.611732 30.905992 
L 265.904401 30.905992 
L 265.904401 29.831392 
L 266.118924 29.831392 
L 266.118924 27.682194 
L 267.715867 27.682194 
L 267.715867 26.607595 
L 270.363538 26.607595 
L 270.363538 25.532996 
L 271.323207 25.532996 
L 271.323207 24.458397 
L 275.348587 24.458397 
L 275.348587 23.383797 
L 278.545543 23.383797 
L 278.545543 22.309198 
L 278.768655 22.309198 
L 278.768655 21.234599 
L 288.521362 21.234599 
L 288.521362 20.16 
L 302.721595 20.16 
L 302.721595 20.16 
" clip-path="url(#p1b83e5871c)" style="fill: none; stroke-dasharray: 14.8,6.4; stroke-dashoffset: 0; stroke: #55ac3d; stroke-width: 4"/>
   </g>
   <g id="patch_3">
    <path d="M 78.68 274.84 
L 78.68 20.16 
" style="fill: none; stroke: #000000; stroke-width: 0.8; stroke-linejoin: miter; stroke-linecap: square"/>
   </g>
   <g id="patch_4">
    <path d="M 433.8 274.84 
L 433.8 20.16 
" style="fill: none; stroke: #000000; stroke-width: 0.8; stroke-linejoin: miter; stroke-linecap: square"/>
   </g>
   <g id="patch_5">
    <path d="M 78.68 274.84 
L 433.8 274.84 
" style="fill: none; stroke: #000000; stroke-width: 0.8; stroke-linejoin: miter; stroke-linecap: square"/>
   </g>
   <g id="patch_6">
    <path d="M 78.68 20.16 
L 433.8 20.16 
" style="fill: none; stroke: #000000; stroke-width: 0.8; stroke-linejoin: miter; stroke-linecap: square"/>
   </g>
   <g id="legend_1">
    <g id="patch_7">
     <path d="M 221.164688 261.84 
L 415.6 261.84 
Q 420.8 261.84 420.8 256.64 
L 420.8 185.716875 
Q 420.8 180.516875 415.6 180.516875 
L 221.164688 180.516875 
Q 215.964688 180.516875 215.964688 185.716875 
L 215.964688 256.64 
Q 215.964688 261.84 221.164688 261.84 
z
" style="fill: #ffffff; opacity: 0.8; stroke: #cccccc; stroke-linejoin: miter"/>
    </g>
    <g id="line2d_37">
     <path d="M 226.364688 200.016875 
L 226.364688 200.016875 
L 252.364688 200.016875 
L 252.364688 200.016875 
L 278.364688 200.016875 
" style="fill: none; stroke: #4586bd; stroke-width: 4; stroke-linecap: square"/>
    </g>
    <g id="text_15">
     <!-- ITP -->
     <g transform="translate(299.164688 209.116875) scale(0.26 -0.26)">
      <defs>
       <path id="TimesNewRomanPSMT-49" d="M 1975 116 
L 1975 0 
L 159 0 
L 159 116 
L 309 116 
Q 572 116 691 269 
Q 766 369 766 750 
L 766 3488 
Q 766 3809 725 3913 
Q 694 3991 597 4047 
Q 459 4122 309 4122 
L 159 4122 
L 159 4238 
L 1975 4238 
L 1975 4122 
L 1822 4122 
Q 1563 4122 1444 3969 
Q 1366 3869 1366 3488 
L 1366 750 
Q 1366 428 1406 325 
Q 1438 247 1538 191 
Q 1672 116 1822 116 
L 1975 116 
z
" transform="scale(0.015625)"/>
       <path id="TimesNewRomanPSMT-54" d="M 3703 4238 
L 3750 3244 
L 3631 3244 
Q 3597 3506 3538 3619 
Q 3441 3800 3280 3886 
Q 3119 3972 2856 3972 
L 2259 3972 
L 2259 734 
Q 2259 344 2344 247 
Q 2463 116 2709 116 
L 2856 116 
L 2856 0 
L 1059 0 
L 1059 116 
L 1209 116 
Q 1478 116 1591 278 
Q 1659 378 1659 734 
L 1659 3972 
L 1150 3972 
Q 853 3972 728 3928 
Q 566 3869 450 3700 
Q 334 3531 313 3244 
L 194 3244 
L 244 4238 
L 3703 4238 
z
" transform="scale(0.015625)"/>
       <path id="TimesNewRomanPSMT-50" d="M 1313 1984 
L 1313 750 
Q 1313 350 1400 253 
Q 1519 116 1759 116 
L 1922 116 
L 1922 0 
L 106 0 
L 106 116 
L 266 116 
Q 534 116 650 291 
Q 713 388 713 750 
L 713 3488 
Q 713 3888 628 3984 
Q 506 4122 266 4122 
L 106 4122 
L 106 4238 
L 1659 4238 
Q 2228 4238 2556 4120 
Q 2884 4003 3109 3725 
Q 3334 3447 3334 3066 
Q 3334 2547 2992 2222 
Q 2650 1897 2025 1897 
Q 1872 1897 1694 1919 
Q 1516 1941 1313 1984 
z
M 1313 2163 
Q 1478 2131 1606 2115 
Q 1734 2100 1825 2100 
Q 2150 2100 2386 2351 
Q 2622 2603 2622 3003 
Q 2622 3278 2509 3514 
Q 2397 3750 2190 3867 
Q 1984 3984 1722 3984 
Q 1563 3984 1313 3925 
L 1313 2163 
z
" transform="scale(0.015625)"/>
      </defs>
      <use xlink:href="#TimesNewRomanPSMT-49"/>
      <use xlink:href="#TimesNewRomanPSMT-54" transform="translate(33.300781 0)"/>
      <use xlink:href="#TimesNewRomanPSMT-50" transform="translate(94.384766 0)"/>
     </g>
    </g>
    <g id="line2d_38">
     <path d="M 226.364688 236.778437 
L 226.364688 236.778437 
L 252.364688 236.778437 
L 252.364688 236.778437 
L 278.364688 236.778437 
" style="fill: none; stroke-dasharray: 14.8,6.4; stroke-dashoffset: 0; stroke: #55ac3d; stroke-width: 4"/>
    </g>
    <g id="text_16">
     <!-- Raw-RSSI -->
     <g transform="translate(299.164688 245.878437) scale(0.26 -0.26)">
      <defs>
       <path id="TimesNewRomanPSMT-52" d="M 4325 0 
L 3194 0 
L 1759 1981 
Q 1600 1975 1500 1975 
Q 1459 1975 1412 1976 
Q 1366 1978 1316 1981 
L 1316 750 
Q 1316 350 1403 253 
Q 1522 116 1759 116 
L 1925 116 
L 1925 0 
L 109 0 
L 109 116 
L 269 116 
Q 538 116 653 291 
Q 719 388 719 750 
L 719 3488 
Q 719 3888 631 3984 
Q 509 4122 269 4122 
L 109 4122 
L 109 4238 
L 1653 4238 
Q 2328 4238 2648 4139 
Q 2969 4041 3192 3777 
Q 3416 3513 3416 3147 
Q 3416 2756 3161 2468 
Q 2906 2181 2372 2063 
L 3247 847 
Q 3547 428 3762 290 
Q 3978 153 4325 116 
L 4325 0 
z
M 1316 2178 
Q 1375 2178 1419 2176 
Q 1463 2175 1491 2175 
Q 2097 2175 2405 2437 
Q 2713 2700 2713 3106 
Q 2713 3503 2464 3751 
Q 2216 4000 1806 4000 
Q 1625 4000 1316 3941 
L 1316 2178 
z
" transform="scale(0.015625)"/>
       <path id="TimesNewRomanPSMT-61" d="M 1822 413 
Q 1381 72 1269 19 
Q 1100 -59 909 -59 
Q 613 -59 420 144 
Q 228 347 228 678 
Q 228 888 322 1041 
Q 450 1253 767 1440 
Q 1084 1628 1822 1897 
L 1822 2009 
Q 1822 2438 1686 2597 
Q 1550 2756 1291 2756 
Q 1094 2756 978 2650 
Q 859 2544 859 2406 
L 866 2225 
Q 866 2081 792 2003 
Q 719 1925 600 1925 
Q 484 1925 411 2006 
Q 338 2088 338 2228 
Q 338 2497 613 2722 
Q 888 2947 1384 2947 
Q 1766 2947 2009 2819 
Q 2194 2722 2281 2516 
Q 2338 2381 2338 1966 
L 2338 994 
Q 2338 584 2353 492 
Q 2369 400 2405 369 
Q 2441 338 2488 338 
Q 2538 338 2575 359 
Q 2641 400 2828 588 
L 2828 413 
Q 2478 -56 2159 -56 
Q 2006 -56 1915 50 
Q 1825 156 1822 413 
z
M 1822 616 
L 1822 1706 
Q 1350 1519 1213 1441 
Q 966 1303 859 1153 
Q 753 1003 753 825 
Q 753 600 887 451 
Q 1022 303 1197 303 
Q 1434 303 1822 616 
z
" transform="scale(0.015625)"/>
       <path id="TimesNewRomanPSMT-77" d="M 41 2863 
L 1241 2863 
L 1241 2747 
Q 1075 2734 1023 2687 
Q 972 2641 972 2553 
Q 972 2456 1025 2319 
L 1638 672 
L 2253 2013 
L 2091 2434 
Q 2016 2622 1894 2694 
Q 1825 2738 1638 2747 
L 1638 2863 
L 3000 2863 
L 3000 2747 
Q 2775 2738 2681 2666 
Q 2619 2616 2619 2506 
Q 2619 2444 2644 2378 
L 3294 734 
L 3897 2319 
Q 3959 2488 3959 2588 
Q 3959 2647 3898 2694 
Q 3838 2741 3659 2747 
L 3659 2863 
L 4563 2863 
L 4563 2747 
Q 4291 2706 4163 2378 
L 3206 -88 
L 3078 -88 
L 2363 1741 
L 1528 -88 
L 1413 -88 
L 494 2319 
Q 403 2547 315 2626 
Q 228 2706 41 2747 
L 41 2863 
z
" transform="scale(0.015625)"/>
       <path id="TimesNewRomanPSMT-2d" d="M 259 1672 
L 1875 1672 
L 1875 1200 
L 259 1200 
L 259 1672 
z
" transform="scale(0.015625)"/>
       <path id="TimesNewRomanPSMT-53" d="M 2934 4334 
L 2934 2869 
L 2819 2869 
Q 2763 3291 2617 3541 
Q 2472 3791 2203 3937 
Q 1934 4084 1647 4084 
Q 1322 4084 1109 3886 
Q 897 3688 897 3434 
Q 897 3241 1031 3081 
Q 1225 2847 1953 2456 
Q 2547 2138 2764 1967 
Q 2981 1797 3098 1565 
Q 3216 1334 3216 1081 
Q 3216 600 2842 251 
Q 2469 -97 1881 -97 
Q 1697 -97 1534 -69 
Q 1438 -53 1133 45 
Q 828 144 747 144 
Q 669 144 623 97 
Q 578 50 556 -97 
L 441 -97 
L 441 1356 
L 556 1356 
Q 638 900 775 673 
Q 913 447 1195 297 
Q 1478 147 1816 147 
Q 2206 147 2432 353 
Q 2659 559 2659 841 
Q 2659 997 2573 1156 
Q 2488 1316 2306 1453 
Q 2184 1547 1640 1851 
Q 1097 2156 867 2337 
Q 638 2519 519 2737 
Q 400 2956 400 3219 
Q 400 3675 750 4004 
Q 1100 4334 1641 4334 
Q 1978 4334 2356 4169 
Q 2531 4091 2603 4091 
Q 2684 4091 2736 4139 
Q 2788 4188 2819 4334 
L 2934 4334 
z
" transform="scale(0.015625)"/>
      </defs>
      <use xlink:href="#TimesNewRomanPSMT-52"/>
      <use xlink:href="#TimesNewRomanPSMT-61" transform="translate(66.699219 0)"/>
      <use xlink:href="#TimesNewRomanPSMT-77" transform="translate(111.083984 0)"/>
      <use xlink:href="#TimesNewRomanPSMT-2d" transform="translate(183.300781 0)"/>
      <use xlink:href="#TimesNewRomanPSMT-52" transform="translate(216.601562 0)"/>
      <use xlink:href="#TimesNewRomanPSMT-53" transform="translate(283.300781 0)"/>
      <use xlink:href="#TimesNewRomanPSMT-53" transform="translate(338.916016 0)"/>
      <use xlink:href="#TimesNewRomanPSMT-49" transform="translate(394.53125 0)"/>
     </g>
    </g>
   </g>
  </g>
 </g>
 <defs>
  <clipPath id="p1b83e5871c">
   <rect x="78.68" y="20.16" width="355.12" height="254.68"/>
  </clipPath>
 </defs>
</svg>
