<?xml version="1.0" encoding="utf-8" standalone="no"?>
<!DOCTYPE svg PUBLIC "-//W3C//DTD SVG 1.1//EN"
  "http://www.w3.org/Graphics/SVG/1.1/DTD/svg11.dtd">
<svg xmlns:xlink="http://www.w3.org/1999/xlink" width="460.8pt" height="345.6pt" viewBox="0 0 460.8 345.6" xmlns="http://www.w3.org/2000/svg" version="1.1">
 <metadata>
  <rdf:RDF xmlns:dc="http://purl.org/dc/elements/1.1/" xmlns:cc="http://creativecommons.org/ns#" xmlns:rdf="http://www.w3.org/1999/02/22-rdf-syntax-ns#">
   <cc:Work>
    <dc:type rdf:resource="http://purl.org/dc/dcmitype/StillImage"/>
    <dc:date>2025-09-04T18:42:08.263389</dc:date>
    <dc:format>image/svg+xml</dc:format>
    <dc:creator>
     <cc:Agent>
      <dc:title>Matplotlib v3.10.1, https://matplotlib.org/</dc:title>
     </cc:Agent>
    </dc:creator>
   </cc:Work>
  </rdf:RDF>
 </metadata>
 <defs>
  <style type="text/css">*{stroke-linejoin: round; stroke-linecap: butt}</style>
 </defs>
 <g id="figure_1">
  <g id="patch_1">
   <path d="M 0 345.6 
L 460.8 345.6 
L 460.8 0 
L 0 0 
z
" style="fill: #ffffff"/>
  </g>
  <g id="axes_1">
   <g id="patch_2">
    <path d="M 78.68 274.84 
L 433.8 274.84 
L 433.8 20.16 
L 78.68 20.16 
z
" style="fill: #ffffff"/>
   </g>
   <g id="matplotlib.axis_1">
    <g id="xtick_1">
     <g id="line2d_1">
      <path d="M 78.68 274.84 
L 78.68 20.16 
" clip-path="url(#p0aa1cda99f)" style="fill: none; stroke: #b0b0b0; stroke-opacity: 0.4; stroke-width: 0.8; stroke-linecap: square"/>
     </g>
     <g id="line2d_2">
      <defs>
       <path id="mc295d49ef3" d="M 0 0 
L 0 3.5 
" style="stroke: #000000; stroke-width: 0.8"/>
      </defs>
      <g>
       <use xlink:href="#mc295d49ef3" x="78.68" y="274.84" style="stroke: #000000; stroke-width: 0.8"/>
      </g>
     </g>
     <g id="text_1">
      <!-- 0.0 -->
      <g transform="translate(62.43 299.89375) scale(0.26 -0.26)">
       <defs>
        <path id="TimesNewRomanPSMT-30" d="M 231 2094 
Q 231 2819 450 3342 
Q 669 3866 1031 4122 
Q 1313 4325 1613 4325 
Q 2100 4325 2488 3828 
Q 2972 3213 2972 2159 
Q 2972 1422 2759 906 
Q 2547 391 2217 158 
Q 1888 -75 1581 -75 
Q 975 -75 572 641 
Q 231 1244 231 2094 
z
M 844 2016 
Q 844 1141 1059 588 
Q 1238 122 1591 122 
Q 1759 122 1940 273 
Q 2122 425 2216 781 
Q 2359 1319 2359 2297 
Q 2359 3022 2209 3506 
Q 2097 3866 1919 4016 
Q 1791 4119 1609 4119 
Q 1397 4119 1231 3928 
Q 1006 3669 925 3112 
Q 844 2556 844 2016 
z
" transform="scale(0.015625)"/>
        <path id="TimesNewRomanPSMT-2e" d="M 800 606 
Q 947 606 1047 504 
Q 1147 403 1147 259 
Q 1147 116 1045 14 
Q 944 -88 800 -88 
Q 656 -88 554 14 
Q 453 116 453 259 
Q 453 406 554 506 
Q 656 606 800 606 
z
" transform="scale(0.015625)"/>
       </defs>
       <use xlink:href="#TimesNewRomanPSMT-30"/>
       <use xlink:href="#TimesNewRomanPSMT-2e" transform="translate(50 0)"/>
       <use xlink:href="#TimesNewRomanPSMT-30" transform="translate(75 0)"/>
      </g>
     </g>
    </g>
    <g id="xtick_2">
     <g id="line2d_3">
      <path d="M 149.704 274.84 
L 149.704 20.16 
" clip-path="url(#p0aa1cda99f)" style="fill: none; stroke: #b0b0b0; stroke-opacity: 0.4; stroke-width: 0.8; stroke-linecap: square"/>
     </g>
     <g id="line2d_4">
      <g>
       <use xlink:href="#mc295d49ef3" x="149.704" y="274.84" style="stroke: #000000; stroke-width: 0.8"/>
      </g>
     </g>
     <g id="text_2">
      <!-- 0.6 -->
      <g transform="translate(133.454 299.89375) scale(0.26 -0.26)">
       <defs>
        <path id="TimesNewRomanPSMT-36" d="M 2869 4325 
L 2869 4209 
Q 2456 4169 2195 4045 
Q 1934 3922 1679 3669 
Q 1425 3416 1258 3105 
Q 1091 2794 978 2366 
Q 1428 2675 1881 2675 
Q 2316 2675 2634 2325 
Q 2953 1975 2953 1425 
Q 2953 894 2631 456 
Q 2244 -75 1606 -75 
Q 1172 -75 869 213 
Q 275 772 275 1663 
Q 275 2231 503 2743 
Q 731 3256 1154 3653 
Q 1578 4050 1965 4187 
Q 2353 4325 2688 4325 
L 2869 4325 
z
M 925 2138 
Q 869 1716 869 1456 
Q 869 1156 980 804 
Q 1091 453 1309 247 
Q 1469 100 1697 100 
Q 1969 100 2183 356 
Q 2397 613 2397 1088 
Q 2397 1622 2184 2012 
Q 1972 2403 1581 2403 
Q 1463 2403 1327 2353 
Q 1191 2303 925 2138 
z
" transform="scale(0.015625)"/>
       </defs>
       <use xlink:href="#TimesNewRomanPSMT-30"/>
       <use xlink:href="#TimesNewRomanPSMT-2e" transform="translate(50 0)"/>
       <use xlink:href="#TimesNewRomanPSMT-36" transform="translate(75 0)"/>
      </g>
     </g>
    </g>
    <g id="xtick_3">
     <g id="line2d_5">
      <path d="M 220.728 274.84 
L 220.728 20.16 
" clip-path="url(#p0aa1cda99f)" style="fill: none; stroke: #b0b0b0; stroke-opacity: 0.4; stroke-width: 0.8; stroke-linecap: square"/>
     </g>
     <g id="line2d_6">
      <g>
       <use xlink:href="#mc295d49ef3" x="220.728" y="274.84" style="stroke: #000000; stroke-width: 0.8"/>
      </g>
     </g>
     <g id="text_3">
      <!-- 1.2 -->
      <g transform="translate(204.478 299.89375) scale(0.26 -0.26)">
       <defs>
        <path id="TimesNewRomanPSMT-31" d="M 750 3822 
L 1781 4325 
L 1884 4325 
L 1884 747 
Q 1884 391 1914 303 
Q 1944 216 2037 169 
Q 2131 122 2419 116 
L 2419 0 
L 825 0 
L 825 116 
Q 1125 122 1212 167 
Q 1300 213 1334 289 
Q 1369 366 1369 747 
L 1369 3034 
Q 1369 3497 1338 3628 
Q 1316 3728 1258 3775 
Q 1200 3822 1119 3822 
Q 1003 3822 797 3725 
L 750 3822 
z
" transform="scale(0.015625)"/>
        <path id="TimesNewRomanPSMT-32" d="M 2934 816 
L 2638 0 
L 138 0 
L 138 116 
Q 1241 1122 1691 1759 
Q 2141 2397 2141 2925 
Q 2141 3328 1894 3587 
Q 1647 3847 1303 3847 
Q 991 3847 742 3664 
Q 494 3481 375 3128 
L 259 3128 
Q 338 3706 661 4015 
Q 984 4325 1469 4325 
Q 1984 4325 2329 3994 
Q 2675 3663 2675 3213 
Q 2675 2891 2525 2569 
Q 2294 2063 1775 1497 
Q 997 647 803 472 
L 1909 472 
Q 2247 472 2383 497 
Q 2519 522 2628 598 
Q 2738 675 2819 816 
L 2934 816 
z
" transform="scale(0.015625)"/>
       </defs>
       <use xlink:href="#TimesNewRomanPSMT-31"/>
       <use xlink:href="#TimesNewRomanPSMT-2e" transform="translate(50 0)"/>
       <use xlink:href="#TimesNewRomanPSMT-32" transform="translate(75 0)"/>
      </g>
     </g>
    </g>
    <g id="xtick_4">
     <g id="line2d_7">
      <path d="M 291.752 274.84 
L 291.752 20.16 
" clip-path="url(#p0aa1cda99f)" style="fill: none; stroke: #b0b0b0; stroke-opacity: 0.4; stroke-width: 0.8; stroke-linecap: square"/>
     </g>
     <g id="line2d_8">
      <g>
       <use xlink:href="#mc295d49ef3" x="291.752" y="274.84" style="stroke: #000000; stroke-width: 0.8"/>
      </g>
     </g>
     <g id="text_4">
      <!-- 1.8 -->
      <g transform="translate(275.502 299.89375) scale(0.26 -0.26)">
       <defs>
        <path id="TimesNewRomanPSMT-38" d="M 1228 2134 
Q 725 2547 579 2797 
Q 434 3047 434 3316 
Q 434 3728 753 4026 
Q 1072 4325 1600 4325 
Q 2113 4325 2425 4047 
Q 2738 3769 2738 3413 
Q 2738 3175 2569 2928 
Q 2400 2681 1866 2347 
Q 2416 1922 2594 1678 
Q 2831 1359 2831 1006 
Q 2831 559 2490 242 
Q 2150 -75 1597 -75 
Q 994 -75 656 303 
Q 388 606 388 966 
Q 388 1247 577 1523 
Q 766 1800 1228 2134 
z
M 1719 2469 
Q 2094 2806 2194 3001 
Q 2294 3197 2294 3444 
Q 2294 3772 2109 3958 
Q 1925 4144 1606 4144 
Q 1288 4144 1088 3959 
Q 888 3775 888 3528 
Q 888 3366 970 3203 
Q 1053 3041 1206 2894 
L 1719 2469 
z
M 1375 2016 
Q 1116 1797 991 1539 
Q 866 1281 866 981 
Q 866 578 1086 336 
Q 1306 94 1647 94 
Q 1984 94 2187 284 
Q 2391 475 2391 747 
Q 2391 972 2272 1150 
Q 2050 1481 1375 2016 
z
" transform="scale(0.015625)"/>
       </defs>
       <use xlink:href="#TimesNewRomanPSMT-31"/>
       <use xlink:href="#TimesNewRomanPSMT-2e" transform="translate(50 0)"/>
       <use xlink:href="#TimesNewRomanPSMT-38" transform="translate(75 0)"/>
      </g>
     </g>
    </g>
    <g id="xtick_5">
     <g id="line2d_9">
      <path d="M 362.776 274.84 
L 362.776 20.16 
" clip-path="url(#p0aa1cda99f)" style="fill: none; stroke: #b0b0b0; stroke-opacity: 0.4; stroke-width: 0.8; stroke-linecap: square"/>
     </g>
     <g id="line2d_10">
      <g>
       <use xlink:href="#mc295d49ef3" x="362.776" y="274.84" style="stroke: #000000; stroke-width: 0.8"/>
      </g>
     </g>
     <g id="text_5">
      <!-- 2.4 -->
      <g transform="translate(346.526 299.89375) scale(0.26 -0.26)">
       <defs>
        <path id="TimesNewRomanPSMT-34" d="M 2978 1563 
L 2978 1119 
L 2409 1119 
L 2409 0 
L 1894 0 
L 1894 1119 
L 100 1119 
L 100 1519 
L 2066 4325 
L 2409 4325 
L 2409 1563 
L 2978 1563 
z
M 1894 1563 
L 1894 3666 
L 406 1563 
L 1894 1563 
z
" transform="scale(0.015625)"/>
       </defs>
       <use xlink:href="#TimesNewRomanPSMT-32"/>
       <use xlink:href="#TimesNewRomanPSMT-2e" transform="translate(50 0)"/>
       <use xlink:href="#TimesNewRomanPSMT-34" transform="translate(75 0)"/>
      </g>
     </g>
    </g>
    <g id="xtick_6">
     <g id="line2d_11">
      <path d="M 433.8 274.84 
L 433.8 20.16 
" clip-path="url(#p0aa1cda99f)" style="fill: none; stroke: #b0b0b0; stroke-opacity: 0.4; stroke-width: 0.8; stroke-linecap: square"/>
     </g>
     <g id="line2d_12">
      <g>
       <use xlink:href="#mc295d49ef3" x="433.8" y="274.84" style="stroke: #000000; stroke-width: 0.8"/>
      </g>
     </g>
     <g id="text_6">
      <!-- 3.0 -->
      <g transform="translate(417.55 299.89375) scale(0.26 -0.26)">
       <defs>
        <path id="TimesNewRomanPSMT-33" d="M 325 3431 
Q 506 3859 782 4092 
Q 1059 4325 1472 4325 
Q 1981 4325 2253 3994 
Q 2459 3747 2459 3466 
Q 2459 3003 1878 2509 
Q 2269 2356 2469 2072 
Q 2669 1788 2669 1403 
Q 2669 853 2319 450 
Q 1863 -75 997 -75 
Q 569 -75 414 31 
Q 259 138 259 259 
Q 259 350 332 419 
Q 406 488 509 488 
Q 588 488 669 463 
Q 722 447 909 348 
Q 1097 250 1169 231 
Q 1284 197 1416 197 
Q 1734 197 1970 444 
Q 2206 691 2206 1028 
Q 2206 1275 2097 1509 
Q 2016 1684 1919 1775 
Q 1784 1900 1550 2001 
Q 1316 2103 1072 2103 
L 972 2103 
L 972 2197 
Q 1219 2228 1467 2375 
Q 1716 2522 1828 2728 
Q 1941 2934 1941 3181 
Q 1941 3503 1739 3701 
Q 1538 3900 1238 3900 
Q 753 3900 428 3381 
L 325 3431 
z
" transform="scale(0.015625)"/>
       </defs>
       <use xlink:href="#TimesNewRomanPSMT-33"/>
       <use xlink:href="#TimesNewRomanPSMT-2e" transform="translate(50 0)"/>
       <use xlink:href="#TimesNewRomanPSMT-30" transform="translate(75 0)"/>
      </g>
     </g>
    </g>
    <g id="xtick_7">
     <g id="line2d_13">
      <path d="M 114.192 274.84 
L 114.192 20.16 
" clip-path="url(#p0aa1cda99f)" style="fill: none; stroke: #b0b0b0; stroke-opacity: 0.4; stroke-width: 0.8; stroke-linecap: square"/>
     </g>
     <g id="line2d_14">
      <defs>
       <path id="m288ec7a2e7" d="M 0 0 
L 0 2 
" style="stroke: #000000; stroke-width: 0.6"/>
      </defs>
      <g>
       <use xlink:href="#m288ec7a2e7" x="114.192" y="274.84" style="stroke: #000000; stroke-width: 0.6"/>
      </g>
     </g>
    </g>
    <g id="xtick_8">
     <g id="line2d_15">
      <path d="M 185.216 274.84 
L 185.216 20.16 
" clip-path="url(#p0aa1cda99f)" style="fill: none; stroke: #b0b0b0; stroke-opacity: 0.4; stroke-width: 0.8; stroke-linecap: square"/>
     </g>
     <g id="line2d_16">
      <g>
       <use xlink:href="#m288ec7a2e7" x="185.216" y="274.84" style="stroke: #000000; stroke-width: 0.6"/>
      </g>
     </g>
    </g>
    <g id="xtick_9">
     <g id="line2d_17">
      <path d="M 256.24 274.84 
L 256.24 20.16 
" clip-path="url(#p0aa1cda99f)" style="fill: none; stroke: #b0b0b0; stroke-opacity: 0.4; stroke-width: 0.8; stroke-linecap: square"/>
     </g>
     <g id="line2d_18">
      <g>
       <use xlink:href="#m288ec7a2e7" x="256.24" y="274.84" style="stroke: #000000; stroke-width: 0.6"/>
      </g>
     </g>
    </g>
    <g id="xtick_10">
     <g id="line2d_19">
      <path d="M 327.264 274.84 
L 327.264 20.16 
" clip-path="url(#p0aa1cda99f)" style="fill: none; stroke: #b0b0b0; stroke-opacity: 0.4; stroke-width: 0.8; stroke-linecap: square"/>
     </g>
     <g id="line2d_20">
      <g>
       <use xlink:href="#m288ec7a2e7" x="327.264" y="274.84" style="stroke: #000000; stroke-width: 0.6"/>
      </g>
     </g>
    </g>
    <g id="xtick_11">
     <g id="line2d_21">
      <path d="M 398.288 274.84 
L 398.288 20.16 
" clip-path="url(#p0aa1cda99f)" style="fill: none; stroke: #b0b0b0; stroke-opacity: 0.4; stroke-width: 0.8; stroke-linecap: square"/>
     </g>
     <g id="line2d_22">
      <g>
       <use xlink:href="#m288ec7a2e7" x="398.288" y="274.84" style="stroke: #000000; stroke-width: 0.6"/>
      </g>
     </g>
    </g>
    <g id="text_7">
     <!-- Error(m) -->
     <g transform="translate(210.045313 327.509062) scale(0.26 -0.26)">
      <defs>
       <path id="TimesNewRomanPSMT-45" d="M 1338 4006 
L 1338 2331 
L 2269 2331 
Q 2631 2331 2753 2441 
Q 2916 2584 2934 2947 
L 3050 2947 
L 3050 1472 
L 2934 1472 
Q 2891 1781 2847 1869 
Q 2791 1978 2662 2040 
Q 2534 2103 2269 2103 
L 1338 2103 
L 1338 706 
Q 1338 425 1363 364 
Q 1388 303 1450 267 
Q 1513 231 1688 231 
L 2406 231 
Q 2766 231 2928 281 
Q 3091 331 3241 478 
Q 3434 672 3638 1063 
L 3763 1063 
L 3397 0 
L 131 0 
L 131 116 
L 281 116 
Q 431 116 566 188 
Q 666 238 702 338 
Q 738 438 738 747 
L 738 3500 
Q 738 3903 656 3997 
Q 544 4122 281 4122 
L 131 4122 
L 131 4238 
L 3397 4238 
L 3444 3309 
L 3322 3309 
Q 3256 3644 3176 3769 
Q 3097 3894 2941 3959 
Q 2816 4006 2500 4006 
L 1338 4006 
z
" transform="scale(0.015625)"/>
       <path id="TimesNewRomanPSMT-72" d="M 1038 2947 
L 1038 2303 
Q 1397 2947 1775 2947 
Q 1947 2947 2059 2842 
Q 2172 2738 2172 2600 
Q 2172 2478 2090 2393 
Q 2009 2309 1897 2309 
Q 1788 2309 1652 2417 
Q 1516 2525 1450 2525 
Q 1394 2525 1328 2463 
Q 1188 2334 1038 2041 
L 1038 669 
Q 1038 431 1097 309 
Q 1138 225 1241 169 
Q 1344 113 1538 113 
L 1538 0 
L 72 0 
L 72 113 
Q 291 113 397 181 
Q 475 231 506 341 
Q 522 394 522 644 
L 522 1753 
Q 522 2253 501 2348 
Q 481 2444 426 2487 
Q 372 2531 291 2531 
Q 194 2531 72 2484 
L 41 2597 
L 906 2947 
L 1038 2947 
z
" transform="scale(0.015625)"/>
       <path id="TimesNewRomanPSMT-6f" d="M 1600 2947 
Q 2250 2947 2644 2453 
Q 2978 2031 2978 1484 
Q 2978 1100 2793 706 
Q 2609 313 2286 112 
Q 1963 -88 1566 -88 
Q 919 -88 538 428 
Q 216 863 216 1403 
Q 216 1797 411 2186 
Q 606 2575 925 2761 
Q 1244 2947 1600 2947 
z
M 1503 2744 
Q 1338 2744 1170 2645 
Q 1003 2547 900 2300 
Q 797 2053 797 1666 
Q 797 1041 1045 587 
Q 1294 134 1700 134 
Q 2003 134 2200 384 
Q 2397 634 2397 1244 
Q 2397 2006 2069 2444 
Q 1847 2744 1503 2744 
z
" transform="scale(0.015625)"/>
       <path id="TimesNewRomanPSMT-28" d="M 1988 -1253 
L 1988 -1369 
Q 1516 -1131 1200 -813 
Q 750 -359 506 256 
Q 263 872 263 1534 
Q 263 2503 741 3301 
Q 1219 4100 1988 4444 
L 1988 4313 
Q 1603 4100 1356 3731 
Q 1109 3363 987 2797 
Q 866 2231 866 1616 
Q 866 947 969 400 
Q 1050 -31 1165 -292 
Q 1281 -553 1476 -793 
Q 1672 -1034 1988 -1253 
z
" transform="scale(0.015625)"/>
       <path id="TimesNewRomanPSMT-6d" d="M 1050 2338 
Q 1363 2650 1419 2697 
Q 1559 2816 1721 2881 
Q 1884 2947 2044 2947 
Q 2313 2947 2506 2790 
Q 2700 2634 2766 2338 
Q 3088 2713 3309 2830 
Q 3531 2947 3766 2947 
Q 3994 2947 4170 2830 
Q 4347 2713 4450 2447 
Q 4519 2266 4519 1878 
L 4519 647 
Q 4519 378 4559 278 
Q 4591 209 4675 161 
Q 4759 113 4950 113 
L 4950 0 
L 3538 0 
L 3538 113 
L 3597 113 
Q 3781 113 3884 184 
Q 3956 234 3988 344 
Q 4000 397 4000 647 
L 4000 1878 
Q 4000 2228 3916 2372 
Q 3794 2572 3525 2572 
Q 3359 2572 3192 2489 
Q 3025 2406 2788 2181 
L 2781 2147 
L 2788 2013 
L 2788 647 
Q 2788 353 2820 281 
Q 2853 209 2943 161 
Q 3034 113 3253 113 
L 3253 0 
L 1806 0 
L 1806 113 
Q 2044 113 2133 169 
Q 2222 225 2256 338 
Q 2272 391 2272 647 
L 2272 1878 
Q 2272 2228 2169 2381 
Q 2031 2581 1784 2581 
Q 1616 2581 1450 2491 
Q 1191 2353 1050 2181 
L 1050 647 
Q 1050 366 1089 281 
Q 1128 197 1204 155 
Q 1281 113 1516 113 
L 1516 0 
L 100 0 
L 100 113 
Q 297 113 375 155 
Q 453 197 493 289 
Q 534 381 534 647 
L 534 1741 
Q 534 2213 506 2350 
Q 484 2453 437 2492 
Q 391 2531 309 2531 
Q 222 2531 100 2484 
L 53 2597 
L 916 2947 
L 1050 2947 
L 1050 2338 
z
" transform="scale(0.015625)"/>
       <path id="TimesNewRomanPSMT-29" d="M 144 4313 
L 144 4444 
Q 619 4209 934 3891 
Q 1381 3434 1625 2820 
Q 1869 2206 1869 1541 
Q 1869 572 1392 -226 
Q 916 -1025 144 -1369 
L 144 -1253 
Q 528 -1038 776 -670 
Q 1025 -303 1145 264 
Q 1266 831 1266 1447 
Q 1266 2113 1163 2663 
Q 1084 3094 967 3353 
Q 850 3613 656 3853 
Q 463 4094 144 4313 
z
" transform="scale(0.015625)"/>
      </defs>
      <use xlink:href="#TimesNewRomanPSMT-45"/>
      <use xlink:href="#TimesNewRomanPSMT-72" transform="translate(61.083984 0)"/>
      <use xlink:href="#TimesNewRomanPSMT-72" transform="translate(94.384766 0)"/>
      <use xlink:href="#TimesNewRomanPSMT-6f" transform="translate(127.685547 0)"/>
      <use xlink:href="#TimesNewRomanPSMT-72" transform="translate(177.685547 0)"/>
      <use xlink:href="#TimesNewRomanPSMT-28" transform="translate(210.986328 0)"/>
      <use xlink:href="#TimesNewRomanPSMT-6d" transform="translate(244.287109 0)"/>
      <use xlink:href="#TimesNewRomanPSMT-29" transform="translate(322.070312 0)"/>
     </g>
    </g>
   </g>
   <g id="matplotlib.axis_2">
    <g id="ytick_1">
     <g id="line2d_23">
      <path d="M 78.68 274.84 
L 433.8 274.84 
" clip-path="url(#p0aa1cda99f)" style="fill: none; stroke: #b0b0b0; stroke-opacity: 0.4; stroke-width: 0.8; stroke-linecap: square"/>
     </g>
     <g id="line2d_24">
      <defs>
       <path id="m56d38f6d80" d="M 0 0 
L -3.5 0 
" style="stroke: #000000; stroke-width: 0.8"/>
      </defs>
      <g>
       <use xlink:href="#m56d38f6d80" x="78.68" y="274.84" style="stroke: #000000; stroke-width: 0.8"/>
      </g>
     </g>
     <g id="text_8">
      <!-- 0.0 -->
      <g transform="translate(39.18 283.866875) scale(0.26 -0.26)">
       <use xlink:href="#TimesNewRomanPSMT-30"/>
       <use xlink:href="#TimesNewRomanPSMT-2e" transform="translate(50 0)"/>
       <use xlink:href="#TimesNewRomanPSMT-30" transform="translate(75 0)"/>
      </g>
     </g>
    </g>
    <g id="ytick_2">
     <g id="line2d_25">
      <path d="M 78.68 223.904 
L 433.8 223.904 
" clip-path="url(#p0aa1cda99f)" style="fill: none; stroke: #b0b0b0; stroke-opacity: 0.4; stroke-width: 0.8; stroke-linecap: square"/>
     </g>
     <g id="line2d_26">
      <g>
       <use xlink:href="#m56d38f6d80" x="78.68" y="223.904" style="stroke: #000000; stroke-width: 0.8"/>
      </g>
     </g>
     <g id="text_9">
      <!-- 0.2 -->
      <g transform="translate(39.18 232.930875) scale(0.26 -0.26)">
       <use xlink:href="#TimesNewRomanPSMT-30"/>
       <use xlink:href="#TimesNewRomanPSMT-2e" transform="translate(50 0)"/>
       <use xlink:href="#TimesNewRomanPSMT-32" transform="translate(75 0)"/>
      </g>
     </g>
    </g>
    <g id="ytick_3">
     <g id="line2d_27">
      <path d="M 78.68 172.968 
L 433.8 172.968 
" clip-path="url(#p0aa1cda99f)" style="fill: none; stroke: #b0b0b0; stroke-opacity: 0.4; stroke-width: 0.8; stroke-linecap: square"/>
     </g>
     <g id="line2d_28">
      <g>
       <use xlink:href="#m56d38f6d80" x="78.68" y="172.968" style="stroke: #000000; stroke-width: 0.8"/>
      </g>
     </g>
     <g id="text_10">
      <!-- 0.4 -->
      <g transform="translate(39.18 181.994875) scale(0.26 -0.26)">
       <use xlink:href="#TimesNewRomanPSMT-30"/>
       <use xlink:href="#TimesNewRomanPSMT-2e" transform="translate(50 0)"/>
       <use xlink:href="#TimesNewRomanPSMT-34" transform="translate(75 0)"/>
      </g>
     </g>
    </g>
    <g id="ytick_4">
     <g id="line2d_29">
      <path d="M 78.68 122.032 
L 433.8 122.032 
" clip-path="url(#p0aa1cda99f)" style="fill: none; stroke: #b0b0b0; stroke-opacity: 0.4; stroke-width: 0.8; stroke-linecap: square"/>
     </g>
     <g id="line2d_30">
      <g>
       <use xlink:href="#m56d38f6d80" x="78.68" y="122.032" style="stroke: #000000; stroke-width: 0.8"/>
      </g>
     </g>
     <g id="text_11">
      <!-- 0.6 -->
      <g transform="translate(39.18 131.058875) scale(0.26 -0.26)">
       <use xlink:href="#TimesNewRomanPSMT-30"/>
       <use xlink:href="#TimesNewRomanPSMT-2e" transform="translate(50 0)"/>
       <use xlink:href="#TimesNewRomanPSMT-36" transform="translate(75 0)"/>
      </g>
     </g>
    </g>
    <g id="ytick_5">
     <g id="line2d_31">
      <path d="M 78.68 71.096 
L 433.8 71.096 
" clip-path="url(#p0aa1cda99f)" style="fill: none; stroke: #b0b0b0; stroke-opacity: 0.4; stroke-width: 0.8; stroke-linecap: square"/>
     </g>
     <g id="line2d_32">
      <g>
       <use xlink:href="#m56d38f6d80" x="78.68" y="71.096" style="stroke: #000000; stroke-width: 0.8"/>
      </g>
     </g>
     <g id="text_12">
      <!-- 0.8 -->
      <g transform="translate(39.18 80.122875) scale(0.26 -0.26)">
       <use xlink:href="#TimesNewRomanPSMT-30"/>
       <use xlink:href="#TimesNewRomanPSMT-2e" transform="translate(50 0)"/>
       <use xlink:href="#TimesNewRomanPSMT-38" transform="translate(75 0)"/>
      </g>
     </g>
    </g>
    <g id="ytick_6">
     <g id="line2d_33">
      <path d="M 78.68 20.16 
L 433.8 20.16 
" clip-path="url(#p0aa1cda99f)" style="fill: none; stroke: #b0b0b0; stroke-opacity: 0.4; stroke-width: 0.8; stroke-linecap: square"/>
     </g>
     <g id="line2d_34">
      <g>
       <use xlink:href="#m56d38f6d80" x="78.68" y="20.16" style="stroke: #000000; stroke-width: 0.8"/>
      </g>
     </g>
     <g id="text_13">
      <!-- 1.0 -->
      <g transform="translate(39.18 29.186875) scale(0.26 -0.26)">
       <use xlink:href="#TimesNewRomanPSMT-31"/>
       <use xlink:href="#TimesNewRomanPSMT-2e" transform="translate(50 0)"/>
       <use xlink:href="#TimesNewRomanPSMT-30" transform="translate(75 0)"/>
      </g>
     </g>
    </g>
    <g id="text_14">
     <!-- CDF -->
     <g transform="translate(29.618438 172.789062) rotate(-90) scale(0.26 -0.26)">
      <defs>
       <path id="TimesNewRomanPSMT-43" d="M 3853 4334 
L 3950 2894 
L 3853 2894 
Q 3659 3541 3300 3825 
Q 2941 4109 2438 4109 
Q 2016 4109 1675 3895 
Q 1334 3681 1139 3212 
Q 944 2744 944 2047 
Q 944 1472 1128 1050 
Q 1313 628 1683 403 
Q 2053 178 2528 178 
Q 2941 178 3256 354 
Q 3572 531 3950 1056 
L 4047 994 
Q 3728 428 3303 165 
Q 2878 -97 2294 -97 
Q 1241 -97 663 684 
Q 231 1266 231 2053 
Q 231 2688 515 3219 
Q 800 3750 1298 4042 
Q 1797 4334 2388 4334 
Q 2847 4334 3294 4109 
Q 3425 4041 3481 4041 
Q 3566 4041 3628 4100 
Q 3709 4184 3744 4334 
L 3853 4334 
z
" transform="scale(0.015625)"/>
       <path id="TimesNewRomanPSMT-44" d="M 109 0 
L 109 116 
L 269 116 
Q 538 116 650 288 
Q 719 391 719 750 
L 719 3488 
Q 719 3884 631 3984 
Q 509 4122 269 4122 
L 109 4122 
L 109 4238 
L 1834 4238 
Q 2784 4238 3279 4022 
Q 3775 3806 4076 3303 
Q 4378 2800 4378 2141 
Q 4378 1256 3841 663 
Q 3238 0 2003 0 
L 109 0 
z
M 1319 306 
Q 1716 219 1984 219 
Q 2709 219 3187 728 
Q 3666 1238 3666 2109 
Q 3666 2988 3187 3494 
Q 2709 4000 1959 4000 
Q 1678 4000 1319 3909 
L 1319 306 
z
" transform="scale(0.015625)"/>
       <path id="TimesNewRomanPSMT-46" d="M 1309 4006 
L 1309 2341 
L 2081 2341 
Q 2347 2341 2470 2458 
Q 2594 2575 2634 2922 
L 2750 2922 
L 2750 1488 
L 2634 1488 
Q 2631 1734 2570 1850 
Q 2509 1966 2401 2023 
Q 2294 2081 2081 2081 
L 1309 2081 
L 1309 750 
Q 1309 428 1350 325 
Q 1381 247 1481 191 
Q 1619 116 1769 116 
L 1922 116 
L 1922 0 
L 103 0 
L 103 116 
L 253 116 
Q 516 116 634 269 
Q 709 369 709 750 
L 709 3488 
Q 709 3809 669 3913 
Q 638 3991 541 4047 
Q 406 4122 253 4122 
L 103 4122 
L 103 4238 
L 3256 4238 
L 3297 3306 
L 3188 3306 
Q 3106 3603 2998 3742 
Q 2891 3881 2733 3943 
Q 2575 4006 2244 4006 
L 1309 4006 
z
" transform="scale(0.015625)"/>
      </defs>
      <use xlink:href="#TimesNewRomanPSMT-43"/>
      <use xlink:href="#TimesNewRomanPSMT-44" transform="translate(66.699219 0)"/>
      <use xlink:href="#TimesNewRomanPSMT-46" transform="translate(138.916016 0)"/>
     </g>
    </g>
   </g>
   <g id="line2d_35">
    <path d="M 79.489588 274.015793 
L 79.573855 272.367379 
L 79.664828 272.367379 
L 79.664828 271.543172 
L 80.053257 271.543172 
L 80.053257 269.894757 
L 80.452599 269.894757 
L 80.452599 269.07055 
L 81.143157 269.07055 
L 81.143157 268.246343 
L 81.273798 268.246343 
L 81.327984 266.597929 
L 81.623821 266.597929 
L 81.623821 265.773722 
L 84.668801 265.773722 
L 84.668801 264.949515 
L 85.135656 264.949515 
L 85.135656 264.125307 
L 85.383877 264.125307 
L 85.383877 263.3011 
L 85.633439 263.3011 
L 85.633439 262.476893 
L 85.941823 262.476893 
L 85.979173 260.004272 
L 86.482526 260.004272 
L 86.482526 259.180065 
L 86.77454 259.180065 
L 86.77454 258.355858 
L 87.302657 258.355858 
L 87.302657 257.53165 
L 87.477109 257.53165 
L 87.581914 255.883236 
L 88.023507 255.883236 
L 88.023507 255.059029 
L 90.367507 255.059029 
L 90.367507 254.234822 
L 90.544939 254.234822 
L 90.544939 253.410615 
L 90.9547 253.410615 
L 91.027557 251.762201 
L 91.512245 251.762201 
L 91.512245 250.937994 
L 92.431972 250.937994 
L 92.431972 250.113786 
L 92.672487 250.113786 
L 92.672487 249.289579 
L 95.433302 249.289579 
L 95.433302 248.465372 
L 96.378898 248.465372 
L 96.392535 246.816958 
L 96.72563 246.816958 
L 96.72563 245.992751 
L 97.721061 245.992751 
L 97.721061 245.168544 
L 98.037985 245.168544 
L 98.08239 243.520129 
L 98.54296 243.520129 
L 98.54296 242.695922 
L 100.165259 242.695922 
L 100.165259 241.047508 
L 100.565004 241.047508 
L 100.565004 240.223301 
L 101.243742 240.223301 
L 101.243742 239.399094 
L 101.688492 239.399094 
L 101.688492 235.278058 
L 102.600814 235.278058 
L 102.600814 234.453851 
L 103.185127 234.453851 
L 103.27054 229.508608 
L 103.3219 229.508608 
L 103.333473 227.860194 
L 103.709174 227.860194 
L 103.709174 227.035987 
L 104.400176 227.035987 
L 104.400176 226.21178 
L 104.815427 226.21178 
L 104.815427 225.387573 
L 105.770511 225.387573 
L 105.770511 224.563366 
L 106.219989 224.563366 
L 106.219989 222.914951 
L 106.687242 222.914951 
L 106.687242 222.090744 
L 107.111341 222.090744 
L 107.111341 221.266537 
L 107.490444 221.266537 
L 107.490444 220.44233 
L 107.74781 220.44233 
L 107.817718 217.969709 
L 107.976632 217.969709 
L 107.987154 216.321294 
L 108.468631 216.321294 
L 108.468631 215.497087 
L 108.943905 215.497087 
L 108.943905 214.67288 
L 109.087053 214.67288 
L 109.087053 213.848673 
L 109.210941 213.848673 
L 109.210941 213.024466 
L 109.455168 213.024466 
L 109.455168 212.200259 
L 110.294533 212.200259 
L 110.294533 210.551845 
L 110.542833 210.551845 
L 110.542833 208.90343 
L 110.757405 208.90343 
L 110.757405 208.079223 
L 110.880465 208.079223 
L 110.880465 207.255016 
L 111.155708 207.255016 
L 111.257741 203.958188 
L 111.400586 203.958188 
L 111.507724 201.485566 
L 111.533177 201.485566 
L 111.533177 200.661359 
L 111.703755 200.661359 
L 111.716489 199.012945 
L 111.920168 199.012945 
L 111.971067 197.364531 
L 112.177291 197.364531 
L 112.257212 194.067702 
L 112.506857 194.067702 
L 112.506857 193.243495 
L 112.953615 193.243495 
L 112.953615 192.419288 
L 113.39299 192.419288 
L 113.39299 191.595081 
L 113.908495 191.595081 
L 113.924591 189.946667 
L 114.101595 189.946667 
L 114.101595 189.12246 
L 114.243127 189.12246 
L 114.243127 188.298252 
L 114.431204 188.298252 
L 114.432831 186.649838 
L 114.657256 186.649838 
L 114.657256 185.825631 
L 115.12474 185.825631 
L 115.12474 185.001424 
L 115.353413 185.001424 
L 115.353413 184.177217 
L 116.229737 184.177217 
L 116.263594 182.528803 
L 116.488678 182.528803 
L 116.488678 181.704595 
L 117.147385 181.704595 
L 117.225574 179.231974 
L 117.577674 179.231974 
L 117.612662 177.58356 
L 117.777716 177.58356 
L 117.777716 176.759353 
L 118.09584 176.759353 
L 118.09584 175.935146 
L 118.420198 175.935146 
L 118.433296 174.286731 
L 118.705296 174.286731 
L 118.705296 173.462524 
L 118.960054 173.462524 
L 119.067914 169.341489 
L 119.286282 169.341489 
L 119.286282 168.517282 
L 119.714301 168.517282 
L 119.714301 166.868867 
L 120.107008 166.868867 
L 120.107008 166.04466 
L 120.35936 166.04466 
L 120.442555 164.396246 
L 120.788663 164.396246 
L 120.788663 163.572039 
L 121.003094 163.572039 
L 121.110255 160.27521 
L 121.217379 160.27521 
L 121.275045 157.802589 
L 121.678415 157.802589 
L 121.678415 156.978382 
L 121.892237 156.978382 
L 121.892237 156.154175 
L 122.015989 156.154175 
L 122.102178 154.505761 
L 122.17594 154.505761 
L 122.17594 153.681553 
L 122.483594 153.681553 
L 122.483594 152.857346 
L 123.125664 152.857346 
L 123.172093 151.208932 
L 123.30961 151.208932 
L 123.417617 149.560518 
L 123.810051 149.560518 
L 123.916536 147.087896 
L 123.927684 147.087896 
L 123.927684 146.263689 
L 125.233521 146.263689 
L 125.233521 145.439482 
L 125.910899 145.439482 
L 126.001775 143.791068 
L 126.105601 143.791068 
L 126.154257 141.318447 
L 126.251547 141.318447 
L 126.251547 140.494239 
L 127.887709 140.494239 
L 127.887709 139.670032 
L 128.631246 139.670032 
L 128.631246 138.845825 
L 129.300472 138.845825 
L 129.396767 137.197411 
L 129.52309 137.197411 
L 129.52309 136.373204 
L 129.835187 136.373204 
L 129.835187 135.548997 
L 129.968747 135.548997 
L 129.968747 134.72479 
L 130.398027 134.72479 
L 130.398027 133.900583 
L 130.64583 133.900583 
L 130.745786 132.252168 
L 131.316278 132.252168 
L 131.316278 130.603754 
L 131.435121 130.603754 
L 131.435121 129.779547 
L 131.985243 129.779547 
L 131.985243 128.131133 
L 132.489525 128.131133 
L 132.489525 127.306926 
L 132.652729 127.306926 
L 132.652729 126.482718 
L 133.12788 126.482718 
L 133.12788 125.658511 
L 133.691324 125.658511 
L 133.691324 124.834304 
L 133.911868 124.834304 
L 133.983276 122.361683 
L 134.220434 122.361683 
L 134.220434 120.713269 
L 134.425484 120.713269 
L 134.425484 119.889061 
L 134.551709 119.889061 
L 134.646343 117.41644 
L 134.740947 117.41644 
L 134.832694 114.943819 
L 135.144768 114.943819 
L 135.144768 114.119612 
L 136.626759 114.119612 
L 136.721698 112.471197 
L 136.987309 112.471197 
L 136.987309 111.64699 
L 137.28398 111.64699 
L 137.28398 110.822783 
L 137.843324 110.822783 
L 137.843324 109.998576 
L 141.07687 109.998576 
L 141.07687 109.174369 
L 141.202455 109.174369 
L 141.202455 108.350162 
L 141.369854 108.350162 
L 141.369854 106.701748 
L 141.817785 106.701748 
L 141.817785 105.87754 
L 142.190865 105.87754 
L 142.289605 103.404919 
L 142.540168 103.404919 
L 142.540168 102.580712 
L 143.17743 102.580712 
L 143.17743 101.756505 
L 143.372326 101.756505 
L 143.372326 100.932298 
L 143.501605 100.932298 
L 143.501605 100.108091 
L 143.649345 100.108091 
L 143.649345 99.283883 
L 144.340921 99.283883 
L 144.340921 98.459676 
L 144.57734 98.459676 
L 144.57734 97.635469 
L 145.178515 97.635469 
L 145.178515 96.811262 
L 145.321592 96.811262 
L 145.321592 95.987055 
L 145.785543 95.987055 
L 145.785543 95.162848 
L 146.450183 95.162848 
L 146.450183 94.338641 
L 146.848543 94.338641 
L 146.912638 91.866019 
L 147.1956 91.866019 
L 147.1956 91.041812 
L 147.691955 91.041812 
L 147.691955 90.217605 
L 148.51172 90.217605 
L 148.51172 88.569191 
L 148.766986 88.569191 
L 148.841489 85.272362 
L 149.340747 85.272362 
L 149.340747 84.448155 
L 149.969133 84.448155 
L 149.969133 83.623948 
L 150.54934 83.623948 
L 150.660216 81.975534 
L 151.690978 81.975534 
L 151.754307 80.32712 
L 151.809984 80.32712 
L 151.809984 78.678706 
L 151.932882 78.678706 
L 151.932882 77.854498 
L 152.197331 77.854498 
L 152.197331 77.030291 
L 152.839897 77.030291 
L 152.913568 73.733463 
L 153.039057 73.733463 
L 153.120892 72.085049 
L 153.815963 72.085049 
L 153.924909 70.436634 
L 154.090458 70.436634 
L 154.142916 67.139806 
L 154.216347 67.139806 
L 154.216347 66.315599 
L 154.970848 66.315599 
L 154.970848 65.491392 
L 155.244054 65.491392 
L 155.244054 64.667184 
L 155.849291 64.667184 
L 155.849291 63.842977 
L 156.46499 63.842977 
L 156.46499 63.01877 
L 157.520794 63.01877 
L 157.600353 61.370356 
L 158.286152 61.370356 
L 158.286152 60.546149 
L 158.655389 60.546149 
L 158.655389 59.721942 
L 158.940107 59.721942 
L 158.940107 58.897735 
L 159.787475 58.897735 
L 159.787475 58.073528 
L 160.08356 58.073528 
L 160.092996 56.425113 
L 160.433257 56.425113 
L 160.433257 55.600906 
L 161.078222 55.600906 
L 161.142674 53.952492 
L 161.480911 53.952492 
L 161.480911 53.128285 
L 162.044142 53.128285 
L 162.052803 50.655663 
L 162.644429 50.655663 
L 162.644429 49.831456 
L 163.543044 49.831456 
L 163.543044 49.007249 
L 163.917079 49.007249 
L 163.917079 48.183042 
L 164.290838 48.183042 
L 164.290838 47.358835 
L 164.553068 47.358835 
L 164.553068 46.534628 
L 165.559556 46.534628 
L 165.596485 44.062006 
L 165.809725 44.062006 
L 165.917916 42.413592 
L 166.121658 42.413592 
L 166.121658 41.589385 
L 166.447893 41.589385 
L 166.447893 40.765178 
L 166.686997 40.765178 
L 166.686997 39.940971 
L 167.549487 39.940971 
L 167.549487 39.116764 
L 168.041282 39.116764 
L 168.041282 38.292557 
L 168.595757 38.292557 
L 168.595757 37.46835 
L 168.754493 37.46835 
L 168.754493 36.644142 
L 169.421118 36.644142 
L 169.421118 35.819935 
L 169.626647 35.819935 
L 169.626647 34.995728 
L 169.864244 34.995728 
L 169.937984 33.347314 
L 172.076389 33.347314 
L 172.076389 32.523107 
L 172.640286 32.523107 
L 172.640286 31.6989 
L 173.178793 31.6989 
L 173.178793 30.874693 
L 174.190243 30.874693 
L 174.27876 29.226278 
L 174.82783 29.226278 
L 174.82783 28.402071 
L 176.4714 28.402071 
L 176.4714 27.577864 
L 177.482942 27.577864 
L 177.482942 26.753657 
L 178.233769 26.753657 
L 178.336103 25.105243 
L 179.626399 25.105243 
L 179.626399 24.281036 
L 180.399093 24.281036 
L 180.399093 23.456828 
L 183.30522 23.456828 
L 183.386625 21.808414 
L 186.820657 21.808414 
L 186.820657 20.984207 
L 188.737597 20.984207 
L 188.737597 20.16 
L 190.989023 20.16 
L 190.989023 20.16 
" clip-path="url(#p0aa1cda99f)" style="fill: none; stroke: #4586bd; stroke-width: 4; stroke-linecap: square"/>
   </g>
   <g id="line2d_36">
    <path d="M 122.948402 274.015793 
L 122.948402 272.367379 
L 124.464541 272.367379 
L 124.464541 271.543172 
L 124.61534 271.543172 
L 124.61534 270.718964 
L 125.082214 270.718964 
L 125.082214 269.894757 
L 125.533217 269.894757 
L 125.533217 269.07055 
L 125.786617 269.07055 
L 125.786617 268.246343 
L 127.050493 268.246343 
L 127.050493 266.597929 
L 127.632071 266.597929 
L 127.728893 263.3011 
L 128.15213 263.3011 
L 128.164214 261.652686 
L 128.357492 261.652686 
L 128.405792 260.004272 
L 129.755103 260.004272 
L 129.755103 259.180065 
L 130.244282 259.180065 
L 130.259556 257.53165 
L 130.427521 257.53165 
L 130.427521 256.707443 
L 130.561826 256.707443 
L 130.561826 255.883236 
L 130.740298 255.883236 
L 130.740298 255.059029 
L 130.954806 255.059029 
L 130.954806 254.234822 
L 132.446986 254.234822 
L 132.446986 253.410615 
L 133.368538 253.410615 
L 133.368538 252.586408 
L 134.217793 252.586408 
L 134.217793 251.762201 
L 134.525587 251.762201 
L 134.538017 250.113786 
L 135.037875 250.113786 
L 135.140227 247.641165 
L 135.753605 247.641165 
L 135.753605 245.992751 
L 136.365723 245.992751 
L 136.365723 245.168544 
L 136.773103 245.168544 
L 136.773103 244.344337 
L 136.976584 244.344337 
L 137.078272 241.871715 
L 137.179925 241.871715 
L 137.234647 240.223301 
L 137.617419 240.223301 
L 137.617419 239.399094 
L 137.820321 239.399094 
L 137.820321 238.574887 
L 138.019541 238.574887 
L 138.019541 237.75068 
L 138.381479 237.75068 
L 138.381479 236.926472 
L 139.034819 236.926472 
L 139.034819 236.102265 
L 139.165314 236.102265 
L 139.267805 234.453851 
L 139.640199 234.453851 
L 139.640199 233.629644 
L 139.751825 233.629644 
L 139.751825 232.805437 
L 141.633763 232.805437 
L 141.719999 231.157023 
L 141.818523 231.157023 
L 141.864694 229.508608 
L 141.957016 229.508608 
L 141.957016 228.684401 
L 144.850242 228.684401 
L 144.94162 227.035987 
L 145.891749 227.035987 
L 145.891749 226.21178 
L 146.126897 226.21178 
L 146.126897 225.387573 
L 146.763108 225.387573 
L 146.763108 223.739159 
L 147.397911 223.739159 
L 147.397911 222.090744 
L 148.031311 222.090744 
L 148.031311 221.266537 
L 149.293911 221.266537 
L 149.293911 219.618123 
L 149.713537 219.618123 
L 149.713537 218.793916 
L 149.833316 218.793916 
L 149.923118 216.321294 
L 150.012891 216.321294 
L 150.107093 213.848673 
L 151.8024 213.848673 
L 151.8024 213.024466 
L 152.426059 213.024466 
L 152.426059 212.200259 
L 153.841136 212.200259 
L 153.841136 211.376052 
L 155.601071 211.376052 
L 155.601071 210.551845 
L 156.352947 210.551845 
L 156.352947 208.90343 
L 157.415664 208.90343 
L 157.462483 207.255016 
L 158.039459 207.255016 
L 158.039459 206.430809 
L 158.734864 206.430809 
L 158.734864 205.606602 
L 161.699833 205.606602 
L 161.699833 204.782395 
L 162.491504 204.782395 
L 162.491504 203.958188 
L 162.876943 203.958188 
L 162.908284 202.309773 
L 164.407458 202.309773 
L 164.407458 201.485566 
L 165.142637 201.485566 
L 165.142637 200.661359 
L 165.998584 200.661359 
L 165.998584 199.837152 
L 166.852639 199.837152 
L 166.852639 199.012945 
L 167.846649 199.012945 
L 167.846649 198.188738 
L 168.555085 198.188738 
L 168.555085 196.540324 
L 170.551886 196.540324 
L 170.551886 195.716117 
L 172.778366 195.716117 
L 172.778366 194.891909 
L 173.856817 194.891909 
L 173.856817 194.067702 
L 173.976456 194.067702 
L 173.976456 193.243495 
L 175.289985 193.243495 
L 175.289985 192.419288 
L 176.234485 192.419288 
L 176.234485 191.595081 
L 177.311017 191.595081 
L 177.311017 190.770874 
L 177.508572 190.770874 
L 177.508572 189.946667 
L 177.784976 189.946667 
L 177.784976 188.298252 
L 178.612964 188.298252 
L 178.612964 187.474045 
L 180.263451 187.474045 
L 180.263451 186.649838 
L 184.590432 186.649838 
L 184.590432 185.825631 
L 185.982938 185.825631 
L 185.982938 185.001424 
L 186.098741 185.001424 
L 186.098741 184.177217 
L 186.286731 184.177217 
L 186.286731 183.35301 
L 186.850573 183.35301 
L 186.850573 182.528803 
L 187.062349 182.528803 
L 187.062349 181.704595 
L 187.600861 181.704595 
L 187.600861 180.880388 
L 189.096818 180.880388 
L 189.154232 178.407767 
L 190.586636 178.407767 
L 190.586636 176.759353 
L 190.815296 176.759353 
L 190.815296 174.286731 
L 191.329251 174.286731 
L 191.329251 173.462524 
L 191.600146 173.462524 
L 191.600146 172.638317 
L 192.411869 172.638317 
L 192.411869 171.81411 
L 193.434511 171.81411 
L 193.491239 170.165696 
L 193.888084 170.165696 
L 193.888084 169.341489 
L 194.463674 169.341489 
L 194.529666 166.04466 
L 195.554441 166.04466 
L 195.630876 162.747832 
L 195.696652 162.747832 
L 195.696652 161.923625 
L 196.372509 161.923625 
L 196.372509 161.099417 
L 197.159389 161.099417 
L 197.159389 160.27521 
L 198.727933 160.27521 
L 198.727933 159.451003 
L 199.342249 159.451003 
L 199.342249 158.626796 
L 200.320909 158.626796 
L 200.320909 157.802589 
L 202.736118 157.802589 
L 202.736118 156.978382 
L 203.375339 156.978382 
L 203.375339 156.154175 
L 205.110642 156.154175 
L 205.110642 155.329968 
L 206.488058 155.329968 
L 206.488058 154.505761 
L 207.960156 154.505761 
L 207.960156 153.681553 
L 208.547334 153.681553 
L 208.547334 152.857346 
L 209.189458 152.857346 
L 209.189458 152.033139 
L 209.591303 152.033139 
L 209.591303 151.208932 
L 210.559822 151.208932 
L 210.559822 150.384725 
L 211.111571 150.384725 
L 211.111571 148.736311 
L 213.351974 148.736311 
L 213.460415 147.087896 
L 213.604964 147.087896 
L 213.604964 145.439482 
L 214.313903 145.439482 
L 214.399164 142.966861 
L 214.615525 142.966861 
L 214.615525 142.142654 
L 215.165797 142.142654 
L 215.254314 140.494239 
L 215.941878 140.494239 
L 215.941878 139.670032 
L 217.020671 139.670032 
L 217.020671 138.845825 
L 217.608247 138.845825 
L 217.608247 138.021618 
L 217.991804 138.021618 
L 217.991804 137.197411 
L 218.635468 137.197411 
L 218.635468 136.373204 
L 218.91762 136.373204 
L 218.91762 135.548997 
L 219.064068 135.548997 
L 219.064068 134.72479 
L 219.997508 134.72479 
L 219.997508 133.900583 
L 221.030401 133.900583 
L 221.030401 133.076375 
L 221.627148 133.076375 
L 221.627148 132.252168 
L 222.619967 132.252168 
L 222.619967 130.603754 
L 223.681266 130.603754 
L 223.75193 128.95534 
L 224.352121 128.95534 
L 224.446195 126.482718 
L 224.599024 126.482718 
L 224.701484 124.834304 
L 225.512876 124.834304 
L 225.616171 122.361683 
L 225.771206 122.361683 
L 225.771206 121.537476 
L 226.639543 121.537476 
L 226.639543 120.713269 
L 227.50518 120.713269 
L 227.551225 118.240647 
L 228.055343 118.240647 
L 228.126951 116.592233 
L 228.530943 116.592233 
L 228.530943 115.768026 
L 228.746791 115.768026 
L 228.746791 111.64699 
L 229.490439 111.64699 
L 229.508493 109.998576 
L 229.764161 109.998576 
L 229.764161 109.174369 
L 229.985656 109.174369 
L 230.066123 107.525955 
L 230.623048 107.525955 
L 230.678701 105.87754 
L 230.957127 105.87754 
L 230.970768 104.229126 
L 231.127684 104.229126 
L 231.127684 103.404919 
L 231.457114 103.404919 
L 231.457114 102.580712 
L 232.751409 102.580712 
L 232.751409 101.756505 
L 233.074387 101.756505 
L 233.074387 100.932298 
L 233.397126 100.932298 
L 233.397126 100.108091 
L 233.685836 100.108091 
L 233.685836 99.283883 
L 233.880929 99.283883 
L 233.880929 98.459676 
L 234.492658 98.459676 
L 234.501853 96.811262 
L 234.708678 96.811262 
L 234.777474 95.162848 
L 234.97803 95.162848 
L 234.97803 94.338641 
L 235.259733 94.338641 
L 235.259733 93.514434 
L 235.466198 93.514434 
L 235.466198 92.690227 
L 236.139004 92.690227 
L 236.210954 91.041812 
L 236.663272 91.041812 
L 236.750601 89.393398 
L 237.114403 89.393398 
L 237.114403 88.569191 
L 237.251472 88.569191 
L 237.361521 85.272362 
L 237.565011 85.272362 
L 237.565011 84.448155 
L 238.004573 84.448155 
L 238.004573 83.623948 
L 238.209737 83.623948 
L 238.209737 82.799741 
L 239.134902 82.799741 
L 239.134902 81.975534 
L 239.885283 81.975534 
L 239.885283 81.151327 
L 240.050569 81.151327 
L 240.119913 79.502913 
L 240.393423 79.502913 
L 240.393423 78.678706 
L 240.810656 78.678706 
L 240.810656 77.854498 
L 241.071834 77.854498 
L 241.071834 77.030291 
L 241.411311 77.030291 
L 241.411311 76.206084 
L 241.861371 76.206084 
L 241.861371 75.381877 
L 242.02165 75.381877 
L 242.02165 74.55767 
L 242.49577 74.55767 
L 242.508184 72.909256 
L 242.617455 72.909256 
L 242.617455 72.085049 
L 243.914984 72.085049 
L 243.914984 71.260841 
L 249.5842 71.260841 
L 249.5842 70.436634 
L 253.938276 70.436634 
L 253.938276 69.612427 
L 254.179321 69.612427 
L 254.179321 68.78822 
L 254.374389 68.78822 
L 254.374389 67.964013 
L 257.313407 67.964013 
L 257.313407 67.139806 
L 257.544645 67.139806 
L 257.544645 66.315599 
L 258.981613 66.315599 
L 258.981613 65.491392 
L 260.313095 65.491392 
L 260.313095 64.667184 
L 261.539727 64.667184 
L 261.641842 63.01877 
L 265.307224 63.01877 
L 265.307224 62.194563 
L 265.713202 62.194563 
L 265.713202 61.370356 
L 265.941452 61.370356 
L 265.941452 60.546149 
L 266.49061 60.546149 
L 266.49061 59.721942 
L 268.749866 59.721942 
L 268.749866 58.897735 
L 269.265788 58.897735 
L 269.265788 58.073528 
L 270.363538 58.073528 
L 270.363538 57.24932 
L 270.551535 57.24932 
L 270.551535 56.425113 
L 272.709504 56.425113 
L 272.709504 55.600906 
L 274.780142 55.600906 
L 274.780142 54.776699 
L 275.140142 54.776699 
L 275.140142 53.952492 
L 278.768655 53.952492 
L 278.768655 50.655663 
L 278.884608 50.655663 
L 278.884608 49.831456 
L 280.042966 49.831456 
L 280.042966 49.007249 
L 280.789499 49.007249 
L 280.789499 48.183042 
L 281.506055 48.183042 
L 281.506055 47.358835 
L 318.887283 47.358835 
L 318.887283 46.534628 
L 321.787423 46.534628 
L 321.787423 45.710421 
L 329.144942 45.710421 
L 329.144942 44.886214 
L 329.756624 44.886214 
L 329.756624 44.062006 
L 332.831335 44.062006 
L 332.831335 43.237799 
L 334.873591 43.237799 
L 334.873591 42.413592 
L 347.00133 42.413592 
L 347.00133 41.589385 
L 348.288036 41.589385 
L 348.288036 40.765178 
L 348.645021 40.765178 
L 348.645021 39.940971 
L 350.996408 39.940971 
L 350.996408 39.116764 
L 353.375071 39.116764 
L 353.375071 38.292557 
L 358.766757 38.292557 
L 358.766757 37.46835 
L 359.653844 37.46835 
L 359.653844 36.644142 
L 361.161811 36.644142 
L 361.161811 34.995728 
L 361.617036 34.995728 
L 361.617036 34.171521 
L 363.085631 34.171521 
L 363.085631 33.347314 
L 363.888486 33.347314 
L 363.888486 32.523107 
L 364.135809 32.523107 
L 364.135809 31.6989 
L 365.769626 31.6989 
L 365.769626 30.874693 
L 366.831337 30.874693 
L 366.831337 30.050485 
L 367.229038 30.050485 
L 367.229038 29.226278 
L 369.308315 29.226278 
L 369.308315 28.402071 
L 370.500924 28.402071 
L 370.500924 27.577864 
L 373.034481 27.577864 
L 373.034481 26.753657 
L 373.612202 26.753657 
L 373.690942 25.105243 
L 374.683757 25.105243 
L 374.683757 24.281036 
L 375.278304 24.281036 
L 375.278304 23.456828 
L 377.514413 23.456828 
L 377.57705 21.808414 
L 380.219355 21.808414 
L 380.219355 20.984207 
L 381.694338 20.984207 
L 381.694338 20.16 
L 383.426691 20.16 
L 383.426691 20.16 
" clip-path="url(#p0aa1cda99f)" style="fill: none; stroke-dasharray: 14.8,6.4; stroke-dashoffset: 0; stroke: #55ac3d; stroke-width: 4"/>
   </g>
   <g id="patch_3">
    <path d="M 78.68 274.84 
L 78.68 20.16 
" style="fill: none; stroke: #000000; stroke-width: 0.8; stroke-linejoin: miter; stroke-linecap: square"/>
   </g>
   <g id="patch_4">
    <path d="M 433.8 274.84 
L 433.8 20.16 
" style="fill: none; stroke: #000000; stroke-width: 0.8; stroke-linejoin: miter; stroke-linecap: square"/>
   </g>
   <g id="patch_5">
    <path d="M 78.68 274.84 
L 433.8 274.84 
" style="fill: none; stroke: #000000; stroke-width: 0.8; stroke-linejoin: miter; stroke-linecap: square"/>
   </g>
   <g id="patch_6">
    <path d="M 78.68 20.16 
L 433.8 20.16 
" style="fill: none; stroke: #000000; stroke-width: 0.8; stroke-linejoin: miter; stroke-linecap: square"/>
   </g>
   <g id="legend_1">
    <g id="patch_7">
     <path d="M 221.164688 261.84 
L 415.6 261.84 
Q 420.8 261.84 420.8 256.64 
L 420.8 185.716875 
Q 420.8 180.516875 415.6 180.516875 
L 221.164688 180.516875 
Q 215.964688 180.516875 215.964688 185.716875 
L 215.964688 256.64 
Q 215.964688 261.84 221.164688 261.84 
z
" style="fill: #ffffff; opacity: 0.8; stroke: #cccccc; stroke-linejoin: miter"/>
    </g>
    <g id="line2d_37">
     <path d="M 226.364688 200.016875 
L 226.364688 200.016875 
L 252.364688 200.016875 
L 252.364688 200.016875 
L 278.364688 200.016875 
" style="fill: none; stroke: #4586bd; stroke-width: 4; stroke-linecap: square"/>
    </g>
    <g id="text_15">
     <!-- ITP -->
     <g transform="translate(299.164688 209.116875) scale(0.26 -0.26)">
      <defs>
       <path id="TimesNewRomanPSMT-49" d="M 1975 116 
L 1975 0 
L 159 0 
L 159 116 
L 309 116 
Q 572 116 691 269 
Q 766 369 766 750 
L 766 3488 
Q 766 3809 725 3913 
Q 694 3991 597 4047 
Q 459 4122 309 4122 
L 159 4122 
L 159 4238 
L 1975 4238 
L 1975 4122 
L 1822 4122 
Q 1563 4122 1444 3969 
Q 1366 3869 1366 3488 
L 1366 750 
Q 1366 428 1406 325 
Q 1438 247 1538 191 
Q 1672 116 1822 116 
L 1975 116 
z
" transform="scale(0.015625)"/>
       <path id="TimesNewRomanPSMT-54" d="M 3703 4238 
L 3750 3244 
L 3631 3244 
Q 3597 3506 3538 3619 
Q 3441 3800 3280 3886 
Q 3119 3972 2856 3972 
L 2259 3972 
L 2259 734 
Q 2259 344 2344 247 
Q 2463 116 2709 116 
L 2856 116 
L 2856 0 
L 1059 0 
L 1059 116 
L 1209 116 
Q 1478 116 1591 278 
Q 1659 378 1659 734 
L 1659 3972 
L 1150 3972 
Q 853 3972 728 3928 
Q 566 3869 450 3700 
Q 334 3531 313 3244 
L 194 3244 
L 244 4238 
L 3703 4238 
z
" transform="scale(0.015625)"/>
       <path id="TimesNewRomanPSMT-50" d="M 1313 1984 
L 1313 750 
Q 1313 350 1400 253 
Q 1519 116 1759 116 
L 1922 116 
L 1922 0 
L 106 0 
L 106 116 
L 266 116 
Q 534 116 650 291 
Q 713 388 713 750 
L 713 3488 
Q 713 3888 628 3984 
Q 506 4122 266 4122 
L 106 4122 
L 106 4238 
L 1659 4238 
Q 2228 4238 2556 4120 
Q 2884 4003 3109 3725 
Q 3334 3447 3334 3066 
Q 3334 2547 2992 2222 
Q 2650 1897 2025 1897 
Q 1872 1897 1694 1919 
Q 1516 1941 1313 1984 
z
M 1313 2163 
Q 1478 2131 1606 2115 
Q 1734 2100 1825 2100 
Q 2150 2100 2386 2351 
Q 2622 2603 2622 3003 
Q 2622 3278 2509 3514 
Q 2397 3750 2190 3867 
Q 1984 3984 1722 3984 
Q 1563 3984 1313 3925 
L 1313 2163 
z
" transform="scale(0.015625)"/>
      </defs>
      <use xlink:href="#TimesNewRomanPSMT-49"/>
      <use xlink:href="#TimesNewRomanPSMT-54" transform="translate(33.300781 0)"/>
      <use xlink:href="#TimesNewRomanPSMT-50" transform="translate(94.384766 0)"/>
     </g>
    </g>
    <g id="line2d_38">
     <path d="M 226.364688 236.778437 
L 226.364688 236.778437 
L 252.364688 236.778437 
L 252.364688 236.778437 
L 278.364688 236.778437 
" style="fill: none; stroke-dasharray: 14.8,6.4; stroke-dashoffset: 0; stroke: #55ac3d; stroke-width: 4"/>
    </g>
    <g id="text_16">
     <!-- Raw-RSSI -->
     <g transform="translate(299.164688 245.878437) scale(0.26 -0.26)">
      <defs>
       <path id="TimesNewRomanPSMT-52" d="M 4325 0 
L 3194 0 
L 1759 1981 
Q 1600 1975 1500 1975 
Q 1459 1975 1412 1976 
Q 1366 1978 1316 1981 
L 1316 750 
Q 1316 350 1403 253 
Q 1522 116 1759 116 
L 1925 116 
L 1925 0 
L 109 0 
L 109 116 
L 269 116 
Q 538 116 653 291 
Q 719 388 719 750 
L 719 3488 
Q 719 3888 631 3984 
Q 509 4122 269 4122 
L 109 4122 
L 109 4238 
L 1653 4238 
Q 2328 4238 2648 4139 
Q 2969 4041 3192 3777 
Q 3416 3513 3416 3147 
Q 3416 2756 3161 2468 
Q 2906 2181 2372 2063 
L 3247 847 
Q 3547 428 3762 290 
Q 3978 153 4325 116 
L 4325 0 
z
M 1316 2178 
Q 1375 2178 1419 2176 
Q 1463 2175 1491 2175 
Q 2097 2175 2405 2437 
Q 2713 2700 2713 3106 
Q 2713 3503 2464 3751 
Q 2216 4000 1806 4000 
Q 1625 4000 1316 3941 
L 1316 2178 
z
" transform="scale(0.015625)"/>
       <path id="TimesNewRomanPSMT-61" d="M 1822 413 
Q 1381 72 1269 19 
Q 1100 -59 909 -59 
Q 613 -59 420 144 
Q 228 347 228 678 
Q 228 888 322 1041 
Q 450 1253 767 1440 
Q 1084 1628 1822 1897 
L 1822 2009 
Q 1822 2438 1686 2597 
Q 1550 2756 1291 2756 
Q 1094 2756 978 2650 
Q 859 2544 859 2406 
L 866 2225 
Q 866 2081 792 2003 
Q 719 1925 600 1925 
Q 484 1925 411 2006 
Q 338 2088 338 2228 
Q 338 2497 613 2722 
Q 888 2947 1384 2947 
Q 1766 2947 2009 2819 
Q 2194 2722 2281 2516 
Q 2338 2381 2338 1966 
L 2338 994 
Q 2338 584 2353 492 
Q 2369 400 2405 369 
Q 2441 338 2488 338 
Q 2538 338 2575 359 
Q 2641 400 2828 588 
L 2828 413 
Q 2478 -56 2159 -56 
Q 2006 -56 1915 50 
Q 1825 156 1822 413 
z
M 1822 616 
L 1822 1706 
Q 1350 1519 1213 1441 
Q 966 1303 859 1153 
Q 753 1003 753 825 
Q 753 600 887 451 
Q 1022 303 1197 303 
Q 1434 303 1822 616 
z
" transform="scale(0.015625)"/>
       <path id="TimesNewRomanPSMT-77" d="M 41 2863 
L 1241 2863 
L 1241 2747 
Q 1075 2734 1023 2687 
Q 972 2641 972 2553 
Q 972 2456 1025 2319 
L 1638 672 
L 2253 2013 
L 2091 2434 
Q 2016 2622 1894 2694 
Q 1825 2738 1638 2747 
L 1638 2863 
L 3000 2863 
L 3000 2747 
Q 2775 2738 2681 2666 
Q 2619 2616 2619 2506 
Q 2619 2444 2644 2378 
L 3294 734 
L 3897 2319 
Q 3959 2488 3959 2588 
Q 3959 2647 3898 2694 
Q 3838 2741 3659 2747 
L 3659 2863 
L 4563 2863 
L 4563 2747 
Q 4291 2706 4163 2378 
L 3206 -88 
L 3078 -88 
L 2363 1741 
L 1528 -88 
L 1413 -88 
L 494 2319 
Q 403 2547 315 2626 
Q 228 2706 41 2747 
L 41 2863 
z
" transform="scale(0.015625)"/>
       <path id="TimesNewRomanPSMT-2d" d="M 259 1672 
L 1875 1672 
L 1875 1200 
L 259 1200 
L 259 1672 
z
" transform="scale(0.015625)"/>
       <path id="TimesNewRomanPSMT-53" d="M 2934 4334 
L 2934 2869 
L 2819 2869 
Q 2763 3291 2617 3541 
Q 2472 3791 2203 3937 
Q 1934 4084 1647 4084 
Q 1322 4084 1109 3886 
Q 897 3688 897 3434 
Q 897 3241 1031 3081 
Q 1225 2847 1953 2456 
Q 2547 2138 2764 1967 
Q 2981 1797 3098 1565 
Q 3216 1334 3216 1081 
Q 3216 600 2842 251 
Q 2469 -97 1881 -97 
Q 1697 -97 1534 -69 
Q 1438 -53 1133 45 
Q 828 144 747 144 
Q 669 144 623 97 
Q 578 50 556 -97 
L 441 -97 
L 441 1356 
L 556 1356 
Q 638 900 775 673 
Q 913 447 1195 297 
Q 1478 147 1816 147 
Q 2206 147 2432 353 
Q 2659 559 2659 841 
Q 2659 997 2573 1156 
Q 2488 1316 2306 1453 
Q 2184 1547 1640 1851 
Q 1097 2156 867 2337 
Q 638 2519 519 2737 
Q 400 2956 400 3219 
Q 400 3675 750 4004 
Q 1100 4334 1641 4334 
Q 1978 4334 2356 4169 
Q 2531 4091 2603 4091 
Q 2684 4091 2736 4139 
Q 2788 4188 2819 4334 
L 2934 4334 
z
" transform="scale(0.015625)"/>
      </defs>
      <use xlink:href="#TimesNewRomanPSMT-52"/>
      <use xlink:href="#TimesNewRomanPSMT-61" transform="translate(66.699219 0)"/>
      <use xlink:href="#TimesNewRomanPSMT-77" transform="translate(111.083984 0)"/>
      <use xlink:href="#TimesNewRomanPSMT-2d" transform="translate(183.300781 0)"/>
      <use xlink:href="#TimesNewRomanPSMT-52" transform="translate(216.601562 0)"/>
      <use xlink:href="#TimesNewRomanPSMT-53" transform="translate(283.300781 0)"/>
      <use xlink:href="#TimesNewRomanPSMT-53" transform="translate(338.916016 0)"/>
      <use xlink:href="#TimesNewRomanPSMT-49" transform="translate(394.53125 0)"/>
     </g>
    </g>
   </g>
  </g>
 </g>
 <defs>
  <clipPath id="p0aa1cda99f">
   <rect x="78.68" y="20.16" width="355.12" height="254.68"/>
  </clipPath>
 </defs>
</svg>
