<?xml version="1.0" encoding="utf-8" standalone="no"?>
<!DOCTYPE svg PUBLIC "-//W3C//DTD SVG 1.1//EN"
  "http://www.w3.org/Graphics/SVG/1.1/DTD/svg11.dtd">
<svg xmlns:xlink="http://www.w3.org/1999/xlink" width="460.8pt" height="345.6pt" viewBox="0 0 460.8 345.6" xmlns="http://www.w3.org/2000/svg" version="1.1">
 <metadata>
  <rdf:RDF xmlns:dc="http://purl.org/dc/elements/1.1/" xmlns:cc="http://creativecommons.org/ns#" xmlns:rdf="http://www.w3.org/1999/02/22-rdf-syntax-ns#">
   <cc:Work>
    <dc:type rdf:resource="http://purl.org/dc/dcmitype/StillImage"/>
    <dc:date>2025-09-04T18:42:04.231391</dc:date>
    <dc:format>image/svg+xml</dc:format>
    <dc:creator>
     <cc:Agent>
      <dc:title>Matplotlib v3.10.1, https://matplotlib.org/</dc:title>
     </cc:Agent>
    </dc:creator>
   </cc:Work>
  </rdf:RDF>
 </metadata>
 <defs>
  <style type="text/css">*{stroke-linejoin: round; stroke-linecap: butt}</style>
 </defs>
 <g id="figure_1">
  <g id="patch_1">
   <path d="M 0 345.6 
L 460.8 345.6 
L 460.8 0 
L 0 0 
z
" style="fill: #ffffff"/>
  </g>
  <g id="axes_1">
   <g id="patch_2">
    <path d="M 71.6825 277.1575 
L 450 277.1575 
L 450 12.403502 
L 71.6825 12.403502 
z
" style="fill: #ffffff"/>
   </g>
   <g id="matplotlib.axis_1">
    <g id="xtick_1">
     <g id="line2d_1">
      <path d="M 71.6825 277.1575 
L 71.6825 12.403502 
" clip-path="url(#p7f749a2c4d)" style="fill: none; stroke: #b0b0b0; stroke-width: 0.8; stroke-linecap: square"/>
     </g>
     <g id="line2d_2">
      <defs>
       <path id="md63ec95adf" d="M 0 0 
L 0 3.5 
" style="stroke: #000000; stroke-width: 0.8"/>
      </defs>
      <g>
       <use xlink:href="#md63ec95adf" x="71.6825" y="277.1575" style="stroke: #000000; stroke-width: 0.8"/>
      </g>
     </g>
     <g id="text_1">
      <!-- 0 -->
      <g transform="translate(66.1825 299.43375) scale(0.22 -0.22)">
       <defs>
        <path id="TimesNewRomanPSMT-30" d="M 231 2094 
Q 231 2819 450 3342 
Q 669 3866 1031 4122 
Q 1313 4325 1613 4325 
Q 2100 4325 2488 3828 
Q 2972 3213 2972 2159 
Q 2972 1422 2759 906 
Q 2547 391 2217 158 
Q 1888 -75 1581 -75 
Q 975 -75 572 641 
Q 231 1244 231 2094 
z
M 844 2016 
Q 844 1141 1059 588 
Q 1238 122 1591 122 
Q 1759 122 1940 273 
Q 2122 425 2216 781 
Q 2359 1319 2359 2297 
Q 2359 3022 2209 3506 
Q 2097 3866 1919 4016 
Q 1791 4119 1609 4119 
Q 1397 4119 1231 3928 
Q 1006 3669 925 3112 
Q 844 2556 844 2016 
z
" transform="scale(0.015625)"/>
       </defs>
       <use xlink:href="#TimesNewRomanPSMT-30"/>
      </g>
     </g>
    </g>
    <g id="xtick_2">
     <g id="line2d_3">
      <path d="M 113.717778 277.1575 
L 113.717778 12.403502 
" clip-path="url(#p7f749a2c4d)" style="fill: none; stroke: #b0b0b0; stroke-width: 0.8; stroke-linecap: square"/>
     </g>
     <g id="line2d_4">
      <g>
       <use xlink:href="#md63ec95adf" x="113.717778" y="277.1575" style="stroke: #000000; stroke-width: 0.8"/>
      </g>
     </g>
     <g id="text_2">
      <!-- 2 -->
      <g transform="translate(108.217778 299.43375) scale(0.22 -0.22)">
       <defs>
        <path id="TimesNewRomanPSMT-32" d="M 2934 816 
L 2638 0 
L 138 0 
L 138 116 
Q 1241 1122 1691 1759 
Q 2141 2397 2141 2925 
Q 2141 3328 1894 3587 
Q 1647 3847 1303 3847 
Q 991 3847 742 3664 
Q 494 3481 375 3128 
L 259 3128 
Q 338 3706 661 4015 
Q 984 4325 1469 4325 
Q 1984 4325 2329 3994 
Q 2675 3663 2675 3213 
Q 2675 2891 2525 2569 
Q 2294 2063 1775 1497 
Q 997 647 803 472 
L 1909 472 
Q 2247 472 2383 497 
Q 2519 522 2628 598 
Q 2738 675 2819 816 
L 2934 816 
z
" transform="scale(0.015625)"/>
       </defs>
       <use xlink:href="#TimesNewRomanPSMT-32"/>
      </g>
     </g>
    </g>
    <g id="xtick_3">
     <g id="line2d_5">
      <path d="M 155.753056 277.1575 
L 155.753056 12.403502 
" clip-path="url(#p7f749a2c4d)" style="fill: none; stroke: #b0b0b0; stroke-width: 0.8; stroke-linecap: square"/>
     </g>
     <g id="line2d_6">
      <g>
       <use xlink:href="#md63ec95adf" x="155.753056" y="277.1575" style="stroke: #000000; stroke-width: 0.8"/>
      </g>
     </g>
     <g id="text_3">
      <!-- 4 -->
      <g transform="translate(150.253056 299.43375) scale(0.22 -0.22)">
       <defs>
        <path id="TimesNewRomanPSMT-34" d="M 2978 1563 
L 2978 1119 
L 2409 1119 
L 2409 0 
L 1894 0 
L 1894 1119 
L 100 1119 
L 100 1519 
L 2066 4325 
L 2409 4325 
L 2409 1563 
L 2978 1563 
z
M 1894 1563 
L 1894 3666 
L 406 1563 
L 1894 1563 
z
" transform="scale(0.015625)"/>
       </defs>
       <use xlink:href="#TimesNewRomanPSMT-34"/>
      </g>
     </g>
    </g>
    <g id="xtick_4">
     <g id="line2d_7">
      <path d="M 197.788333 277.1575 
L 197.788333 12.403502 
" clip-path="url(#p7f749a2c4d)" style="fill: none; stroke: #b0b0b0; stroke-width: 0.8; stroke-linecap: square"/>
     </g>
     <g id="line2d_8">
      <g>
       <use xlink:href="#md63ec95adf" x="197.788333" y="277.1575" style="stroke: #000000; stroke-width: 0.8"/>
      </g>
     </g>
     <g id="text_4">
      <!-- 6 -->
      <g transform="translate(192.288333 299.43375) scale(0.22 -0.22)">
       <defs>
        <path id="TimesNewRomanPSMT-36" d="M 2869 4325 
L 2869 4209 
Q 2456 4169 2195 4045 
Q 1934 3922 1679 3669 
Q 1425 3416 1258 3105 
Q 1091 2794 978 2366 
Q 1428 2675 1881 2675 
Q 2316 2675 2634 2325 
Q 2953 1975 2953 1425 
Q 2953 894 2631 456 
Q 2244 -75 1606 -75 
Q 1172 -75 869 213 
Q 275 772 275 1663 
Q 275 2231 503 2743 
Q 731 3256 1154 3653 
Q 1578 4050 1965 4187 
Q 2353 4325 2688 4325 
L 2869 4325 
z
M 925 2138 
Q 869 1716 869 1456 
Q 869 1156 980 804 
Q 1091 453 1309 247 
Q 1469 100 1697 100 
Q 1969 100 2183 356 
Q 2397 613 2397 1088 
Q 2397 1622 2184 2012 
Q 1972 2403 1581 2403 
Q 1463 2403 1327 2353 
Q 1191 2303 925 2138 
z
" transform="scale(0.015625)"/>
       </defs>
       <use xlink:href="#TimesNewRomanPSMT-36"/>
      </g>
     </g>
    </g>
    <g id="xtick_5">
     <g id="line2d_9">
      <path d="M 239.823611 277.1575 
L 239.823611 12.403502 
" clip-path="url(#p7f749a2c4d)" style="fill: none; stroke: #b0b0b0; stroke-width: 0.8; stroke-linecap: square"/>
     </g>
     <g id="line2d_10">
      <g>
       <use xlink:href="#md63ec95adf" x="239.823611" y="277.1575" style="stroke: #000000; stroke-width: 0.8"/>
      </g>
     </g>
     <g id="text_5">
      <!-- 8 -->
      <g transform="translate(234.323611 299.43375) scale(0.22 -0.22)">
       <defs>
        <path id="TimesNewRomanPSMT-38" d="M 1228 2134 
Q 725 2547 579 2797 
Q 434 3047 434 3316 
Q 434 3728 753 4026 
Q 1072 4325 1600 4325 
Q 2113 4325 2425 4047 
Q 2738 3769 2738 3413 
Q 2738 3175 2569 2928 
Q 2400 2681 1866 2347 
Q 2416 1922 2594 1678 
Q 2831 1359 2831 1006 
Q 2831 559 2490 242 
Q 2150 -75 1597 -75 
Q 994 -75 656 303 
Q 388 606 388 966 
Q 388 1247 577 1523 
Q 766 1800 1228 2134 
z
M 1719 2469 
Q 2094 2806 2194 3001 
Q 2294 3197 2294 3444 
Q 2294 3772 2109 3958 
Q 1925 4144 1606 4144 
Q 1288 4144 1088 3959 
Q 888 3775 888 3528 
Q 888 3366 970 3203 
Q 1053 3041 1206 2894 
L 1719 2469 
z
M 1375 2016 
Q 1116 1797 991 1539 
Q 866 1281 866 981 
Q 866 578 1086 336 
Q 1306 94 1647 94 
Q 1984 94 2187 284 
Q 2391 475 2391 747 
Q 2391 972 2272 1150 
Q 2050 1481 1375 2016 
z
" transform="scale(0.015625)"/>
       </defs>
       <use xlink:href="#TimesNewRomanPSMT-38"/>
      </g>
     </g>
    </g>
    <g id="xtick_6">
     <g id="line2d_11">
      <path d="M 281.858889 277.1575 
L 281.858889 12.403502 
" clip-path="url(#p7f749a2c4d)" style="fill: none; stroke: #b0b0b0; stroke-width: 0.8; stroke-linecap: square"/>
     </g>
     <g id="line2d_12">
      <g>
       <use xlink:href="#md63ec95adf" x="281.858889" y="277.1575" style="stroke: #000000; stroke-width: 0.8"/>
      </g>
     </g>
     <g id="text_6">
      <!-- 10 -->
      <g transform="translate(270.858889 299.43375) scale(0.22 -0.22)">
       <defs>
        <path id="TimesNewRomanPSMT-31" d="M 750 3822 
L 1781 4325 
L 1884 4325 
L 1884 747 
Q 1884 391 1914 303 
Q 1944 216 2037 169 
Q 2131 122 2419 116 
L 2419 0 
L 825 0 
L 825 116 
Q 1125 122 1212 167 
Q 1300 213 1334 289 
Q 1369 366 1369 747 
L 1369 3034 
Q 1369 3497 1338 3628 
Q 1316 3728 1258 3775 
Q 1200 3822 1119 3822 
Q 1003 3822 797 3725 
L 750 3822 
z
" transform="scale(0.015625)"/>
       </defs>
       <use xlink:href="#TimesNewRomanPSMT-31"/>
       <use xlink:href="#TimesNewRomanPSMT-30" transform="translate(50 0)"/>
      </g>
     </g>
    </g>
    <g id="xtick_7">
     <g id="line2d_13">
      <path d="M 323.894167 277.1575 
L 323.894167 12.403502 
" clip-path="url(#p7f749a2c4d)" style="fill: none; stroke: #b0b0b0; stroke-width: 0.8; stroke-linecap: square"/>
     </g>
     <g id="line2d_14">
      <g>
       <use xlink:href="#md63ec95adf" x="323.894167" y="277.1575" style="stroke: #000000; stroke-width: 0.8"/>
      </g>
     </g>
     <g id="text_7">
      <!-- 12 -->
      <g transform="translate(312.894167 299.43375) scale(0.22 -0.22)">
       <use xlink:href="#TimesNewRomanPSMT-31"/>
       <use xlink:href="#TimesNewRomanPSMT-32" transform="translate(50 0)"/>
      </g>
     </g>
    </g>
    <g id="xtick_8">
     <g id="line2d_15">
      <path d="M 365.929444 277.1575 
L 365.929444 12.403502 
" clip-path="url(#p7f749a2c4d)" style="fill: none; stroke: #b0b0b0; stroke-width: 0.8; stroke-linecap: square"/>
     </g>
     <g id="line2d_16">
      <g>
       <use xlink:href="#md63ec95adf" x="365.929444" y="277.1575" style="stroke: #000000; stroke-width: 0.8"/>
      </g>
     </g>
     <g id="text_8">
      <!-- 14 -->
      <g transform="translate(354.929444 299.43375) scale(0.22 -0.22)">
       <use xlink:href="#TimesNewRomanPSMT-31"/>
       <use xlink:href="#TimesNewRomanPSMT-34" transform="translate(50 0)"/>
      </g>
     </g>
    </g>
    <g id="xtick_9">
     <g id="line2d_17">
      <path d="M 407.964722 277.1575 
L 407.964722 12.403502 
" clip-path="url(#p7f749a2c4d)" style="fill: none; stroke: #b0b0b0; stroke-width: 0.8; stroke-linecap: square"/>
     </g>
     <g id="line2d_18">
      <g>
       <use xlink:href="#md63ec95adf" x="407.964722" y="277.1575" style="stroke: #000000; stroke-width: 0.8"/>
      </g>
     </g>
     <g id="text_9">
      <!-- 16 -->
      <g transform="translate(396.964722 299.43375) scale(0.22 -0.22)">
       <use xlink:href="#TimesNewRomanPSMT-31"/>
       <use xlink:href="#TimesNewRomanPSMT-36" transform="translate(50 0)"/>
      </g>
     </g>
    </g>
    <g id="xtick_10">
     <g id="line2d_19">
      <path d="M 450 277.1575 
L 450 12.403502 
" clip-path="url(#p7f749a2c4d)" style="fill: none; stroke: #b0b0b0; stroke-width: 0.8; stroke-linecap: square"/>
     </g>
     <g id="line2d_20">
      <g>
       <use xlink:href="#md63ec95adf" x="450" y="277.1575" style="stroke: #000000; stroke-width: 0.8"/>
      </g>
     </g>
     <g id="text_10">
      <!-- 18 -->
      <g transform="translate(439 299.43375) scale(0.22 -0.22)">
       <use xlink:href="#TimesNewRomanPSMT-31"/>
       <use xlink:href="#TimesNewRomanPSMT-38" transform="translate(50 0)"/>
      </g>
     </g>
    </g>
    <g id="text_11">
     <!-- $\chi$ (dB) -->
     <g transform="translate(226.00125 326.339687) scale(0.26 -0.26)">
      <defs>
       <path id="DejaVuSans-Oblique-3c7" d="M 1922 -781 
L 1691 416 
L 394 -1334 
L -284 -1334 
L 1553 1141 
L 1269 2613 
Q 1194 3006 713 3006 
L 559 3006 
L 653 3500 
L 872 3494 
Q 1675 3472 1775 2950 
L 2006 1753 
L 3303 3503 
L 3981 3503 
L 2144 1028 
L 2428 -444 
Q 2503 -838 2984 -838 
L 3138 -838 
L 3044 -1331 
L 2825 -1325 
Q 2022 -1303 1922 -781 
z
" transform="scale(0.015625)"/>
       <path id="TimesNewRomanPSMT-20" transform="scale(0.015625)"/>
       <path id="TimesNewRomanPSMT-28" d="M 1988 -1253 
L 1988 -1369 
Q 1516 -1131 1200 -813 
Q 750 -359 506 256 
Q 263 872 263 1534 
Q 263 2503 741 3301 
Q 1219 4100 1988 4444 
L 1988 4313 
Q 1603 4100 1356 3731 
Q 1109 3363 987 2797 
Q 866 2231 866 1616 
Q 866 947 969 400 
Q 1050 -31 1165 -292 
Q 1281 -553 1476 -793 
Q 1672 -1034 1988 -1253 
z
" transform="scale(0.015625)"/>
       <path id="TimesNewRomanPSMT-64" d="M 2222 322 
Q 2013 103 1813 7 
Q 1613 -88 1381 -88 
Q 913 -88 563 304 
Q 213 697 213 1313 
Q 213 1928 600 2439 
Q 988 2950 1597 2950 
Q 1975 2950 2222 2709 
L 2222 3238 
Q 2222 3728 2198 3840 
Q 2175 3953 2125 3993 
Q 2075 4034 2000 4034 
Q 1919 4034 1784 3984 
L 1744 4094 
L 2597 4444 
L 2738 4444 
L 2738 1134 
Q 2738 631 2761 520 
Q 2784 409 2836 365 
Q 2888 322 2956 322 
Q 3041 322 3181 375 
L 3216 266 
L 2366 -88 
L 2222 -88 
L 2222 322 
z
M 2222 541 
L 2222 2016 
Q 2203 2228 2109 2403 
Q 2016 2578 1861 2667 
Q 1706 2756 1559 2756 
Q 1284 2756 1069 2509 
Q 784 2184 784 1559 
Q 784 928 1059 592 
Q 1334 256 1672 256 
Q 1956 256 2222 541 
z
" transform="scale(0.015625)"/>
       <path id="TimesNewRomanPSMT-42" d="M 2956 2163 
Q 3397 2069 3616 1863 
Q 3919 1575 3919 1159 
Q 3919 844 3719 555 
Q 3519 266 3170 133 
Q 2822 0 2106 0 
L 106 0 
L 106 116 
L 266 116 
Q 531 116 647 284 
Q 719 394 719 750 
L 719 3488 
Q 719 3881 628 3984 
Q 506 4122 266 4122 
L 106 4122 
L 106 4238 
L 1938 4238 
Q 2450 4238 2759 4163 
Q 3228 4050 3475 3764 
Q 3722 3478 3722 3106 
Q 3722 2788 3528 2536 
Q 3334 2284 2956 2163 
z
M 1319 2331 
Q 1434 2309 1582 2298 
Q 1731 2288 1909 2288 
Q 2366 2288 2595 2386 
Q 2825 2484 2947 2687 
Q 3069 2891 3069 3131 
Q 3069 3503 2766 3765 
Q 2463 4028 1881 4028 
Q 1569 4028 1319 3959 
L 1319 2331 
z
M 1319 306 
Q 1681 222 2034 222 
Q 2600 222 2897 476 
Q 3194 731 3194 1106 
Q 3194 1353 3059 1581 
Q 2925 1809 2622 1940 
Q 2319 2072 1872 2072 
Q 1678 2072 1540 2065 
Q 1403 2059 1319 2044 
L 1319 306 
z
" transform="scale(0.015625)"/>
       <path id="TimesNewRomanPSMT-29" d="M 144 4313 
L 144 4444 
Q 619 4209 934 3891 
Q 1381 3434 1625 2820 
Q 1869 2206 1869 1541 
Q 1869 572 1392 -226 
Q 916 -1025 144 -1369 
L 144 -1253 
Q 528 -1038 776 -670 
Q 1025 -303 1145 264 
Q 1266 831 1266 1447 
Q 1266 2113 1163 2663 
Q 1084 3094 967 3353 
Q 850 3613 656 3853 
Q 463 4094 144 4313 
z
" transform="scale(0.015625)"/>
      </defs>
      <use xlink:href="#DejaVuSans-Oblique-3c7" transform="translate(0 0.5625)"/>
      <use xlink:href="#TimesNewRomanPSMT-20" transform="translate(59.179688 0.5625)"/>
      <use xlink:href="#TimesNewRomanPSMT-28" transform="translate(84.179688 0.5625)"/>
      <use xlink:href="#TimesNewRomanPSMT-64" transform="translate(117.480469 0.5625)"/>
      <use xlink:href="#TimesNewRomanPSMT-42" transform="translate(167.480469 0.5625)"/>
      <use xlink:href="#TimesNewRomanPSMT-29" transform="translate(234.179688 0.5625)"/>
     </g>
    </g>
   </g>
   <g id="matplotlib.axis_2">
    <g id="ytick_1">
     <g id="line2d_21">
      <path d="M 71.6825 277.1575 
L 450 277.1575 
" clip-path="url(#p7f749a2c4d)" style="fill: none; stroke: #b0b0b0; stroke-width: 0.8; stroke-linecap: square"/>
     </g>
     <g id="line2d_22">
      <defs>
       <path id="mfb45177121" d="M 0 0 
L -3.5 0 
" style="stroke: #000000; stroke-width: 0.8"/>
      </defs>
      <g>
       <use xlink:href="#mfb45177121" x="71.6825" y="277.1575" style="stroke: #000000; stroke-width: 0.8"/>
      </g>
     </g>
     <g id="text_12">
      <!-- 5 -->
      <g transform="translate(53.6825 284.795625) scale(0.22 -0.22)">
       <defs>
        <path id="TimesNewRomanPSMT-35" d="M 2778 4238 
L 2534 3706 
L 1259 3706 
L 981 3138 
Q 1809 3016 2294 2522 
Q 2709 2097 2709 1522 
Q 2709 1188 2573 903 
Q 2438 619 2231 419 
Q 2025 219 1772 97 
Q 1413 -75 1034 -75 
Q 653 -75 479 54 
Q 306 184 306 341 
Q 306 428 378 495 
Q 450 563 559 563 
Q 641 563 702 538 
Q 763 513 909 409 
Q 1144 247 1384 247 
Q 1750 247 2026 523 
Q 2303 800 2303 1197 
Q 2303 1581 2056 1914 
Q 1809 2247 1375 2428 
Q 1034 2569 447 2591 
L 1259 4238 
L 2778 4238 
z
" transform="scale(0.015625)"/>
       </defs>
       <use xlink:href="#TimesNewRomanPSMT-35"/>
      </g>
     </g>
    </g>
    <g id="ytick_2">
     <g id="line2d_23">
      <path d="M 71.6825 233.031834 
L 450 233.031834 
" clip-path="url(#p7f749a2c4d)" style="fill: none; stroke: #b0b0b0; stroke-width: 0.8; stroke-linecap: square"/>
     </g>
     <g id="line2d_24">
      <g>
       <use xlink:href="#mfb45177121" x="71.6825" y="233.031834" style="stroke: #000000; stroke-width: 0.8"/>
      </g>
     </g>
     <g id="text_13">
      <!-- 15 -->
      <g transform="translate(42.6825 240.669959) scale(0.22 -0.22)">
       <use xlink:href="#TimesNewRomanPSMT-31"/>
       <use xlink:href="#TimesNewRomanPSMT-35" transform="translate(50 0)"/>
      </g>
     </g>
    </g>
    <g id="ytick_3">
     <g id="line2d_25">
      <path d="M 71.6825 188.906167 
L 450 188.906167 
" clip-path="url(#p7f749a2c4d)" style="fill: none; stroke: #b0b0b0; stroke-width: 0.8; stroke-linecap: square"/>
     </g>
     <g id="line2d_26">
      <g>
       <use xlink:href="#mfb45177121" x="71.6825" y="188.906167" style="stroke: #000000; stroke-width: 0.8"/>
      </g>
     </g>
     <g id="text_14">
      <!-- 25 -->
      <g transform="translate(42.6825 196.544292) scale(0.22 -0.22)">
       <use xlink:href="#TimesNewRomanPSMT-32"/>
       <use xlink:href="#TimesNewRomanPSMT-35" transform="translate(50 0)"/>
      </g>
     </g>
    </g>
    <g id="ytick_4">
     <g id="line2d_27">
      <path d="M 71.6825 144.780501 
L 450 144.780501 
" clip-path="url(#p7f749a2c4d)" style="fill: none; stroke: #b0b0b0; stroke-width: 0.8; stroke-linecap: square"/>
     </g>
     <g id="line2d_28">
      <g>
       <use xlink:href="#mfb45177121" x="71.6825" y="144.780501" style="stroke: #000000; stroke-width: 0.8"/>
      </g>
     </g>
     <g id="text_15">
      <!-- 35 -->
      <g transform="translate(42.6825 152.418626) scale(0.22 -0.22)">
       <defs>
        <path id="TimesNewRomanPSMT-33" d="M 325 3431 
Q 506 3859 782 4092 
Q 1059 4325 1472 4325 
Q 1981 4325 2253 3994 
Q 2459 3747 2459 3466 
Q 2459 3003 1878 2509 
Q 2269 2356 2469 2072 
Q 2669 1788 2669 1403 
Q 2669 853 2319 450 
Q 1863 -75 997 -75 
Q 569 -75 414 31 
Q 259 138 259 259 
Q 259 350 332 419 
Q 406 488 509 488 
Q 588 488 669 463 
Q 722 447 909 348 
Q 1097 250 1169 231 
Q 1284 197 1416 197 
Q 1734 197 1970 444 
Q 2206 691 2206 1028 
Q 2206 1275 2097 1509 
Q 2016 1684 1919 1775 
Q 1784 1900 1550 2001 
Q 1316 2103 1072 2103 
L 972 2103 
L 972 2197 
Q 1219 2228 1467 2375 
Q 1716 2522 1828 2728 
Q 1941 2934 1941 3181 
Q 1941 3503 1739 3701 
Q 1538 3900 1238 3900 
Q 753 3900 428 3381 
L 325 3431 
z
" transform="scale(0.015625)"/>
       </defs>
       <use xlink:href="#TimesNewRomanPSMT-33"/>
       <use xlink:href="#TimesNewRomanPSMT-35" transform="translate(50 0)"/>
      </g>
     </g>
    </g>
    <g id="ytick_5">
     <g id="line2d_29">
      <path d="M 71.6825 100.654835 
L 450 100.654835 
" clip-path="url(#p7f749a2c4d)" style="fill: none; stroke: #b0b0b0; stroke-width: 0.8; stroke-linecap: square"/>
     </g>
     <g id="line2d_30">
      <g>
       <use xlink:href="#mfb45177121" x="71.6825" y="100.654835" style="stroke: #000000; stroke-width: 0.8"/>
      </g>
     </g>
     <g id="text_16">
      <!-- 45 -->
      <g transform="translate(42.6825 108.29296) scale(0.22 -0.22)">
       <use xlink:href="#TimesNewRomanPSMT-34"/>
       <use xlink:href="#TimesNewRomanPSMT-35" transform="translate(50 0)"/>
      </g>
     </g>
    </g>
    <g id="ytick_6">
     <g id="line2d_31">
      <path d="M 71.6825 56.529168 
L 450 56.529168 
" clip-path="url(#p7f749a2c4d)" style="fill: none; stroke: #b0b0b0; stroke-width: 0.8; stroke-linecap: square"/>
     </g>
     <g id="line2d_32">
      <g>
       <use xlink:href="#mfb45177121" x="71.6825" y="56.529168" style="stroke: #000000; stroke-width: 0.8"/>
      </g>
     </g>
     <g id="text_17">
      <!-- 55 -->
      <g transform="translate(42.6825 64.167293) scale(0.22 -0.22)">
       <use xlink:href="#TimesNewRomanPSMT-35"/>
       <use xlink:href="#TimesNewRomanPSMT-35" transform="translate(50 0)"/>
      </g>
     </g>
    </g>
    <g id="ytick_7">
     <g id="line2d_33">
      <path d="M 71.6825 12.403502 
L 450 12.403502 
" clip-path="url(#p7f749a2c4d)" style="fill: none; stroke: #b0b0b0; stroke-width: 0.8; stroke-linecap: square"/>
     </g>
     <g id="line2d_34">
      <g>
       <use xlink:href="#mfb45177121" x="71.6825" y="12.403502" style="stroke: #000000; stroke-width: 0.8"/>
      </g>
     </g>
     <g id="text_18">
      <!-- 65 -->
      <g transform="translate(42.6825 20.041627) scale(0.22 -0.22)">
       <use xlink:href="#TimesNewRomanPSMT-36"/>
       <use xlink:href="#TimesNewRomanPSMT-35" transform="translate(50 0)"/>
      </g>
     </g>
    </g>
    <g id="text_19">
     <!-- h$(\chi)$ (dB) -->
     <g transform="translate(32.9625 196.260501) rotate(-90) scale(0.26 -0.26)">
      <defs>
       <path id="TimesNewRomanPSMT-68" d="M 1041 4444 
L 1041 2350 
Q 1388 2731 1591 2839 
Q 1794 2947 1997 2947 
Q 2241 2947 2416 2812 
Q 2591 2678 2675 2391 
Q 2734 2191 2734 1659 
L 2734 647 
Q 2734 375 2778 275 
Q 2809 200 2884 156 
Q 2959 113 3159 113 
L 3159 0 
L 1753 0 
L 1753 113 
L 1819 113 
Q 2019 113 2097 173 
Q 2175 234 2206 353 
Q 2216 403 2216 647 
L 2216 1659 
Q 2216 2128 2167 2275 
Q 2119 2422 2012 2495 
Q 1906 2569 1756 2569 
Q 1603 2569 1437 2487 
Q 1272 2406 1041 2159 
L 1041 647 
Q 1041 353 1073 281 
Q 1106 209 1195 161 
Q 1284 113 1503 113 
L 1503 0 
L 84 0 
L 84 113 
Q 275 113 384 172 
Q 447 203 484 290 
Q 522 378 522 647 
L 522 3238 
Q 522 3728 498 3840 
Q 475 3953 426 3993 
Q 378 4034 297 4034 
Q 231 4034 84 3984 
L 41 4094 
L 897 4444 
L 1041 4444 
z
" transform="scale(0.015625)"/>
       <path id="DejaVuSans-28" d="M 1984 4856 
Q 1566 4138 1362 3434 
Q 1159 2731 1159 2009 
Q 1159 1288 1364 580 
Q 1569 -128 1984 -844 
L 1484 -844 
Q 1016 -109 783 600 
Q 550 1309 550 2009 
Q 550 2706 781 3412 
Q 1013 4119 1484 4856 
L 1984 4856 
z
" transform="scale(0.015625)"/>
       <path id="DejaVuSans-29" d="M 513 4856 
L 1013 4856 
Q 1481 4119 1714 3412 
Q 1947 2706 1947 2009 
Q 1947 1309 1714 600 
Q 1481 -109 1013 -844 
L 513 -844 
Q 928 -128 1133 580 
Q 1338 1288 1338 2009 
Q 1338 2731 1133 3434 
Q 928 4138 513 4856 
z
" transform="scale(0.015625)"/>
      </defs>
      <use xlink:href="#TimesNewRomanPSMT-68" transform="translate(0 0.125)"/>
      <use xlink:href="#DejaVuSans-28" transform="translate(50 0.125)"/>
      <use xlink:href="#DejaVuSans-Oblique-3c7" transform="translate(89.013672 0.125)"/>
      <use xlink:href="#DejaVuSans-29" transform="translate(148.193359 0.125)"/>
      <use xlink:href="#TimesNewRomanPSMT-20" transform="translate(187.207031 0.125)"/>
      <use xlink:href="#TimesNewRomanPSMT-28" transform="translate(212.207031 0.125)"/>
      <use xlink:href="#TimesNewRomanPSMT-64" transform="translate(245.507812 0.125)"/>
      <use xlink:href="#TimesNewRomanPSMT-42" transform="translate(295.507812 0.125)"/>
      <use xlink:href="#TimesNewRomanPSMT-29" transform="translate(362.207031 0.125)"/>
     </g>
    </g>
   </g>
   <g id="line2d_35">
    <path d="M 71.6825 124.556237 
L 97.954549 137.548795 
L 124.226597 151.619979 
L 150.498646 163.533909 
L 176.770694 175.668468 
L 203.042743 185.596742 
L 229.314792 195.083761 
L 255.58684 202.805752 
L 281.858889 211.704428 
L 308.130937 219.352877 
L 334.402986 227.883839 
" clip-path="url(#p7f749a2c4d)" style="fill: none; stroke: #1e90ff; stroke-width: 3; stroke-linecap: square"/>
    <defs>
     <path id="mf27b6cc49c" d="M 0 5 
C 1.326016 5 2.597899 4.473168 3.535534 3.535534 
C 4.473168 2.597899 5 1.326016 5 0 
C 5 -1.326016 4.473168 -2.597899 3.535534 -3.535534 
C 2.597899 -4.473168 1.326016 -5 0 -5 
C -1.326016 -5 -2.597899 -4.473168 -3.535534 -3.535534 
C -4.473168 -2.597899 -5 -1.326016 -5 0 
C -5 1.326016 -4.473168 2.597899 -3.535534 3.535534 
C -2.597899 4.473168 -1.326016 5 0 5 
z
" style="stroke: #1e90ff; stroke-width: 2"/>
    </defs>
    <g clip-path="url(#p7f749a2c4d)">
     <use xlink:href="#mf27b6cc49c" x="71.6825" y="124.556237" style="fill-opacity: 0; stroke: #1e90ff; stroke-width: 2"/>
     <use xlink:href="#mf27b6cc49c" x="97.954549" y="137.548795" style="fill-opacity: 0; stroke: #1e90ff; stroke-width: 2"/>
     <use xlink:href="#mf27b6cc49c" x="124.226597" y="151.619979" style="fill-opacity: 0; stroke: #1e90ff; stroke-width: 2"/>
     <use xlink:href="#mf27b6cc49c" x="150.498646" y="163.533909" style="fill-opacity: 0; stroke: #1e90ff; stroke-width: 2"/>
     <use xlink:href="#mf27b6cc49c" x="176.770694" y="175.668468" style="fill-opacity: 0; stroke: #1e90ff; stroke-width: 2"/>
     <use xlink:href="#mf27b6cc49c" x="203.042743" y="185.596742" style="fill-opacity: 0; stroke: #1e90ff; stroke-width: 2"/>
     <use xlink:href="#mf27b6cc49c" x="229.314792" y="195.083761" style="fill-opacity: 0; stroke: #1e90ff; stroke-width: 2"/>
     <use xlink:href="#mf27b6cc49c" x="255.58684" y="202.805752" style="fill-opacity: 0; stroke: #1e90ff; stroke-width: 2"/>
     <use xlink:href="#mf27b6cc49c" x="281.858889" y="211.704428" style="fill-opacity: 0; stroke: #1e90ff; stroke-width: 2"/>
     <use xlink:href="#mf27b6cc49c" x="308.130937" y="219.352877" style="fill-opacity: 0; stroke: #1e90ff; stroke-width: 2"/>
     <use xlink:href="#mf27b6cc49c" x="334.402986" y="227.883839" style="fill-opacity: 0; stroke: #1e90ff; stroke-width: 2"/>
    </g>
   </g>
   <g id="line2d_36">
    <path d="M 71.6825 130.219031 
L 97.954549 144.52593 
L 124.226597 154.393593 
L 150.498646 165.23105 
L 176.770694 177.717159 
L 203.042743 188.748576 
L 229.314792 203.877376 
L 255.58684 204.94415 
L 281.858889 213.175284 
L 308.130937 219.369849 
L 334.402986 229.564817 
L 360.675035 240.596234 
L 386.947083 246.269534 
L 413.219132 256.876665 
" clip-path="url(#p7f749a2c4d)" style="fill: none; stroke-dasharray: 11.1,4.8; stroke-dashoffset: 0; stroke: #228b22; stroke-width: 3"/>
    <defs>
     <path id="m3c84026ec7" d="M -5 5 
L 5 5 
L 5 -5 
L -5 -5 
z
" style="stroke: #228b22; stroke-width: 2; stroke-linejoin: miter"/>
    </defs>
    <g clip-path="url(#p7f749a2c4d)">
     <use xlink:href="#m3c84026ec7" x="71.6825" y="130.219031" style="fill-opacity: 0; stroke: #228b22; stroke-width: 2; stroke-linejoin: miter"/>
     <use xlink:href="#m3c84026ec7" x="97.954549" y="144.52593" style="fill-opacity: 0; stroke: #228b22; stroke-width: 2; stroke-linejoin: miter"/>
     <use xlink:href="#m3c84026ec7" x="124.226597" y="154.393593" style="fill-opacity: 0; stroke: #228b22; stroke-width: 2; stroke-linejoin: miter"/>
     <use xlink:href="#m3c84026ec7" x="150.498646" y="165.23105" style="fill-opacity: 0; stroke: #228b22; stroke-width: 2; stroke-linejoin: miter"/>
     <use xlink:href="#m3c84026ec7" x="176.770694" y="177.717159" style="fill-opacity: 0; stroke: #228b22; stroke-width: 2; stroke-linejoin: miter"/>
     <use xlink:href="#m3c84026ec7" x="203.042743" y="188.748576" style="fill-opacity: 0; stroke: #228b22; stroke-width: 2; stroke-linejoin: miter"/>
     <use xlink:href="#m3c84026ec7" x="229.314792" y="203.877376" style="fill-opacity: 0; stroke: #228b22; stroke-width: 2; stroke-linejoin: miter"/>
     <use xlink:href="#m3c84026ec7" x="255.58684" y="204.94415" style="fill-opacity: 0; stroke: #228b22; stroke-width: 2; stroke-linejoin: miter"/>
     <use xlink:href="#m3c84026ec7" x="281.858889" y="213.175284" style="fill-opacity: 0; stroke: #228b22; stroke-width: 2; stroke-linejoin: miter"/>
     <use xlink:href="#m3c84026ec7" x="308.130937" y="219.369849" style="fill-opacity: 0; stroke: #228b22; stroke-width: 2; stroke-linejoin: miter"/>
     <use xlink:href="#m3c84026ec7" x="334.402986" y="229.564817" style="fill-opacity: 0; stroke: #228b22; stroke-width: 2; stroke-linejoin: miter"/>
     <use xlink:href="#m3c84026ec7" x="360.675035" y="240.596234" style="fill-opacity: 0; stroke: #228b22; stroke-width: 2; stroke-linejoin: miter"/>
     <use xlink:href="#m3c84026ec7" x="386.947083" y="246.269534" style="fill-opacity: 0; stroke: #228b22; stroke-width: 2; stroke-linejoin: miter"/>
     <use xlink:href="#m3c84026ec7" x="413.219132" y="256.876665" style="fill-opacity: 0; stroke: #228b22; stroke-width: 2; stroke-linejoin: miter"/>
    </g>
   </g>
   <g id="line2d_37">
    <path d="M 71.6825 134.852226 
L 97.954549 145.883643 
L 124.226597 157.356316 
L 150.498646 171.255901 
L 176.770694 181.404804 
L 203.042743 192.436221 
L 229.314792 200.820097 
L 255.58684 209.498145 
L 281.858889 218.690992 
L 308.130937 227.074869 
L 334.402986 236.341259 
" clip-path="url(#p7f749a2c4d)" style="fill: none; stroke-dasharray: 19.2,4.8,3,4.8; stroke-dashoffset: 0; stroke: #ff8c00; stroke-width: 3"/>
    <defs>
     <path id="mfab06797e6" d="M 0 -5 
L -5 5 
L 5 5 
z
" style="stroke: #ff8c00; stroke-width: 2; stroke-linejoin: miter"/>
    </defs>
    <g clip-path="url(#p7f749a2c4d)">
     <use xlink:href="#mfab06797e6" x="71.6825" y="134.852226" style="fill-opacity: 0; stroke: #ff8c00; stroke-width: 2; stroke-linejoin: miter"/>
     <use xlink:href="#mfab06797e6" x="97.954549" y="145.883643" style="fill-opacity: 0; stroke: #ff8c00; stroke-width: 2; stroke-linejoin: miter"/>
     <use xlink:href="#mfab06797e6" x="124.226597" y="157.356316" style="fill-opacity: 0; stroke: #ff8c00; stroke-width: 2; stroke-linejoin: miter"/>
     <use xlink:href="#mfab06797e6" x="150.498646" y="171.255901" style="fill-opacity: 0; stroke: #ff8c00; stroke-width: 2; stroke-linejoin: miter"/>
     <use xlink:href="#mfab06797e6" x="176.770694" y="181.404804" style="fill-opacity: 0; stroke: #ff8c00; stroke-width: 2; stroke-linejoin: miter"/>
     <use xlink:href="#mfab06797e6" x="203.042743" y="192.436221" style="fill-opacity: 0; stroke: #ff8c00; stroke-width: 2; stroke-linejoin: miter"/>
     <use xlink:href="#mfab06797e6" x="229.314792" y="200.820097" style="fill-opacity: 0; stroke: #ff8c00; stroke-width: 2; stroke-linejoin: miter"/>
     <use xlink:href="#mfab06797e6" x="255.58684" y="209.498145" style="fill-opacity: 0; stroke: #ff8c00; stroke-width: 2; stroke-linejoin: miter"/>
     <use xlink:href="#mfab06797e6" x="281.858889" y="218.690992" style="fill-opacity: 0; stroke: #ff8c00; stroke-width: 2; stroke-linejoin: miter"/>
     <use xlink:href="#mfab06797e6" x="308.130937" y="227.074869" style="fill-opacity: 0; stroke: #ff8c00; stroke-width: 2; stroke-linejoin: miter"/>
     <use xlink:href="#mfab06797e6" x="334.402986" y="236.341259" style="fill-opacity: 0; stroke: #ff8c00; stroke-width: 2; stroke-linejoin: miter"/>
    </g>
   </g>
   <g id="line2d_38">
    <path d="M 71.6825 83.004568 
L 97.954549 92.932843 
L 124.226597 102.861118 
L 150.498646 111.52866 
L 176.770694 120.511385 
L 203.042743 129.081947 
L 229.314792 136.294796 
L 255.58684 145.035072 
L 281.858889 152.817676 
L 308.130937 158.272772 
L 334.402986 165.372479 
L 360.675035 169.813331 
L 386.947083 177.139323 
L 413.219132 185.596742 
L 439.491181 193.658162 
" clip-path="url(#p7f749a2c4d)" style="fill: none; stroke-dasharray: 3,4.95; stroke-dashoffset: 0; stroke: #cd5c5c; stroke-width: 3"/>
    <defs>
     <path id="md24a617487" d="M -0 5 
L 5 -5 
L -5 -5 
z
" style="stroke: #cd5c5c; stroke-width: 2; stroke-linejoin: miter"/>
    </defs>
    <g clip-path="url(#p7f749a2c4d)">
     <use xlink:href="#md24a617487" x="71.6825" y="83.004568" style="fill-opacity: 0; stroke: #cd5c5c; stroke-width: 2; stroke-linejoin: miter"/>
     <use xlink:href="#md24a617487" x="97.954549" y="92.932843" style="fill-opacity: 0; stroke: #cd5c5c; stroke-width: 2; stroke-linejoin: miter"/>
     <use xlink:href="#md24a617487" x="124.226597" y="102.861118" style="fill-opacity: 0; stroke: #cd5c5c; stroke-width: 2; stroke-linejoin: miter"/>
     <use xlink:href="#md24a617487" x="150.498646" y="111.52866" style="fill-opacity: 0; stroke: #cd5c5c; stroke-width: 2; stroke-linejoin: miter"/>
     <use xlink:href="#md24a617487" x="176.770694" y="120.511385" style="fill-opacity: 0; stroke: #cd5c5c; stroke-width: 2; stroke-linejoin: miter"/>
     <use xlink:href="#md24a617487" x="203.042743" y="129.081947" style="fill-opacity: 0; stroke: #cd5c5c; stroke-width: 2; stroke-linejoin: miter"/>
     <use xlink:href="#md24a617487" x="229.314792" y="136.294796" style="fill-opacity: 0; stroke: #cd5c5c; stroke-width: 2; stroke-linejoin: miter"/>
     <use xlink:href="#md24a617487" x="255.58684" y="145.035072" style="fill-opacity: 0; stroke: #cd5c5c; stroke-width: 2; stroke-linejoin: miter"/>
     <use xlink:href="#md24a617487" x="281.858889" y="152.817676" style="fill-opacity: 0; stroke: #cd5c5c; stroke-width: 2; stroke-linejoin: miter"/>
     <use xlink:href="#md24a617487" x="308.130937" y="158.272772" style="fill-opacity: 0; stroke: #cd5c5c; stroke-width: 2; stroke-linejoin: miter"/>
     <use xlink:href="#md24a617487" x="334.402986" y="165.372479" style="fill-opacity: 0; stroke: #cd5c5c; stroke-width: 2; stroke-linejoin: miter"/>
     <use xlink:href="#md24a617487" x="360.675035" y="169.813331" style="fill-opacity: 0; stroke: #cd5c5c; stroke-width: 2; stroke-linejoin: miter"/>
     <use xlink:href="#md24a617487" x="386.947083" y="177.139323" style="fill-opacity: 0; stroke: #cd5c5c; stroke-width: 2; stroke-linejoin: miter"/>
     <use xlink:href="#md24a617487" x="413.219132" y="185.596742" style="fill-opacity: 0; stroke: #cd5c5c; stroke-width: 2; stroke-linejoin: miter"/>
     <use xlink:href="#md24a617487" x="439.491181" y="193.658162" style="fill-opacity: 0; stroke: #cd5c5c; stroke-width: 2; stroke-linejoin: miter"/>
    </g>
   </g>
   <g id="patch_3">
    <path d="M 71.6825 277.1575 
L 71.6825 12.403502 
" style="fill: none; stroke: #000000; stroke-width: 0.8; stroke-linejoin: miter; stroke-linecap: square"/>
   </g>
   <g id="patch_4">
    <path d="M 450 277.1575 
L 450 12.403502 
" style="fill: none; stroke: #000000; stroke-width: 0.8; stroke-linejoin: miter; stroke-linecap: square"/>
   </g>
   <g id="patch_5">
    <path d="M 71.6825 277.1575 
L 450 277.1575 
" style="fill: none; stroke: #000000; stroke-width: 0.8; stroke-linejoin: miter; stroke-linecap: square"/>
   </g>
   <g id="patch_6">
    <path d="M 71.6825 12.403502 
L 450 12.403502 
" style="fill: none; stroke: #000000; stroke-width: 0.8; stroke-linejoin: miter; stroke-linecap: square"/>
   </g>
   <g id="legend_1">
    <g id="patch_7">
     <path d="M 297.55625 141.516002 
L 436 141.516002 
Q 440 141.516002 440 137.516002 
L 440 26.403502 
Q 440 22.403502 436 22.403502 
L 297.55625 22.403502 
Q 293.55625 22.403502 293.55625 26.403502 
L 293.55625 137.516002 
Q 293.55625 141.516002 297.55625 141.516002 
z
" style="fill: #ffffff; opacity: 0.8; stroke: #cccccc; stroke-linejoin: miter"/>
    </g>
    <g id="line2d_39">
     <path d="M 301.55625 37.403502 
L 321.55625 37.403502 
L 341.55625 37.403502 
" style="fill: none; stroke: #1e90ff; stroke-width: 3; stroke-linecap: square"/>
     <g>
      <use xlink:href="#mf27b6cc49c" x="321.55625" y="37.403502" style="fill-opacity: 0; stroke: #1e90ff; stroke-width: 2"/>
     </g>
    </g>
    <g id="text_20">
     <!-- Outdoors -->
     <g transform="translate(357.55625 44.403502) scale(0.2 -0.2)">
      <defs>
       <path id="TimesNewRomanPSMT-4f" d="M 2341 4334 
Q 3166 4334 3770 3707 
Q 4375 3081 4375 2144 
Q 4375 1178 3765 540 
Q 3156 -97 2291 -97 
Q 1416 -97 820 525 
Q 225 1147 225 2134 
Q 225 3144 913 3781 
Q 1509 4334 2341 4334 
z
M 2281 4106 
Q 1713 4106 1369 3684 
Q 941 3159 941 2147 
Q 941 1109 1384 550 
Q 1725 125 2284 125 
Q 2881 125 3270 590 
Q 3659 1056 3659 2059 
Q 3659 3147 3231 3681 
Q 2888 4106 2281 4106 
z
" transform="scale(0.015625)"/>
       <path id="TimesNewRomanPSMT-75" d="M 2709 2863 
L 2709 1128 
Q 2709 631 2732 520 
Q 2756 409 2807 365 
Q 2859 322 2928 322 
Q 3025 322 3147 375 
L 3191 266 
L 2334 -88 
L 2194 -88 
L 2194 519 
Q 1825 119 1631 15 
Q 1438 -88 1222 -88 
Q 981 -88 804 51 
Q 628 191 559 409 
Q 491 628 491 1028 
L 491 2306 
Q 491 2509 447 2587 
Q 403 2666 317 2708 
Q 231 2750 6 2747 
L 6 2863 
L 1009 2863 
L 1009 947 
Q 1009 547 1148 422 
Q 1288 297 1484 297 
Q 1619 297 1789 381 
Q 1959 466 2194 703 
L 2194 2325 
Q 2194 2569 2105 2655 
Q 2016 2741 1734 2747 
L 1734 2863 
L 2709 2863 
z
" transform="scale(0.015625)"/>
       <path id="TimesNewRomanPSMT-74" d="M 1031 3803 
L 1031 2863 
L 1700 2863 
L 1700 2644 
L 1031 2644 
L 1031 788 
Q 1031 509 1111 412 
Q 1191 316 1316 316 
Q 1419 316 1516 380 
Q 1613 444 1666 569 
L 1788 569 
Q 1678 263 1478 108 
Q 1278 -47 1066 -47 
Q 922 -47 784 33 
Q 647 113 581 261 
Q 516 409 516 719 
L 516 2644 
L 63 2644 
L 63 2747 
Q 234 2816 414 2980 
Q 594 3144 734 3369 
Q 806 3488 934 3803 
L 1031 3803 
z
" transform="scale(0.015625)"/>
       <path id="TimesNewRomanPSMT-6f" d="M 1600 2947 
Q 2250 2947 2644 2453 
Q 2978 2031 2978 1484 
Q 2978 1100 2793 706 
Q 2609 313 2286 112 
Q 1963 -88 1566 -88 
Q 919 -88 538 428 
Q 216 863 216 1403 
Q 216 1797 411 2186 
Q 606 2575 925 2761 
Q 1244 2947 1600 2947 
z
M 1503 2744 
Q 1338 2744 1170 2645 
Q 1003 2547 900 2300 
Q 797 2053 797 1666 
Q 797 1041 1045 587 
Q 1294 134 1700 134 
Q 2003 134 2200 384 
Q 2397 634 2397 1244 
Q 2397 2006 2069 2444 
Q 1847 2744 1503 2744 
z
" transform="scale(0.015625)"/>
       <path id="TimesNewRomanPSMT-72" d="M 1038 2947 
L 1038 2303 
Q 1397 2947 1775 2947 
Q 1947 2947 2059 2842 
Q 2172 2738 2172 2600 
Q 2172 2478 2090 2393 
Q 2009 2309 1897 2309 
Q 1788 2309 1652 2417 
Q 1516 2525 1450 2525 
Q 1394 2525 1328 2463 
Q 1188 2334 1038 2041 
L 1038 669 
Q 1038 431 1097 309 
Q 1138 225 1241 169 
Q 1344 113 1538 113 
L 1538 0 
L 72 0 
L 72 113 
Q 291 113 397 181 
Q 475 231 506 341 
Q 522 394 522 644 
L 522 1753 
Q 522 2253 501 2348 
Q 481 2444 426 2487 
Q 372 2531 291 2531 
Q 194 2531 72 2484 
L 41 2597 
L 906 2947 
L 1038 2947 
z
" transform="scale(0.015625)"/>
       <path id="TimesNewRomanPSMT-73" d="M 2050 2947 
L 2050 1972 
L 1947 1972 
Q 1828 2431 1642 2597 
Q 1456 2763 1169 2763 
Q 950 2763 815 2647 
Q 681 2531 681 2391 
Q 681 2216 781 2091 
Q 878 1963 1175 1819 
L 1631 1597 
Q 2266 1288 2266 781 
Q 2266 391 1970 151 
Q 1675 -88 1309 -88 
Q 1047 -88 709 6 
Q 606 38 541 38 
Q 469 38 428 -44 
L 325 -44 
L 325 978 
L 428 978 
Q 516 541 762 319 
Q 1009 97 1316 97 
Q 1531 97 1667 223 
Q 1803 350 1803 528 
Q 1803 744 1651 891 
Q 1500 1038 1047 1263 
Q 594 1488 453 1669 
Q 313 1847 313 2119 
Q 313 2472 555 2709 
Q 797 2947 1181 2947 
Q 1350 2947 1591 2875 
Q 1750 2828 1803 2828 
Q 1853 2828 1881 2850 
Q 1909 2872 1947 2947 
L 2050 2947 
z
" transform="scale(0.015625)"/>
      </defs>
      <use xlink:href="#TimesNewRomanPSMT-4f"/>
      <use xlink:href="#TimesNewRomanPSMT-75" transform="translate(72.216797 0)"/>
      <use xlink:href="#TimesNewRomanPSMT-74" transform="translate(122.216797 0)"/>
      <use xlink:href="#TimesNewRomanPSMT-64" transform="translate(150 0)"/>
      <use xlink:href="#TimesNewRomanPSMT-6f" transform="translate(200 0)"/>
      <use xlink:href="#TimesNewRomanPSMT-6f" transform="translate(250 0)"/>
      <use xlink:href="#TimesNewRomanPSMT-72" transform="translate(300 0)"/>
      <use xlink:href="#TimesNewRomanPSMT-73" transform="translate(333.300781 0)"/>
     </g>
    </g>
    <g id="line2d_40">
     <path d="M 301.55625 65.681627 
L 321.55625 65.681627 
L 341.55625 65.681627 
" style="fill: none; stroke-dasharray: 11.1,4.8; stroke-dashoffset: 0; stroke: #228b22; stroke-width: 3"/>
     <g>
      <use xlink:href="#m3c84026ec7" x="321.55625" y="65.681627" style="fill-opacity: 0; stroke: #228b22; stroke-width: 2; stroke-linejoin: miter"/>
     </g>
    </g>
    <g id="text_21">
     <!-- Lab -->
     <g transform="translate(357.55625 72.681627) scale(0.2 -0.2)">
      <defs>
       <path id="TimesNewRomanPSMT-4c" d="M 3669 1172 
L 3772 1150 
L 3409 0 
L 128 0 
L 128 116 
L 288 116 
Q 556 116 672 291 
Q 738 391 738 753 
L 738 3488 
Q 738 3884 650 3984 
Q 528 4122 288 4122 
L 128 4122 
L 128 4238 
L 2047 4238 
L 2047 4122 
Q 1709 4125 1573 4059 
Q 1438 3994 1388 3894 
Q 1338 3794 1338 3416 
L 1338 753 
Q 1338 494 1388 397 
Q 1425 331 1503 300 
Q 1581 269 1991 269 
L 2300 269 
Q 2788 269 2984 341 
Q 3181 413 3343 595 
Q 3506 778 3669 1172 
z
" transform="scale(0.015625)"/>
       <path id="TimesNewRomanPSMT-61" d="M 1822 413 
Q 1381 72 1269 19 
Q 1100 -59 909 -59 
Q 613 -59 420 144 
Q 228 347 228 678 
Q 228 888 322 1041 
Q 450 1253 767 1440 
Q 1084 1628 1822 1897 
L 1822 2009 
Q 1822 2438 1686 2597 
Q 1550 2756 1291 2756 
Q 1094 2756 978 2650 
Q 859 2544 859 2406 
L 866 2225 
Q 866 2081 792 2003 
Q 719 1925 600 1925 
Q 484 1925 411 2006 
Q 338 2088 338 2228 
Q 338 2497 613 2722 
Q 888 2947 1384 2947 
Q 1766 2947 2009 2819 
Q 2194 2722 2281 2516 
Q 2338 2381 2338 1966 
L 2338 994 
Q 2338 584 2353 492 
Q 2369 400 2405 369 
Q 2441 338 2488 338 
Q 2538 338 2575 359 
Q 2641 400 2828 588 
L 2828 413 
Q 2478 -56 2159 -56 
Q 2006 -56 1915 50 
Q 1825 156 1822 413 
z
M 1822 616 
L 1822 1706 
Q 1350 1519 1213 1441 
Q 966 1303 859 1153 
Q 753 1003 753 825 
Q 753 600 887 451 
Q 1022 303 1197 303 
Q 1434 303 1822 616 
z
" transform="scale(0.015625)"/>
       <path id="TimesNewRomanPSMT-62" d="M 984 2369 
Q 1400 2947 1881 2947 
Q 2322 2947 2650 2570 
Q 2978 2194 2978 1541 
Q 2978 778 2472 313 
Q 2038 -88 1503 -88 
Q 1253 -88 995 3 
Q 738 94 469 275 
L 469 3241 
Q 469 3728 445 3840 
Q 422 3953 372 3993 
Q 322 4034 247 4034 
Q 159 4034 28 3984 
L -16 4094 
L 844 4444 
L 984 4444 
L 984 2369 
z
M 984 2169 
L 984 456 
Q 1144 300 1314 220 
Q 1484 141 1663 141 
Q 1947 141 2192 453 
Q 2438 766 2438 1363 
Q 2438 1913 2192 2208 
Q 1947 2503 1634 2503 
Q 1469 2503 1303 2419 
Q 1178 2356 984 2169 
z
" transform="scale(0.015625)"/>
      </defs>
      <use xlink:href="#TimesNewRomanPSMT-4c"/>
      <use xlink:href="#TimesNewRomanPSMT-61" transform="translate(61.083984 0)"/>
      <use xlink:href="#TimesNewRomanPSMT-62" transform="translate(105.46875 0)"/>
     </g>
    </g>
    <g id="line2d_41">
     <path d="M 301.55625 93.959752 
L 321.55625 93.959752 
L 341.55625 93.959752 
" style="fill: none; stroke-dasharray: 19.2,4.8,3,4.8; stroke-dashoffset: 0; stroke: #ff8c00; stroke-width: 3"/>
     <g>
      <use xlink:href="#mfab06797e6" x="321.55625" y="93.959752" style="fill-opacity: 0; stroke: #ff8c00; stroke-width: 2; stroke-linejoin: miter"/>
     </g>
    </g>
    <g id="text_22">
     <!-- Office -->
     <g transform="translate(357.55625 100.959752) scale(0.2 -0.2)">
      <defs>
       <path id="TimesNewRomanPSMT-66" d="M 1319 2638 
L 1319 756 
Q 1319 356 1406 250 
Q 1522 113 1716 113 
L 1975 113 
L 1975 0 
L 266 0 
L 266 113 
L 394 113 
Q 519 113 622 175 
Q 725 238 764 344 
Q 803 450 803 756 
L 803 2638 
L 247 2638 
L 247 2863 
L 803 2863 
L 803 3050 
Q 803 3478 940 3775 
Q 1078 4072 1361 4255 
Q 1644 4438 1997 4438 
Q 2325 4438 2600 4225 
Q 2781 4084 2781 3909 
Q 2781 3816 2700 3733 
Q 2619 3650 2525 3650 
Q 2453 3650 2373 3701 
Q 2294 3753 2178 3923 
Q 2063 4094 1966 4153 
Q 1869 4213 1750 4213 
Q 1606 4213 1506 4136 
Q 1406 4059 1362 3898 
Q 1319 3738 1319 3069 
L 1319 2863 
L 2056 2863 
L 2056 2638 
L 1319 2638 
z
" transform="scale(0.015625)"/>
       <path id="TimesNewRomanPSMT-69" d="M 928 4444 
Q 1059 4444 1151 4351 
Q 1244 4259 1244 4128 
Q 1244 3997 1151 3903 
Q 1059 3809 928 3809 
Q 797 3809 703 3903 
Q 609 3997 609 4128 
Q 609 4259 701 4351 
Q 794 4444 928 4444 
z
M 1188 2947 
L 1188 647 
Q 1188 378 1227 289 
Q 1266 200 1342 156 
Q 1419 113 1622 113 
L 1622 0 
L 231 0 
L 231 113 
Q 441 113 512 153 
Q 584 194 626 287 
Q 669 381 669 647 
L 669 1750 
Q 669 2216 641 2353 
Q 619 2453 572 2492 
Q 525 2531 444 2531 
Q 356 2531 231 2484 
L 188 2597 
L 1050 2947 
L 1188 2947 
z
" transform="scale(0.015625)"/>
       <path id="TimesNewRomanPSMT-63" d="M 2631 1088 
Q 2516 522 2178 217 
Q 1841 -88 1431 -88 
Q 944 -88 581 321 
Q 219 731 219 1428 
Q 219 2103 620 2525 
Q 1022 2947 1584 2947 
Q 2006 2947 2278 2723 
Q 2550 2500 2550 2259 
Q 2550 2141 2473 2067 
Q 2397 1994 2259 1994 
Q 2075 1994 1981 2113 
Q 1928 2178 1911 2362 
Q 1894 2547 1784 2644 
Q 1675 2738 1481 2738 
Q 1169 2738 978 2506 
Q 725 2200 725 1697 
Q 725 1184 976 792 
Q 1228 400 1656 400 
Q 1963 400 2206 609 
Q 2378 753 2541 1131 
L 2631 1088 
z
" transform="scale(0.015625)"/>
       <path id="TimesNewRomanPSMT-65" d="M 681 1784 
Q 678 1147 991 784 
Q 1303 422 1725 422 
Q 2006 422 2214 576 
Q 2422 731 2563 1106 
L 2659 1044 
Q 2594 616 2278 264 
Q 1963 -88 1488 -88 
Q 972 -88 605 314 
Q 238 716 238 1394 
Q 238 2128 614 2539 
Q 991 2950 1559 2950 
Q 2041 2950 2350 2633 
Q 2659 2316 2659 1784 
L 681 1784 
z
M 681 1966 
L 2006 1966 
Q 1991 2241 1941 2353 
Q 1863 2528 1708 2628 
Q 1553 2728 1384 2728 
Q 1125 2728 920 2526 
Q 716 2325 681 1966 
z
" transform="scale(0.015625)"/>
      </defs>
      <use xlink:href="#TimesNewRomanPSMT-4f"/>
      <use xlink:href="#TimesNewRomanPSMT-66" transform="translate(72.216797 0)"/>
      <use xlink:href="#TimesNewRomanPSMT-66" transform="translate(103.767578 0)"/>
      <use xlink:href="#TimesNewRomanPSMT-69" transform="translate(137.068359 0)"/>
      <use xlink:href="#TimesNewRomanPSMT-63" transform="translate(164.851562 0)"/>
      <use xlink:href="#TimesNewRomanPSMT-65" transform="translate(209.236328 0)"/>
     </g>
    </g>
    <g id="line2d_42">
     <path d="M 301.55625 122.237877 
L 321.55625 122.237877 
L 341.55625 122.237877 
" style="fill: none; stroke-dasharray: 3,4.95; stroke-dashoffset: 0; stroke: #cd5c5c; stroke-width: 3"/>
     <g>
      <use xlink:href="#md24a617487" x="321.55625" y="122.237877" style="fill-opacity: 0; stroke: #cd5c5c; stroke-width: 2; stroke-linejoin: miter"/>
     </g>
    </g>
    <g id="text_23">
     <!-- Cup -->
     <g transform="translate(357.55625 129.237877) scale(0.2 -0.2)">
      <defs>
       <path id="TimesNewRomanPSMT-43" d="M 3853 4334 
L 3950 2894 
L 3853 2894 
Q 3659 3541 3300 3825 
Q 2941 4109 2438 4109 
Q 2016 4109 1675 3895 
Q 1334 3681 1139 3212 
Q 944 2744 944 2047 
Q 944 1472 1128 1050 
Q 1313 628 1683 403 
Q 2053 178 2528 178 
Q 2941 178 3256 354 
Q 3572 531 3950 1056 
L 4047 994 
Q 3728 428 3303 165 
Q 2878 -97 2294 -97 
Q 1241 -97 663 684 
Q 231 1266 231 2053 
Q 231 2688 515 3219 
Q 800 3750 1298 4042 
Q 1797 4334 2388 4334 
Q 2847 4334 3294 4109 
Q 3425 4041 3481 4041 
Q 3566 4041 3628 4100 
Q 3709 4184 3744 4334 
L 3853 4334 
z
" transform="scale(0.015625)"/>
       <path id="TimesNewRomanPSMT-70" d="M -6 2578 
L 875 2934 
L 994 2934 
L 994 2266 
Q 1216 2644 1439 2795 
Q 1663 2947 1909 2947 
Q 2341 2947 2628 2609 
Q 2981 2197 2981 1534 
Q 2981 794 2556 309 
Q 2206 -88 1675 -88 
Q 1444 -88 1275 -22 
Q 1150 25 994 166 
L 994 -706 
Q 994 -1000 1030 -1079 
Q 1066 -1159 1155 -1206 
Q 1244 -1253 1478 -1253 
L 1478 -1369 
L -22 -1369 
L -22 -1253 
L 56 -1253 
Q 228 -1256 350 -1188 
Q 409 -1153 442 -1076 
Q 475 -1000 475 -688 
L 475 2019 
Q 475 2297 450 2372 
Q 425 2447 370 2484 
Q 316 2522 222 2522 
Q 147 2522 31 2478 
L -6 2578 
z
M 994 2081 
L 994 1013 
Q 994 666 1022 556 
Q 1066 375 1236 237 
Q 1406 100 1666 100 
Q 1978 100 2172 344 
Q 2425 663 2425 1241 
Q 2425 1897 2138 2250 
Q 1938 2494 1663 2494 
Q 1513 2494 1366 2419 
Q 1253 2363 994 2081 
z
" transform="scale(0.015625)"/>
      </defs>
      <use xlink:href="#TimesNewRomanPSMT-43"/>
      <use xlink:href="#TimesNewRomanPSMT-75" transform="translate(66.699219 0)"/>
      <use xlink:href="#TimesNewRomanPSMT-70" transform="translate(116.699219 0)"/>
     </g>
    </g>
   </g>
  </g>
 </g>
 <defs>
  <clipPath id="p7f749a2c4d">
   <rect x="71.6825" y="12.403502" width="378.3175" height="264.753998"/>
  </clipPath>
 </defs>
</svg>
